<svg xmlns="http://www.w3.org/2000/svg" width="400" height="400" viewBox="0 0 400 400"><rect width="100%" height="100%" fill="#1e293b"/><path fill="#ffffff" d="M101.605 200.435h20.93l-8.01-21.89q-.59-1.45-1.23-3.46-.63-2-1.27-4.32-.59 2.32-1.23 4.35-.64 2.02-1.23 3.52zm16.7-40.95 25.84 65.79h-9.46q-1.59 0-2.59-.8-1.01-.79-1.51-1.98l-4.91-13.42h-27.25l-4.92 13.42q-.36 1.05-1.41 1.92-1.05.86-2.59.86h-9.56l25.89-65.79zm40.63 21.15.77 3.69q1.41-1.41 2.98-2.62 1.57-1.2 3.33-2.04 1.75-.85 3.75-1.32 2-.48 4.37-.48 3.82 0 6.78 1.3 2.95 1.29 4.93 3.64 1.98 2.34 3.01 5.59 1.02 3.26 1.02 7.17v29.71h-11.24v-29.71q0-4.28-1.95-6.62-1.96-2.34-5.97-2.34-2.91 0-5.46 1.31-2.54 1.32-4.82 3.6v33.76h-11.24v-46.68h6.87q2.19 0 2.87 2.04m72.62 3.01-2.55 4.05q-.45.73-.96 1.02-.5.3-1.27.3-.82 0-1.75-.46-.93-.45-2.16-1.02t-2.8-1.03q-1.57-.45-3.71-.45-3.32 0-5.21 1.41t-1.89 3.68q0 1.51.98 2.53t2.59 1.8q1.62.77 3.67 1.39 2.05.61 4.16 1.34 2.12.73 4.16 1.66 2.05.93 3.67 2.36 1.61 1.44 2.59 3.44t.98 4.82q0 3.37-1.21 6.21-1.2 2.85-3.57 4.92-2.36 2.07-5.85 3.23-3.48 1.16-8.03 1.16-2.41 0-4.71-.43-2.29-.44-4.41-1.21-2.11-.77-3.91-1.82t-3.16-2.27l2.59-4.28q.5-.78 1.18-1.18.68-.41 1.73-.41t1.98.59 2.16 1.27 2.89 1.28q1.66.59 4.21.59 2 0 3.43-.48 1.44-.48 2.37-1.25.93-.78 1.37-1.8.43-1.02.43-2.12 0-1.63-.98-2.68t-2.59-1.82q-1.62-.77-3.69-1.39-2.07-.61-4.23-1.34t-4.23-1.71q-2.07-.97-3.69-2.48-1.61-1.5-2.59-3.68-.98-2.19-.98-5.28 0-2.87 1.14-5.46t3.34-4.53q2.21-1.93 5.51-3.09t7.62-1.16q4.82 0 8.78 1.59t6.6 4.19m42.36-5.05h9.01l-25.44 59.51q-.5 1.18-1.29 1.8-.8.61-2.44.61h-8.37l8.74-18.74-18.89-43.18h9.88q1.32 0 2.07.63.75.64 1.11 1.46l9.92 24.21q.5 1.22.84 2.45t.66 2.51q.41-1.28.82-2.53t.91-2.48l9.37-24.16q.37-.91 1.21-1.5t1.89-.59m45.63 5.05-2.54 4.05q-.46.73-.96 1.02-.5.3-1.27.3-.82 0-1.75-.46-.94-.45-2.17-1.02-1.22-.57-2.79-1.03-1.57-.45-3.71-.45-3.32 0-5.21 1.41t-1.89 3.68q0 1.51.98 2.53t2.59 1.8q1.62.77 3.66 1.39 2.05.61 4.17 1.34 2.11.73 4.16 1.66t3.66 2.36q1.62 1.44 2.6 3.44t.98 4.82q0 3.37-1.21 6.21-1.21 2.85-3.57 4.92-2.37 2.07-5.85 3.23t-8.03 1.16q-2.41 0-4.71-.43-2.3-.44-4.41-1.21-2.12-.77-3.92-1.82-1.79-1.05-3.16-2.27l2.6-4.28q.5-.78 1.18-1.18.68-.41 1.73-.41 1.04 0 1.98.59.93.59 2.16 1.27t2.89 1.28q1.66.59 4.21.59 2 0 3.43-.48 1.44-.48 2.37-1.25.93-.78 1.36-1.8.44-1.02.44-2.12 0-1.63-.98-2.68t-2.6-1.82q-1.61-.77-3.68-1.39-2.07-.61-4.23-1.34t-4.24-1.71q-2.07-.97-3.68-2.48-1.62-1.5-2.59-3.68-.98-2.19-.98-5.28 0-2.87 1.14-5.46 1.13-2.59 3.34-4.53 2.21-1.93 5.5-3.09 3.3-1.16 7.63-1.16 4.82 0 8.78 1.59t6.59 4.19"/></svg>