<svg xmlns="http://www.w3.org/2000/svg" width="400" height="400" viewBox="0 0 400 400"><rect width="100%" height="100%" fill="#1e293b"/><path fill="#ffffff" d="M95.105 199.89h14.49l-5.54-15.15q-.41-1.01-.86-2.39-.44-1.39-.88-3-.41 1.61-.85 3.01t-.85 2.44zm11.56-28.35 17.89 45.55h-6.55q-1.1 0-1.8-.55-.69-.55-1.04-1.37l-3.4-9.29h-18.87l-3.4 9.29q-.25.72-.97 1.32-.73.6-1.8.6h-6.61l17.92-45.55zm28.26 15.18.47 3.66q1.51-2.9 3.59-4.55 2.08-1.66 4.91-1.66 2.24 0 3.59.98l-.5 5.83q-.16.56-.46.8t-.8.24q-.47 0-1.4-.16t-1.81-.16q-1.29 0-2.3.38t-1.81 1.09q-.81.7-1.42 1.71-.62 1.01-1.15 2.3v19.91h-7.78v-32.32h4.57q1.19 0 1.67.43.47.42.63 1.52m28.44 13.42q1.45 0 2.52-.39t1.78-1.09q.71-.69 1.07-1.67.36-.97.36-2.14 0-2.39-1.43-3.79-1.43-1.41-4.3-1.41t-4.3 1.41q-1.43 1.4-1.43 3.79 0 1.13.36 2.11t1.07 1.69 1.8 1.1q1.08.39 2.5.39m8.79 18.4q0-.95-.57-1.54-.57-.6-1.54-.93-.98-.33-2.29-.49-1.3-.16-2.77-.24-1.46-.08-3.02-.14t-3.04-.25q-1.29.72-2.1 1.7-.8.98-.8 2.27 0 .85.43 1.59.42.74 1.35 1.27.93.54 2.41.84t3.62.3q2.18 0 3.75-.33 1.58-.33 2.6-.92 1.02-.58 1.5-1.38.47-.81.47-1.75m-1.55-32.67h9.3v2.9q0 1.39-1.67 1.7l-2.9.54q.66 1.67.66 3.65 0 2.4-.96 4.33-.96 1.94-2.66 3.3-1.7 1.35-4.02 2.09-2.31.74-4.99.74-.95 0-1.83-.09-.88-.1-1.73-.26-1.51.92-1.51 2.05 0 .98.9 1.43.89.46 2.37.65t3.37.24q1.89.04 3.88.2 1.98.16 3.87.55 1.89.4 3.37 1.25t2.38 2.31q.9 1.47.9 3.77 0 2.14-1.05 4.15-1.06 2.02-3.06 3.6-2 1.57-4.91 2.53-2.92.96-6.64.96-3.65 0-6.36-.71t-4.5-1.89q-1.8-1.18-2.68-2.72-.88-1.55-.88-3.22 0-2.26 1.37-3.79t3.76-2.44q-1.29-.66-2.05-1.77-.75-1.1-.75-2.89 0-.73.27-1.5.26-.77.78-1.53.52-.75 1.31-1.43t1.86-1.21q-2.46-1.33-3.86-3.53-1.4-2.21-1.4-5.17 0-2.39.96-4.33t2.68-3.31q1.71-1.37 4.06-2.09 2.35-.73 5.12-.73 2.08 0 3.91.43 1.82.42 3.33 1.24m28.51-1.6q3.59 0 6.54 1.16 2.94 1.17 5.04 3.31 2.09 2.14 3.23 5.23 1.13 3.09 1.13 6.9 0 3.84-1.13 6.93-1.14 3.08-3.23 5.26-2.1 2.17-5.04 3.34-2.95 1.16-6.54 1.16-3.62 0-6.58-1.16-2.96-1.17-5.06-3.34-2.09-2.18-3.24-5.26-1.15-3.09-1.15-6.93 0-3.81 1.15-6.9t3.24-5.23q2.1-2.14 5.06-3.31 2.96-1.16 6.58-1.16m0 27.31q4.03 0 5.97-2.71t1.94-7.94-1.94-7.97-5.97-2.74q-4.09 0-6.06 2.76-1.97 2.75-1.97 7.95t1.97 7.92q1.97 2.73 6.06 2.73m28.64-25.39.53 2.55q.98-.98 2.06-1.81 1.09-.84 2.3-1.42 1.22-.58 2.6-.91 1.39-.33 3.03-.33 2.64 0 4.69.89 2.05.9 3.42 2.52 1.37 1.63 2.08 3.88t.71 4.96v20.57h-7.78v-20.57q0-2.96-1.36-4.58-1.35-1.62-4.13-1.62-2.01 0-3.78.91-1.76.91-3.33 2.49v23.37h-7.79v-32.32h4.76q1.51 0 1.99 1.42m35.53 0 .53 2.55q.98-.98 2.07-1.81 1.08-.84 2.3-1.42 1.21-.58 2.59-.91 1.39-.33 3.03-.33 2.64 0 4.69.89 2.05.9 3.42 2.52 1.37 1.63 2.08 3.88t.71 4.96v20.57h-7.78v-20.57q0-2.96-1.36-4.58-1.35-1.62-4.12-1.62-2.02 0-3.78.91-1.77.91-3.34 2.49v23.37h-7.78v-32.32h4.75q1.52 0 1.99 1.42m34.93 11.02h14.68q0-1.51-.42-2.85-.43-1.34-1.28-2.34-.85-1.01-2.16-1.59-1.31-.59-3.04-.59-3.37 0-5.31 1.92-1.93 1.93-2.47 5.45m19.85 4.7h-20.01q.19 2.49.89 4.3.69 1.81 1.82 2.99 1.14 1.18 2.7 1.76 1.56.59 3.45.59t3.26-.45q1.37-.44 2.39-.97 1.02-.54 1.8-.98.77-.44 1.49-.44.98 0 1.45.73l2.24 2.83q-1.29 1.51-2.9 2.54-1.61 1.02-3.36 1.63-1.74.62-3.56.87-1.81.25-3.51.25-3.37 0-6.27-1.12-2.89-1.11-5.04-3.3-2.14-2.19-3.37-5.42t-1.23-7.48q0-3.31 1.08-6.22 1.07-2.92 3.07-5.08 2-2.15 4.88-3.41t6.5-1.26q3.06 0 5.64.97 2.59.98 4.44 2.85 1.86 1.88 2.92 4.6 1.05 2.73 1.05 6.22 0 1.77-.37 2.38-.38.62-1.45.62"/></svg>