<svg xmlns="http://www.w3.org/2000/svg" width="400" height="400" viewBox="0 0 400 400"><rect width="100%" height="100%" fill="#1e293b"/><path fill="#ffffff" d="M90.765 200.29v14.72q1.35 1.63 2.93 2.3t3.34.67q1.83 0 3.28-.65 1.46-.66 2.48-2.05 1.03-1.39 1.57-3.55.55-2.16.55-5.17 0-5.41-1.8-7.82-1.79-2.42-5.15-2.42-2.27 0-3.97 1.04-1.69 1.04-3.23 2.93m0-24.32v18.75q1.99-2.08 4.4-3.31 2.42-1.23 5.52-1.23 2.85 0 5.14 1.12t3.9 3.21q1.62 2.1 2.48 5.07.87 2.98.87 6.69 0 4-1 7.27-.99 3.26-2.83 5.58t-4.43 3.6-5.76 1.28q-1.54 0-2.78-.3-1.25-.31-2.31-.85-1.05-.55-1.93-1.33t-1.68-1.74l-.36 2.2q-.19.84-.65 1.19-.47.35-1.27.35h-5.21v-47.55zm34.66 27.36h14.91q0-1.54-.43-2.9t-1.3-2.38q-.86-1.03-2.19-1.62t-3.09-.59q-3.42 0-5.39 1.95t-2.51 5.54m20.16 4.77h-20.32q.19 2.52.89 4.36.71 1.84 1.86 3.04t2.74 1.8q1.58.59 3.5.59t3.31-.45 2.43-.99q1.04-.55 1.83-.99.78-.45 1.52-.45.99 0 1.47.73l2.27 2.88q-1.31 1.54-2.94 2.58t-3.41 1.66q-1.78.63-3.62.88-1.84.26-3.56.26-3.43 0-6.37-1.14-2.95-1.13-5.12-3.36-2.18-2.22-3.43-5.5-1.24-3.28-1.24-7.6 0-3.36 1.08-6.32 1.09-2.96 3.12-5.15 2.04-2.19 4.96-3.47 2.93-1.28 6.61-1.28 3.11 0 5.73.99t4.51 2.89q1.89 1.91 2.96 4.68 1.07 2.76 1.07 6.32 0 1.79-.38 2.41-.38.63-1.47.63m15.68-32.13v18.24q1.92-1.79 4.22-2.91 2.31-1.12 5.41-1.12 2.69 0 4.77.91t3.47 2.56 2.11 3.93q.72 2.29.72 5.04v20.9h-7.9v-20.9q0-3-1.38-4.65-1.37-1.65-4.19-1.65-2.05 0-3.84.93t-3.39 2.53v23.74h-7.91v-47.55zm45.53 39.07v-5.54q-3.42.16-5.76.6-2.33.43-3.74 1.1t-2.02 1.57q-.6.89-.6 1.95 0 2.08 1.23 2.98 1.23.89 3.21.89 2.44 0 4.21-.88 1.78-.88 3.47-2.67m-16.7-17.25-1.41-2.53q5.67-5.18 13.63-5.18 2.88 0 5.16.94 2.27.95 3.84 2.63 1.56 1.68 2.38 4.01.82 2.34.82 5.12v20.74h-3.59q-1.12 0-1.73-.34-.6-.33-.96-1.36l-.7-2.36q-1.25 1.12-2.43 1.96-1.19.85-2.47 1.43-1.28.57-2.73.88-1.46.3-3.22.3-2.08 0-3.84-.56t-3.04-1.68-1.98-2.78q-.71-1.67-.71-3.87 0-1.25.42-2.48.42-1.24 1.36-2.36t2.45-2.11q1.5-.99 3.69-1.73 2.2-.73 5.11-1.2 2.91-.46 6.65-.56v-1.92q0-3.29-1.4-4.88-1.41-1.58-4.07-1.58-1.92 0-3.18.45-1.27.45-2.23 1.01t-1.74 1q-.78.45-1.74.45-.84 0-1.41-.43-.58-.43-.93-1.01m38.69-5.66.54 2.59q.99-.99 2.1-1.84 1.1-.85 2.33-1.44 1.24-.59 2.64-.93 1.41-.33 3.08-.33 2.68 0 4.76.91t3.48 2.56q1.39 1.65 2.11 3.93.72 2.29.72 5.04v20.9h-7.91v-20.9q0-3-1.37-4.65-1.38-1.65-4.19-1.65-2.05 0-3.84.93-1.8.93-3.4 2.53v23.74h-7.9v-32.83h4.83q1.54 0 2.02 1.44m54.85 2.62-2.08 2.88q-.36.45-.69.71-.34.25-.98.25-.61 0-1.18-.37-.58-.36-1.38-.83-.8-.46-1.9-.83-1.11-.37-2.74-.37-2.08 0-3.65.75-1.56.76-2.6 2.16-1.04 1.41-1.56 3.41-.51 2-.51 4.53 0 2.62.56 4.67t1.62 3.44q1.05 1.39 2.56 2.11 1.5.72 3.39.72t3.06-.46q1.16-.46 1.96-1.02t1.4-1.03q.59-.46 1.32-.46.96 0 1.44.73l2.28 2.88q-1.32 1.54-2.85 2.58-1.54 1.04-3.19 1.66-1.64.63-3.39.88-1.74.26-3.47.26-3.04 0-5.73-1.14-2.69-1.13-4.7-3.31-2.02-2.17-3.19-5.33-1.16-3.15-1.16-7.18 0-3.62 1.04-6.7 1.04-3.09 3.05-5.35 2.02-2.25 4.99-3.53 2.98-1.28 6.85-1.28 3.68 0 6.45 1.18t4.98 3.39m11.48 8.58h14.92q0-1.54-.44-2.9-.43-1.36-1.29-2.38-.87-1.03-2.19-1.62-1.33-.59-3.09-.59-3.43 0-5.39 1.95-1.97 1.95-2.52 5.54m20.16 4.77h-20.32q.2 2.52.9 4.36t1.86 3.04q1.15 1.2 2.73 1.8 1.59.59 3.51.59t3.31-.45 2.43-.99q1.04-.55 1.82-.99.79-.45 1.52-.45 1 0 1.48.73l2.27 2.88q-1.31 1.54-2.95 2.58-1.63 1.04-3.4 1.66-1.78.63-3.62.88-1.84.26-3.57.26-3.42 0-6.37-1.14-2.94-1.13-5.12-3.36-2.17-2.22-3.42-5.5t-1.25-7.6q0-3.36 1.09-6.32t3.12-5.15 4.96-3.47 6.61-1.28q3.1 0 5.73.99 2.62.99 4.51 2.89 1.89 1.91 2.96 4.68 1.07 2.76 1.07 6.32 0 1.79-.38 2.41-.39.63-1.48.63"/></svg>