<svg xmlns="http://www.w3.org/2000/svg" width="400" height="400" viewBox="0 0 400 400"><rect width="100%" height="100%" fill="#1e293b"/><path fill="#ffffff" d="M86.21 204.135q.23 0 .41.18l1.11 1.21q-.92 1.14-2.27 1.75t-3.24.61q-1.69 0-3.04-.58t-2.3-1.61q-.96-1.03-1.47-2.45-.51-1.43-.51-3.12 0-1.71.55-3.14.54-1.42 1.54-2.45.99-1.03 2.36-1.6 1.38-.57 3.05-.57 1.66 0 2.94.54 1.29.55 2.19 1.43l-.94 1.32q-.09.12-.22.22-.13.09-.36.09-.16 0-.33-.09-.16-.09-.36-.22t-.46-.29q-.27-.16-.61-.29-.35-.13-.81-.22-.45-.09-1.05-.09-1.02 0-1.87.37-.84.36-1.45 1.05-.61.68-.95 1.68-.33.99-.33 2.26 0 1.28.36 2.28.36.99.98 1.68.62.68 1.46 1.04t1.81.36q.58 0 1.04-.06.47-.06.86-.2.4-.14.75-.35.35-.22.7-.53.1-.1.22-.15.11-.06.24-.06m5.65-12.02v5.98q.63-.59 1.38-.95.76-.37 1.78-.37.88 0 1.56.3.69.3 1.14.84.46.54.7 1.29.23.75.23 1.65v6.86h-2.59v-6.86q0-.98-.45-1.52-.45-.55-1.38-.55-.67 0-1.26.31-.59.3-1.11.83v7.79h-2.59v-15.6zm14.94 12.82v-1.82q-1.12.05-1.89.2-.77.14-1.23.36t-.66.51q-.2.3-.2.64 0 .68.4.98.41.29 1.06.29.8 0 1.38-.29.58-.28 1.14-.87m-5.48-5.66-.46-.83q1.86-1.7 4.47-1.7.95 0 1.69.31.75.31 1.26.86.52.55.78 1.32.27.76.27 1.68v6.8h-1.18q-.36 0-.56-.11t-.32-.45l-.23-.77q-.41.36-.8.64-.38.28-.8.47t-.9.29-1.06.1q-.68 0-1.26-.19-.58-.18-1-.55-.42-.36-.65-.91t-.23-1.27q0-.41.14-.81.14-.41.45-.78.31-.36.8-.69t1.21-.57 1.68-.39q.95-.15 2.18-.18v-.63q0-1.09-.46-1.61t-1.34-.52q-.63 0-1.04.15t-.73.33q-.31.19-.57.33-.26.15-.57.15-.28 0-.47-.14t-.3-.33m10.53-2.33h2.6v10.77h-2.6zm2.96-3.14q0 .33-.13.63-.14.29-.37.51-.22.22-.53.35-.3.13-.65.13-.33 0-.63-.13t-.52-.35-.36-.51q-.13-.3-.13-.63 0-.35.13-.65.14-.31.36-.53t.52-.35.63-.13q.35 0 .65.13.31.13.53.35.23.22.37.53.13.3.13.65m4.54 3.61.18.85q.32-.33.68-.6.37-.28.77-.48.4-.19.87-.3.46-.11 1-.11.89 0 1.57.3t1.14.84.69 1.29q.24.75.24 1.65v6.86h-2.6v-6.86q0-.98-.45-1.52-.45-.55-1.37-.55-.67 0-1.26.31-.59.3-1.12.83v7.79h-2.59v-10.77h1.59q.5 0 .66.47m9.51 5.04v-2.16h5.44v2.16zm11.15-2.7h1.77q.79 0 1.39-.2.59-.2.97-.55.39-.35.58-.83.18-.49.18-1.07 0-1.15-.76-1.77t-2.32-.62h-1.81zm5.23 2.35 3.8 5.61h-2.55q-.72 0-1.05-.57l-3.19-4.86q-.18-.27-.4-.39-.21-.11-.63-.11h-1.21v5.93h-2.82v-15.18h4.63q1.54 0 2.65.32t1.82.89q.7.58 1.04 1.39.34.8.34 1.76 0 .77-.23 1.45-.23.69-.65 1.24-.43.56-1.05.98-.63.42-1.42.66.27.16.5.37.23.22.42.51m7.09-1.02h4.89q0-.5-.14-.95-.14-.44-.43-.78-.28-.33-.72-.53-.43-.19-1.01-.19-1.12 0-1.77.64-.64.64-.82 1.81m6.61 1.57h-6.66q.06.83.29 1.43.23.61.61 1t.9.59q.52.19 1.15.19t1.08-.15q.46-.14.8-.32t.6-.33q.26-.14.5-.14.32 0 .48.24l.75.94q-.43.51-.97.85-.53.34-1.12.54-.58.21-1.18.29-.61.09-1.17.09-1.13 0-2.09-.38-.97-.37-1.68-1.1-.72-.73-1.13-1.8-.41-1.08-.41-2.5 0-1.1.36-2.07t1.02-1.69q.67-.72 1.63-1.14t2.17-.42q1.02 0 1.88.32.86.33 1.48.95.62.63.97 1.54t.35 2.07q0 .59-.12.79-.13.21-.49.21m8.25 2.28v-1.82q-1.13.05-1.89.2-.77.14-1.23.36t-.66.51q-.2.3-.2.64 0 .68.4.98.4.29 1.06.29.79 0 1.38-.29.58-.28 1.14-.87m-5.49-5.66-.46-.83q1.86-1.7 4.48-1.7.94 0 1.69.31.74.31 1.26.86.51.55.78 1.32.27.76.27 1.68v6.8h-1.18q-.37 0-.57-.11t-.31-.45l-.23-.77q-.41.36-.8.64t-.81.47-.9.29q-.47.1-1.05.1-.68 0-1.26-.19-.58-.18-1-.55-.42-.36-.65-.91t-.23-1.27q0-.41.13-.81.14-.41.45-.78.31-.36.8-.69.5-.33 1.22-.57t1.67-.39q.96-.15 2.19-.18v-.63q0-1.09-.47-1.61-.46-.52-1.33-.52-.63 0-1.04.15-.42.15-.73.33-.32.19-.58.33-.25.15-.57.15-.27 0-.46-.14t-.31-.33m14.04 8.61q-1.4 0-2.15-.79-.76-.8-.76-2.19v-6.02h-1.1q-.21 0-.35-.14-.15-.13-.15-.41v-1.03l1.73-.28.55-2.94q.05-.21.2-.32.14-.12.37-.12h1.35v3.39h2.88v1.85h-2.88v5.84q0 .5.24.78.25.29.68.29.24 0 .41-.06.16-.06.28-.12t.22-.12q.09-.06.18-.06.12 0 .19.06.08.06.16.17l.78 1.26q-.57.47-1.3.72-.74.24-1.53.24m4.31-10.94h2.6v10.77h-2.6zm2.96-3.14q0 .33-.14.63-.13.29-.36.51t-.53.35-.65.13q-.34 0-.64-.13t-.52-.35-.35-.51q-.13-.3-.13-.63 0-.35.13-.65.13-.31.35-.53t.52-.35.64-.13q.35 0 .65.13t.53.35.36.53q.14.3.14.65m7.06 2.97q1.19 0 2.17.39.99.39 1.68 1.1.7.71 1.08 1.74t.38 2.3q0 1.28-.38 2.31t-1.08 1.76q-.69.72-1.68 1.11-.98.39-2.17.39-1.21 0-2.2-.39t-1.68-1.11q-.7-.73-1.09-1.76-.38-1.03-.38-2.31 0-1.27.38-2.3.39-1.03 1.09-1.74.69-.71 1.68-1.1t2.2-.39m0 9.1q1.34 0 1.98-.9.65-.9.65-2.65 0-1.74-.65-2.65-.64-.92-1.98-.92-1.37 0-2.03.92-.65.92-.65 2.65 0 1.74.65 2.64.66.91 2.03.91m9.54-8.46.18.85q.32-.33.69-.6.36-.28.76-.48.41-.19.87-.3t1.01-.11q.88 0 1.56.3t1.14.84.69 1.29q.24.75.24 1.65v6.86h-2.59v-6.86q0-.98-.46-1.52-.45-.55-1.37-.55-.67 0-1.26.31-.59.3-1.11.83v7.79h-2.6v-10.77h1.59q.5 0 .66.47m9.51 5.04v-2.16h5.44v2.16zm11.16-9.92v15.18h-2.83v-15.18zm5.23 4.88.18.85q.33-.33.69-.6.36-.28.77-.48.4-.19.86-.3t1.01-.11q.88 0 1.56.3.69.3 1.14.84.46.54.7 1.29.23.75.23 1.65v6.86h-2.59v-6.86q0-.98-.45-1.52-.45-.55-1.38-.55-.67 0-1.26.31-.59.3-1.11.83v7.79h-2.59v-10.77h1.58q.51 0 .66.47m11.85 0 .18.85q.32-.33.68-.6.37-.28.77-.48.4-.19.87-.3.46-.11 1-.11.89 0 1.57.3t1.14.84q.45.54.69 1.29t.24 1.65v6.86h-2.6v-6.86q0-.98-.45-1.52-.45-.55-1.37-.55-.68 0-1.26.31-.59.3-1.12.83v7.79h-2.59v-10.77h1.59q.5 0 .66.47m14.36-.64q1.2 0 2.18.39t1.68 1.1 1.08 1.74q.37 1.03.37 2.3 0 1.28-.37 2.31-.38 1.03-1.08 1.76-.7.72-1.68 1.11t-2.18.39q-1.21 0-2.19-.39-.99-.39-1.69-1.11-.7-.73-1.08-1.76t-.38-2.31q0-1.27.38-2.3t1.08-1.74 1.69-1.1q.98-.39 2.19-.39m0 9.1q1.35 0 1.99-.9.65-.9.65-2.65 0-1.74-.65-2.65-.64-.92-1.99-.92-1.36 0-2.02.92t-.66 2.65q0 1.74.66 2.64.66.91 2.02.91m14.96-8.93h2.05l-4.27 10.77h-2.35l-4.28-10.77h2.14q.3 0 .49.13.2.14.26.35l2.08 5.75q.17.51.29.99.13.48.22.97.11-.49.23-.97.13-.48.31-.99l2.12-5.75q.07-.21.26-.35.19-.13.45-.13m9.12 7.99v-1.82q-1.13.05-1.89.2-.77.14-1.23.36t-.66.51q-.2.3-.2.64 0 .68.4.98.41.29 1.06.29.8 0 1.38-.29.58-.28 1.14-.87m-5.48-5.66-.47-.83q1.86-1.7 4.48-1.7.94 0 1.69.31.74.31 1.26.86.51.55.78 1.32.27.76.27 1.68v6.8h-1.18q-.37 0-.56-.11-.2-.11-.32-.45l-.23-.77q-.41.36-.8.64t-.81.47-.9.29q-.47.1-1.05.1-.68 0-1.26-.19-.58-.18-1-.55-.42-.36-.65-.91t-.23-1.27q0-.41.14-.81.13-.41.44-.78.31-.36.81-.69.49-.33 1.21-.57t1.67-.39q.96-.15 2.19-.18v-.63q0-1.09-.46-1.61-.47-.52-1.34-.52-.63 0-1.04.15-.42.15-.73.33-.32.19-.57.33-.26.15-.58.15-.27 0-.46-.14t-.3-.33m14.04 8.61q-1.41 0-2.16-.79-.75-.8-.75-2.19v-6.02h-1.11q-.21 0-.35-.14-.15-.13-.15-.41v-1.03l1.73-.28.55-2.94q.05-.21.2-.32.15-.12.38-.12h1.34v3.39h2.88v1.85h-2.88v5.84q0 .5.25.78.24.29.67.29.25 0 .41-.06t.28-.12.22-.12q.09-.06.19-.06.11 0 .19.06.07.06.15.17l.78 1.26q-.57.47-1.3.72-.74.24-1.52.24m4.3-10.94h2.6v10.77h-2.6zm2.96-3.14q0 .33-.14.63-.13.29-.36.51-.22.22-.53.35-.3.13-.65.13-.33 0-.63-.13t-.52-.35-.36-.51q-.13-.3-.13-.63 0-.35.13-.65.14-.31.36-.53t.52-.35.63-.13q.35 0 .65.13.31.13.53.35.23.22.36.53.14.3.14.65m7.06 2.97q1.19 0 2.18.39.98.39 1.68 1.1.69.71 1.07 1.74t.38 2.3q0 1.28-.38 2.31t-1.07 1.76q-.7.72-1.68 1.11-.99.39-2.18.39-1.21 0-2.2-.39-.98-.39-1.68-1.11-.7-.73-1.08-1.76-.39-1.03-.39-2.31 0-1.27.39-2.3.38-1.03 1.08-1.74t1.68-1.1q.99-.39 2.2-.39m0 9.1q1.34 0 1.99-.9.64-.9.64-2.65 0-1.74-.64-2.65-.65-.92-1.99-.92-1.37 0-2.02.92-.66.92-.66 2.65 0 1.74.66 2.64.65.91 2.02.91m9.54-8.46.18.85q.33-.33.69-.6.36-.28.76-.48.41-.19.87-.3t1.01-.11q.88 0 1.56.3.69.3 1.14.84.46.54.7 1.29.23.75.23 1.65v6.86h-2.59v-6.86q0-.98-.45-1.52-.45-.55-1.38-.55-.67 0-1.26.31-.59.3-1.11.83v7.79h-2.6v-10.77h1.59q.5 0 .66.47m16.76.69-.59.94q-.1.16-.22.23-.11.07-.29.07-.19 0-.41-.1-.21-.11-.5-.24-.28-.13-.64-.24-.36-.1-.86-.1-.76 0-1.2.32-.44.33-.44.85 0 .35.23.59.23.23.6.41t.84.32q.48.14.96.31.49.17.97.39.47.21.84.54t.6.79q.23.47.23 1.12 0 .77-.28 1.43t-.83 1.13q-.54.48-1.35.75-.8.27-1.85.27-.56 0-1.09-.1t-1.02-.28q-.48-.18-.9-.42-.41-.24-.73-.53l.6-.98q.12-.18.27-.28.16-.09.4-.09t.46.14q.21.13.5.29.28.16.66.29.39.14.98.14.46 0 .79-.11t.54-.29q.22-.18.32-.41.1-.24.1-.49 0-.38-.23-.62-.22-.24-.59-.42-.38-.18-.86-.32-.47-.14-.97-.31t-.98-.39q-.48-.23-.85-.58-.37-.34-.6-.85-.22-.5-.22-1.21 0-.67.26-1.26.26-.6.77-1.05t1.27-.71q.76-.27 1.76-.27 1.11 0 2.03.37.91.36 1.52.96"/></svg>