<svg xmlns="http://www.w3.org/2000/svg" width="400" height="400" viewBox="0 0 400 400"><rect width="100%" height="100%" fill="#1e293b"/><path fill="#ffffff" d="M103.755 214.245v-15.18q-1.38-1.68-3.02-2.38-1.63-.69-3.51-.69-1.85 0-3.33.69-1.49.7-2.54 2.1-1.06 1.4-1.62 3.56t-.56 5.1q0 2.97.48 5.03t1.37 3.37q.89 1.3 2.17 1.88 1.29.58 2.88.58 2.54 0 4.32-1.06t3.36-3m0-39.01h8.16v49.04h-4.99q-1.61 0-2.04-1.49l-.7-3.26q-2.04 2.34-4.7 3.79t-6.19 1.45q-2.77 0-5.08-1.15-2.31-1.16-3.98-3.35-1.66-2.19-2.57-5.43-.91-3.23-.91-7.39 0-3.76 1.03-7 1.02-3.23 2.93-5.61 1.92-2.37 4.59-3.71 2.67-1.33 6.01-1.33 2.83 0 4.85.89 2.01.89 3.59 2.4zm23.4 17.23.5 3.83q1.58-3.04 3.76-4.77t5.15-1.73q2.34 0 3.76 1.02l-.53 6.1q-.16.6-.48.84-.31.25-.84.25-.49 0-1.47-.16-.97-.17-1.9-.17-1.35 0-2.4.4-1.06.39-1.9 1.14-.84.74-1.49 1.79-.64 1.06-1.2 2.41v20.86h-8.15v-33.86h4.78q1.26 0 1.75.45.5.44.66 1.6m17.69-2.05h8.18v33.86h-8.18zm9.31-9.87q0 1.06-.43 1.98-.43.93-1.14 1.62t-1.67 1.11q-.96.41-2.04.41-1.06 0-2-.41-.94-.42-1.63-1.11-.7-.69-1.11-1.62-.41-.92-.41-1.98 0-1.08.41-2.04t1.11-1.65q.69-.69 1.63-1.11.94-.41 2-.41 1.08 0 2.04.41.96.42 1.67 1.11t1.14 1.65.43 2.04m15.34 19.77v15.18q1.39 1.68 3.02 2.38 1.63.69 3.45.69 1.88 0 3.38-.68 1.5-.67 2.56-2.11 1.05-1.43 1.62-3.66.56-2.23.56-5.33 0-5.58-1.85-8.07t-5.31-2.49q-2.35 0-4.1 1.07t-3.33 3.02m0-25.08v19.34q2.05-2.15 4.54-3.42t5.69-1.27q2.94 0 5.3 1.16 2.36 1.15 4.02 3.32 1.67 2.16 2.56 5.23.89 3.06.89 6.89 0 4.13-1.02 7.49-1.02 3.37-2.92 5.76t-4.57 3.71q-2.68 1.32-5.94 1.32-1.59 0-2.87-.31-1.29-.31-2.38-.87t-2-1.37q-.9-.81-1.73-1.8l-.36 2.28q-.2.85-.68 1.22-.48.36-1.3.36h-5.38v-49.04zm37.46 25.08v15.18q1.38 1.68 3.01 2.38 1.64.69 3.45.69 1.88 0 3.39-.68 1.5-.67 2.55-2.11 1.06-1.43 1.62-3.66t.56-5.33q0-5.58-1.85-8.07-1.84-2.49-5.31-2.49-2.34 0-4.09 1.07t-3.33 3.02m0-25.08v19.34q2.04-2.15 4.53-3.42t5.7-1.27q2.93 0 5.29 1.16 2.36 1.15 4.03 3.32 1.66 2.16 2.56 5.23.89 3.06.89 6.89 0 4.13-1.03 7.49-1.02 3.37-2.92 5.76-1.89 2.39-4.57 3.71-2.67 1.32-5.94 1.32-1.58 0-2.87-.31t-2.37-.87q-1.09-.56-2-1.37t-1.73-1.8l-.37 2.28q-.19.85-.67 1.22-.48.36-1.31.36h-5.38v-49.04zm37.45 25.08v15.18q1.39 1.68 3.02 2.38 1.63.69 3.45.69 1.88 0 3.38-.68 1.5-.67 2.56-2.11 1.05-1.43 1.62-3.66.56-2.23.56-5.33 0-5.58-1.85-8.07t-5.31-2.49q-2.35 0-4.1 1.07t-3.33 3.02m0-25.08v19.34q2.05-2.15 4.54-3.42t5.69-1.27q2.94 0 5.3 1.16 2.36 1.15 4.02 3.32 1.67 2.16 2.56 5.23.89 3.06.89 6.89 0 4.13-1.02 7.49-1.02 3.37-2.92 5.76t-4.57 3.71q-2.68 1.32-5.94 1.32-1.59 0-2.87-.31-1.29-.31-2.38-.87t-2-1.37q-.9-.81-1.73-1.8l-.36 2.28q-.2.85-.68 1.22-.48.36-1.3.36h-5.38v-49.04zm29.4 0h8.15v49.04h-8.15zm22.74 28.22h15.38q0-1.59-.45-2.99-.44-1.4-1.33-2.46-.89-1.05-2.26-1.66-1.37-.62-3.19-.62-3.53 0-5.56 2.02-2.03 2.01-2.59 5.71m20.79 4.91h-20.95q.19 2.61.92 4.51t1.91 3.13q1.19 1.24 2.82 1.85 1.64.61 3.62.61t3.41-.46q1.44-.46 2.51-1.02t1.88-1.03q.81-.46 1.57-.46 1.02 0 1.52.76l2.34 2.97q-1.35 1.58-3.03 2.66-1.69 1.07-3.52 1.71-1.83.65-3.73.91t-3.68.26q-3.53 0-6.56-1.17-3.04-1.17-5.28-3.46-2.25-2.3-3.54-5.68-1.28-3.38-1.28-7.84 0-3.46 1.12-6.51 1.12-3.06 3.22-5.32 2.09-2.26 5.11-3.58t6.82-1.32q3.2 0 5.9 1.03 2.71 1.02 4.66 2.98 1.94 1.97 3.05 4.82 1.1 2.86 1.1 6.52 0 1.85-.39 2.49-.4.64-1.52.64"/></svg>