<svg xmlns="http://www.w3.org/2000/svg" width="400" height="400" viewBox="0 0 400 400"><rect width="100%" height="100%" fill="#1e293b"/><path fill="#ffffff" d="M123.635 178.625h-27.61v17.25h21.76v8.9h-21.76v17.58h27.61v9.25h-39.22v-62.18h39.22zm17.76 10.8.73 3.48q1.33-1.33 2.81-2.47 1.49-1.14 3.14-1.94 1.66-.79 3.55-1.24 1.89-.46 4.13-.46 3.61 0 6.41 1.23 2.79 1.22 4.66 3.44 1.87 2.21 2.84 5.29.97 3.07.97 6.77v28.08h-10.62v-28.08q0-4.04-1.85-6.26-1.85-2.21-5.64-2.21-2.75 0-5.16 1.25-2.4 1.24-4.55 3.39v31.91h-10.63v-44.12h6.5q2.06 0 2.71 1.94m39.43-21.72h10.62v63.9h-10.62zm29.62 36.77h20.04q0-2.07-.58-3.89-.58-1.83-1.74-3.21-1.16-1.37-2.94-2.17-1.79-.8-4.15-.8-4.61 0-7.25 2.63-2.64 2.62-3.38 7.44m27.09 6.4h-27.3q.26 3.4 1.2 5.87.95 2.48 2.5 4.09t3.67 2.41q2.13.79 4.71.79t4.45-.6 3.27-1.33 2.45-1.34q1.06-.6 2.04-.6 1.34 0 1.98.99l3.06 3.87q-1.77 2.06-3.96 3.46t-4.58 2.24-4.86 1.18q-2.47.35-4.79.35-4.6 0-8.56-1.53t-6.88-4.52-4.6-7.39q-1.68-4.41-1.68-10.22 0-4.51 1.46-8.49 1.47-3.98 4.2-6.92 2.73-2.95 6.66-4.67 3.94-1.72 8.88-1.72 4.17 0 7.7 1.34 3.52 1.33 6.06 3.89t3.98 6.28 1.44 8.49q0 2.41-.52 3.25-.51.83-1.98.83m39.78-18.62-2.41 3.83q-.43.69-.9.97t-1.21.28q-.77 0-1.65-.43t-2.04-.97-2.65-.97q-1.48-.43-3.5-.43-3.14 0-4.93 1.34-1.78 1.33-1.78 3.48 0 1.42.92 2.39.93.96 2.46 1.69 1.52.74 3.46 1.32 1.93.58 3.93 1.26 2 .69 3.94 1.57 1.93.89 3.46 2.24 1.52 1.35 2.45 3.25.92 1.89.92 4.55 0 3.19-1.14 5.87-1.14 2.69-3.37 4.65-2.24 1.95-5.53 3.05t-7.59 1.1q-2.28 0-4.45-.41t-4.17-1.14-3.7-1.72-2.99-2.15l2.46-4.04q.47-.73 1.11-1.12.65-.39 1.64-.39t1.87.56 2.04 1.21q1.16.64 2.73 1.2t3.98.56q1.89 0 3.25-.45 1.35-.45 2.23-1.19.88-.73 1.29-1.69.41-.97.41-2 0-1.55-.92-2.54-.93-.99-2.46-1.72-1.52-.73-3.48-1.31t-4-1.27-4-1.61q-1.95-.93-3.48-2.35t-2.45-3.48q-.93-2.06-.93-4.99 0-2.71 1.08-5.16 1.07-2.45 3.16-4.28 2.09-1.82 5.2-2.92 3.12-1.1 7.21-1.1 4.55 0 8.29 1.51 3.75 1.5 6.24 3.95m37.8 0-2.41 3.83q-.43.69-.9.97-.48.28-1.21.28-.77 0-1.65-.43-.89-.43-2.05-.97t-2.64-.97-3.51-.43q-3.13 0-4.92 1.34-1.78 1.33-1.78 3.48 0 1.42.92 2.39.93.96 2.45 1.69 1.53.74 3.46 1.32 1.94.58 3.94 1.26 2 .69 3.93 1.57 1.94.89 3.46 2.24 1.53 1.35 2.46 3.25.92 1.89.92 4.55 0 3.19-1.14 5.87-1.14 2.69-3.38 4.65-2.23 1.95-5.52 3.05t-7.59 1.1q-2.28 0-4.45-.41t-4.17-1.14-3.7-1.72-2.99-2.15l2.45-4.04q.48-.73 1.12-1.12.65-.39 1.63-.39.99 0 1.88.56.88.56 2.04 1.21 1.16.64 2.73 1.2t3.98.56q1.89 0 3.24-.45 1.36-.45 2.24-1.19.88-.73 1.29-1.69.41-.97.41-2 0-1.55-.93-2.54-.92-.99-2.45-1.72t-3.48-1.31q-1.96-.58-4-1.27t-4-1.61q-1.96-.93-3.48-2.35-1.53-1.42-2.45-3.48-.93-2.06-.93-4.99 0-2.71 1.08-5.16 1.07-2.45 3.16-4.28 2.08-1.82 5.2-2.92t7.2-1.1q4.56 0 8.3 1.51 3.74 1.5 6.24 3.95"/></svg>