<svg xmlns="http://www.w3.org/2000/svg" width="400" height="400" viewBox="0 0 400 400"><rect width="100%" height="100%" fill="#1e293b"/><path fill="#ffffff" d="M90.485 221.685h-7.29v-24.78l-2.63-.41q-.85-.18-1.37-.61-.51-.43-.51-1.22v-2.98h4.51v-2.24q0-2.6.78-4.66.78-2.07 2.24-3.51 1.46-1.45 3.56-2.22 2.09-.76 4.72-.76 2.09 0 3.89.56l-.15 3.65q-.03.42-.23.67-.21.25-.55.38t-.78.18q-.44.04-.94.04-1.3 0-2.32.28t-1.72.98q-.71.69-1.08 1.83-.37 1.13-.37 2.81v2.01h7.88v5.19h-7.64zm27.73-7.82v-5.1q-3.16.15-5.31.54-2.16.4-3.46 1.02-1.29.62-1.85 1.45-.56.82-.56 1.8 0 1.91 1.13 2.74 1.14.83 2.97.83 2.24 0 3.88-.81 1.63-.82 3.2-2.47m-15.4-15.9-1.3-2.33q5.22-4.78 12.57-4.78 2.65 0 4.75.87 2.09.87 3.54 2.42 1.44 1.55 2.19 3.7.76 2.16.76 4.72v19.12h-3.31q-1.03 0-1.59-.31t-.89-1.25l-.65-2.19q-1.15 1.04-2.24 1.82t-2.27 1.31-2.52.81-2.97.28q-1.91 0-3.54-.51-1.62-.52-2.8-1.55-1.18-1.04-1.83-2.57t-.65-3.57q0-1.15.39-2.29.38-1.13 1.25-2.16.87-1.04 2.26-1.95 1.38-.92 3.4-1.59 2.03-.68 4.71-1.11t6.14-.52v-1.77q0-3.03-1.3-4.49-1.3-1.47-3.75-1.47-1.77 0-2.93.42-1.17.41-2.05.93-.89.51-1.61.93-.72.41-1.61.41-.77 0-1.3-.4t-.85-.93m52.95-2.8-1.92 2.65q-.32.42-.63.65-.31.24-.9.24-.56 0-1.09-.34t-1.27-.77q-.74-.42-1.76-.76t-2.52-.34q-1.92 0-3.36.69-1.45.69-2.41 1.99t-1.43 3.14q-.47 1.85-.47 4.18 0 2.42.52 4.3.51 1.89 1.49 3.18.97 1.28 2.36 1.94 1.38.67 3.12.67t2.82-.43 1.81-.95q.74-.51 1.29-.94.54-.43 1.22-.43.89 0 1.33.68l2.09 2.66q-1.21 1.41-2.62 2.37-1.42.96-2.94 1.54-1.52.57-3.12.81-1.61.23-3.2.23-2.81 0-5.28-1.04-2.48-1.05-4.34-3.06-1.86-2-2.94-4.91-1.07-2.91-1.07-6.62 0-3.34.96-6.18.95-2.85 2.81-4.93t4.6-3.26q2.75-1.18 6.32-1.18 3.39 0 5.94 1.09t4.59 3.13m10.59 7.91h13.75q0-1.42-.4-2.67-.4-1.26-1.2-2.2-.79-.95-2.02-1.49-1.22-.55-2.84-.55-3.16 0-4.97 1.8-1.82 1.8-2.32 5.11m18.58 4.39h-18.73q.18 2.33.83 4.03.65 1.69 1.71 2.8t2.52 1.65q1.46.55 3.23.55t3.06-.42q1.28-.41 2.24-.91t1.68-.91q.72-.42 1.4-.42.91 0 1.36.68l2.09 2.66q-1.21 1.41-2.71 2.37-1.51.96-3.14 1.54-1.64.57-3.34.81-1.69.23-3.29.23-3.15 0-5.87-1.04-2.71-1.05-4.72-3.1-2-2.05-3.15-5.08-1.15-3.02-1.15-7 0-3.1 1-5.83t2.87-4.75q1.88-2.02 4.58-3.2t6.09-1.18q2.86 0 5.28.92 2.42.91 4.16 2.67 1.74 1.75 2.73 4.3t.99 5.83q0 1.65-.36 2.23-.35.57-1.36.57m14.46-7.2v13.57q1.24 1.51 2.7 2.13t3.08.62q1.68 0 3.03-.61 1.34-.6 2.28-1.89.95-1.28 1.45-3.27t.5-4.77q0-4.98-1.65-7.21-1.66-2.23-4.75-2.23-2.1 0-3.66.96t-2.98 2.7m0-22.42v17.29q1.83-1.92 4.06-3.05 2.22-1.14 5.08-1.14 2.63 0 4.74 1.03 2.11 1.04 3.6 2.97t2.28 4.67q.8 2.75.8 6.17 0 3.69-.91 6.7-.92 3-2.61 5.14-1.7 2.14-4.09 3.32t-5.31 1.18q-1.42 0-2.57-.28t-2.12-.78-1.78-1.22q-.82-.73-1.55-1.61l-.33 2.03q-.18.77-.6 1.1-.43.32-1.17.32h-4.81v-43.84zm39.59 13.1q3.36 0 6.12 1.09t4.72 3.1 3.02 4.9q1.07 2.89 1.07 6.46 0 3.6-1.07 6.49-1.06 2.89-3.02 4.92-1.96 2.04-4.72 3.13t-6.12 1.09q-3.39 0-6.17-1.09-2.77-1.09-4.73-3.13-1.96-2.03-3.04-4.92t-1.08-6.49q0-3.57 1.08-6.46t3.04-4.9 4.73-3.1q2.78-1.09 6.17-1.09m0 25.58q3.77 0 5.59-2.54 1.81-2.54 1.81-7.43 0-4.9-1.81-7.47-1.82-2.56-5.59-2.56-3.84 0-5.68 2.58t-1.84 7.45q0 4.86 1.84 7.42 1.84 2.55 5.68 2.55m33.89-25.58q3.37 0 6.13 1.09 2.75 1.09 4.72 3.1 1.96 2.01 3.02 4.9t1.06 6.46q0 3.6-1.06 6.49t-3.02 4.92q-1.97 2.04-4.72 3.13-2.76 1.09-6.13 1.09-3.39 0-6.16-1.09t-4.74-3.13q-1.96-2.03-3.03-4.92-1.08-2.89-1.08-6.49 0-3.57 1.08-6.46 1.07-2.89 3.03-4.9 1.97-2.01 4.74-3.1t6.16-1.09m0 25.58q3.78 0 5.59-2.54 1.82-2.54 1.82-7.43 0-4.9-1.82-7.47-1.81-2.56-5.59-2.56-3.83 0-5.67 2.58-1.85 2.58-1.85 7.45 0 4.86 1.85 7.42 1.84 2.55 5.67 2.55m20.51-38.68h7.28v25.11h1.36q.74 0 1.17-.19.42-.2.87-.79l7.52-9.29q.47-.62 1.05-.94.57-.33 1.49-.33h6.66l-9.41 11.24q-1 1.33-2.18 2.04.62.44 1.11 1.03.48.59.92 1.27l10.09 14.69h-6.58q-.85 0-1.47-.28t-1.03-1.02l-7.73-11.47q-.41-.68-.86-.89-.44-.21-1.32-.21h-1.66v13.87h-7.28z"/></svg>