<svg xmlns="http://www.w3.org/2000/svg" width="400" height="400" viewBox="0 0 400 400"><rect width="100%" height="100%" fill="#1e293b"/><path fill="#ffffff" d="M100.345 199.955h11.52v14.04q-2.64 1.94-5.63 2.84t-6.4.9q-4.25 0-7.69-1.32t-5.88-3.67-3.76-5.61q-1.32-3.27-1.32-7.13 0-3.91 1.28-7.18 1.27-3.26 3.61-5.61 2.34-2.36 5.67-3.65 3.34-1.3 7.49-1.3 2.11 0 3.95.34 1.84.33 3.41.92t2.87 1.43q1.29.84 2.37 1.85l-1.85 2.93q-.43.69-1.12.85-.7.15-1.52-.35-.79-.46-1.58-.91-.79-.46-1.76-.79-.98-.34-2.19-.56-1.21-.21-2.79-.21-2.57 0-4.65.86-2.07.87-3.54 2.47-1.46 1.61-2.25 3.87-.8 2.25-.8 5.04 0 2.97.86 5.31.85 2.34 2.4 3.96 1.54 1.62 3.73 2.48 2.18.85 4.87.85 1.92 0 3.43-.41t2.95-1.1v-6.29h-4.36q-.63 0-.98-.35-.34-.35-.34-.85zm22.05-5.74.36 2.79q1.15-2.21 2.74-3.47 1.58-1.26 3.74-1.26 1.71 0 2.74.74l-.39 4.44q-.12.44-.34.62-.23.18-.62.18-.36 0-1.06-.12-.71-.12-1.38-.12-.99 0-1.76.28-.76.29-1.38.83-.61.54-1.08 1.31-.46.77-.87 1.75v15.17h-5.93v-24.62h3.48q.91 0 1.27.32t.48 1.16m17.35 8h11.19q0-1.16-.33-2.18-.32-1.02-.97-1.78-.65-.77-1.64-1.22-1-.44-2.32-.44-2.57 0-4.04 1.46-1.48 1.47-1.89 4.16m15.12 3.57h-15.24q.15 1.9.68 3.28.52 1.38 1.39 2.28.86.9 2.05 1.34 1.19.45 2.63.45t2.48-.34q1.05-.34 1.83-.74.78-.41 1.36-.75.59-.33 1.14-.33.75 0 1.11.55l1.7 2.16q-.98 1.15-2.21 1.93-1.22.78-2.55 1.25t-2.71.66-2.68.19q-2.57 0-4.78-.85-2.2-.85-3.84-2.52-1.63-1.67-2.56-4.13-.94-2.46-.94-5.7 0-2.52.82-4.74.81-2.22 2.34-3.86 1.52-1.65 3.72-2.61 2.19-.96 4.95-.96 2.33 0 4.3.75 1.97.74 3.38 2.17 1.42 1.43 2.22 3.5.81 2.08.81 4.74 0 1.35-.29 1.81-.29.47-1.11.47m10.52-3.57h11.18q0-1.16-.32-2.18-.33-1.02-.98-1.78-.64-.77-1.64-1.22-1-.44-2.32-.44-2.56 0-4.04 1.46-1.48 1.47-1.88 4.16m15.12 3.57h-15.24q.14 1.9.67 3.28t1.39 2.28 2.05 1.34q1.19.45 2.63.45t2.48-.34q1.05-.34 1.83-.74.78-.41 1.37-.75.58-.33 1.14-.33.74 0 1.1.55l1.7 2.16q-.98 1.15-2.2 1.93-1.23.78-2.56 1.25t-2.71.66-2.68.19q-2.57 0-4.77-.85-2.21-.85-3.84-2.52-1.64-1.67-2.57-4.13-.94-2.46-.94-5.7 0-2.52.82-4.74.81-2.22 2.34-3.86 1.52-1.65 3.72-2.61 2.19-.96 4.95-.96 2.33 0 4.3.75 1.97.74 3.38 2.17 1.42 1.43 2.22 3.5.81 2.08.81 4.74 0 1.35-.29 1.81-.29.47-1.1.47m10.96-11.97.41 1.94q.75-.74 1.57-1.38.83-.64 1.76-1.08.92-.44 1.98-.7 1.05-.25 2.3-.25 2.02 0 3.58.69 1.56.68 2.6 1.92 1.04 1.23 1.58 2.95.54 1.71.54 3.78v15.67h-5.92v-15.67q0-2.26-1.04-3.49-1.03-1.24-3.14-1.24-1.54 0-2.88.7-1.34.69-2.54 1.89v17.81h-5.93v-24.62h3.62q1.15 0 1.51 1.08m30.15 23.92q-3.22 0-4.93-1.81-1.72-1.81-1.72-5v-13.75h-2.52q-.48 0-.82-.32-.33-.31-.33-.93v-2.35l3.96-.65 1.25-6.72q.12-.48.45-.75.34-.26.87-.26h3.07v7.75h6.57v4.23h-6.57v13.34q0 1.15.56 1.8.57.65 1.55.65.55 0 .92-.13.38-.14.65-.28.28-.14.49-.28.22-.13.44-.13.26 0 .43.13.17.14.36.4l1.77 2.88q-1.29 1.08-2.97 1.63t-3.48.55m20.54-25.39q2.74 0 4.98.89 2.25.89 3.84 2.52 1.6 1.63 2.46 3.98.87 2.36.87 5.26 0 2.93-.87 5.28-.86 2.35-2.46 4.01-1.59 1.65-3.84 2.54-2.24.89-4.98.89-2.76 0-5.01-.89-2.26-.89-3.86-2.54-1.59-1.66-2.47-4.01-.87-2.35-.87-5.28 0-2.9.87-5.26.88-2.35 2.47-3.98 1.6-1.63 3.86-2.52 2.25-.89 5.01-.89m0 20.81q3.07 0 4.55-2.06 1.48-2.07 1.48-6.05 0-3.99-1.48-6.07-1.48-2.09-4.55-2.09-3.12 0-4.62 2.1t-1.5 6.06 1.5 6.03q1.5 2.08 4.62 2.08m47.33-20.42h4.51l-7.82 24.62h-4.75q-.82 0-1.13-1.06l-4.42-14.23q-.21-.72-.39-1.43-.18-.7-.3-1.42-.15.72-.33 1.45t-.39 1.45l-4.49 14.18q-.29 1.06-1.27 1.06h-4.56l-7.8-24.62h4.72q.65 0 1.11.31.45.31.6.79l3.53 13.15q.26 1.08.46 2.11.21 1.04.35 2.07.27-1.03.57-2.07.3-1.03.63-2.11l4.08-13.2q.15-.48.57-.79t1.02-.31h2.61q.63 0 1.07.31t.59.79l3.96 13.2q.31 1.08.59 2.13.27 1.04.54 2.07.31-2.04.88-4.2l3.63-13.15q.17-.48.6-.79t1.03-.31m13.01 1.08.41 1.94q.74-.74 1.57-1.38t1.75-1.08 1.98-.7q1.06-.25 2.3-.25 2.02 0 3.58.69 1.56.68 2.6 1.92 1.05 1.23 1.59 2.95.54 1.71.54 3.78v15.67h-5.93v-15.67q0-2.26-1.03-3.49-1.03-1.24-3.15-1.24-1.53 0-2.88.7-1.34.69-2.54 1.89v17.81h-5.93v-24.62h3.63q1.15 0 1.51 1.08"/></svg>