<svg xmlns="http://www.w3.org/2000/svg" width="400" height="400" viewBox="0 0 400 400"><rect width="100%" height="100%" fill="#1e293b"/><path fill="#ffffff" d="M87.915 179.725v15.39q1.62-1.51 3.57-2.46 1.94-.94 4.56-.94 2.27 0 4.02.77 1.76.77 2.93 2.16 1.18 1.39 1.79 3.32.6 1.93.6 4.25v17.63h-6.67v-17.63q0-2.54-1.16-3.93t-3.53-1.39q-1.73 0-3.24.78-1.51.79-2.87 2.14v20.03h-6.66v-40.12zm29.06 23.08h12.58q0-1.29-.37-2.44-.36-1.15-1.09-2.01-.73-.87-1.85-1.37t-2.6-.5q-2.89 0-4.55 1.65t-2.12 4.67m17.01 4.03h-17.15q.16 2.13.76 3.68.59 1.55 1.56 2.57.98 1.01 2.31 1.51 1.34.5 2.96.5t2.79-.38q1.18-.38 2.06-.84.87-.46 1.53-.83.67-.38 1.29-.38.83 0 1.24.62l1.92 2.43q-1.11 1.3-2.49 2.17-1.37.88-2.87 1.41-1.5.52-3.05.74-1.56.21-3.01.21-2.89 0-5.38-.95-2.48-.96-4.32-2.84-1.83-1.87-2.89-4.64-1.05-2.77-1.05-6.42 0-2.83.92-5.33.92-2.49 2.63-4.34t4.19-2.93q2.47-1.08 5.57-1.08 2.62 0 4.83.83 2.22.84 3.81 2.45 1.59 1.6 2.5 3.94.9 2.33.9 5.33 0 1.51-.32 2.04-.33.53-1.24.53m6.64-27.11h6.67v40.12h-6.67zm13.55 12.42h6.7v27.7h-6.7zm7.62-8.07q0 .86-.35 1.61-.36.76-.94 1.33-.58.56-1.36.9t-1.67.34q-.87 0-1.64-.34t-1.33-.9q-.57-.57-.91-1.33-.34-.75-.34-1.61 0-.9.34-1.68t.91-1.35q.56-.57 1.33-.9.77-.34 1.64-.34.89 0 1.67.34.78.33 1.36.9t.94 1.35q.35.78.35 1.68m21.14 21.19 9.47 14.58h-6.42q-.73 0-1.18-.38-.44-.38-.74-.86l-5.86-9.64q-.13.46-.31.86-.17.41-.39.76l-5.18 8.02q-.3.46-.73.85t-1.08.39h-5.97l9.5-14.28-9.12-13.42h6.43q.72 0 1.07.2.36.2.63.66l5.8 9.24q.3-.92.84-1.81l4.67-7.29q.59-1 1.54-1h6.13zm12.71 1.05v-5.56h13.99v5.56zm26.14-12.96.46 2.19q.84-.84 1.77-1.55.93-.72 1.97-1.22t2.23-.78q1.18-.28 2.59-.28 2.27 0 4.02.77 1.76.77 2.93 2.16 1.18 1.39 1.78 3.32.61 1.93.61 4.25v17.63h-6.67v-17.63q0-2.54-1.16-3.93t-3.54-1.39q-1.72 0-3.24.78-1.51.79-2.86 2.14v20.03h-6.67v-27.7h4.08q1.3 0 1.7 1.21m39.31 19.33v-4.67q-2.89.14-4.86.5-1.97.37-3.16.94-1.18.56-1.7 1.32-.51.75-.51 1.65 0 1.75 1.04 2.51 1.04.75 2.71.75 2.05 0 3.55-.74t2.93-2.26m-14.09-14.55-1.19-2.13q4.78-4.37 11.5-4.37 2.43 0 4.35.79 1.92.8 3.24 2.22 1.32 1.41 2.01 3.38.69 1.98.69 4.32v17.5h-3.02q-.95 0-1.46-.28-.52-.29-.81-1.15l-.6-2q-1.05.95-2.05 1.66-1 .72-2.08 1.2-1.08.49-2.31.75-1.22.25-2.71.25-1.75 0-3.24-.47-1.48-.47-2.56-1.42-1.08-.94-1.68-2.35-.59-1.4-.59-3.26 0-1.06.35-2.1t1.15-1.98q.79-.95 2.06-1.78 1.27-.84 3.12-1.46t4.31-1.01q2.45-.39 5.61-.48v-1.62q0-2.78-1.19-4.11-1.18-1.34-3.42-1.34-1.62 0-2.69.38t-1.88.85-1.47.85-1.47.38q-.7 0-1.19-.37-.48-.36-.78-.85m45.28-2.99-1.51 2.4q-.27.43-.57.61-.3.17-.76.17-.48 0-1.04-.27-.55-.27-1.28-.61-.73-.33-1.66-.6t-2.2-.27q-1.97 0-3.09.83-1.12.84-1.12 2.19 0 .89.58 1.5t1.54 1.07q.96.45 2.17.82 1.22.36 2.47.79 1.26.44 2.47.99 1.22.55 2.18 1.4.95.86 1.53 2.04.58 1.19.58 2.86 0 2-.71 3.69-.72 1.69-2.12 2.92t-3.47 1.91q-2.06.69-4.77.69-1.43 0-2.79-.25-1.36-.26-2.62-.72-1.25-.46-2.32-1.08t-1.88-1.35l1.54-2.54q.3-.46.7-.7.41-.24 1.03-.24t1.17.35q.56.35 1.29.75.73.41 1.71.76.99.35 2.5.35 1.19 0 2.04-.28.85-.29 1.4-.74.55-.46.81-1.07t.26-1.26q0-.97-.58-1.59t-1.54-1.08-2.19-.82q-1.23-.37-2.51-.8t-2.51-1.01-2.19-1.47-1.54-2.19-.58-3.13q0-1.7.68-3.24.67-1.54 1.98-2.69t3.27-1.84q1.96-.68 4.52-.68 2.86 0 5.21.94 2.35.95 3.92 2.49m19.95 17.54v-4.67q-2.89.14-4.86.5-1.97.37-3.16.94-1.19.56-1.7 1.32-.51.75-.51 1.65 0 1.75 1.04 2.51 1.04.75 2.71.75 2.05 0 3.55-.74t2.93-2.26m-14.09-14.55-1.19-2.13q4.78-4.37 11.5-4.37 2.43 0 4.35.79 1.91.8 3.24 2.22 1.32 1.41 2.01 3.38.69 1.98.69 4.32v17.5h-3.03q-.94 0-1.45-.28-.52-.29-.81-1.15l-.6-2q-1.05.95-2.05 1.66-1 .72-2.08 1.2-1.08.49-2.31.75-1.23.25-2.71.25-1.76 0-3.24-.47-1.49-.47-2.57-1.42-1.08-.94-1.67-2.35-.59-1.4-.59-3.26 0-1.06.35-2.1t1.14-1.98q.8-.95 2.07-1.78 1.27-.84 3.12-1.46t4.3-1.01q2.46-.39 5.62-.48v-1.62q0-2.78-1.19-4.11-1.18-1.34-3.43-1.34-1.62 0-2.68.38-1.07.38-1.88.85t-1.47.85-1.47.38q-.7 0-1.19-.37-.49-.36-.78-.85"/></svg>