<svg xmlns="http://www.w3.org/2000/svg" width="400" height="400" viewBox="0 0 400 400"><rect width="100%" height="100%" fill="#1e293b"/><path fill="#ffffff" d="M80.525 189.38v6.56q.69-.65 1.52-1.05t1.95-.4q.96 0 1.71.32.75.33 1.25.92.5.6.76 1.42t.26 1.81v7.51h-2.85v-7.51q0-1.08-.49-1.67-.49-.6-1.51-.6-.73 0-1.38.34-.64.33-1.22.91v8.53h-2.84v-17.09zm12.38 9.83h5.36q0-.55-.16-1.04-.15-.49-.46-.85-.31-.37-.79-.58-.48-.22-1.11-.22-1.23 0-1.94.7-.71.71-.9 1.99m7.24 1.72h-7.3q.07.91.32 1.57.26.66.67 1.09t.98.64q.57.22 1.26.22t1.19-.17q.5-.16.88-.35.37-.2.65-.36t.55-.16q.36 0 .53.27l.81 1.03q-.47.55-1.05.93-.59.37-1.23.59-.64.23-1.3.32t-1.28.09q-1.23 0-2.29-.41-1.06-.4-1.84-1.2t-1.23-1.98-.45-2.73q0-1.21.39-2.27.39-1.07 1.12-1.86.73-.78 1.79-1.24 1.05-.46 2.37-.46 1.12 0 2.06.35.94.36 1.62 1.04.68.69 1.07 1.68.38 1 .38 2.27 0 .65-.14.87-.14.23-.53.23m2.83-11.55h2.84v17.09h-2.84zm5.78 5.29h2.85v11.8h-2.85zm3.24-3.44q0 .37-.15.69t-.4.57q-.24.24-.58.38-.33.14-.71.14-.37 0-.7-.14-.32-.14-.57-.38-.24-.25-.38-.57-.15-.32-.15-.69 0-.38.15-.71.14-.33.38-.58.25-.24.57-.38.33-.14.7-.14.38 0 .71.14.34.14.58.38.25.25.4.58t.15.71m9 9.03 4.04 6.21h-2.74q-.31 0-.5-.16t-.31-.37l-2.5-4.1q-.06.19-.13.36-.08.18-.17.33l-2.21 3.41q-.12.2-.31.36-.18.17-.46.17h-2.54l4.05-6.08-3.89-5.72h2.74q.31 0 .46.09.15.08.26.28l2.48 3.93q.12-.39.35-.77l1.99-3.1q.26-.43.66-.43h2.61zm5.42.45v-2.37h5.96v2.37zm8.71-11.33h2.84v17.09h-2.84zm10.9 5.11q1.31 0 2.38.42 1.08.43 1.84 1.21.77.78 1.18 1.91.42 1.13.42 2.52 0 1.4-.42 2.53-.41 1.12-1.18 1.92-.76.79-1.84 1.22-1.07.42-2.38.42-1.33 0-2.41-.42-1.08-.43-1.84-1.22-.77-.8-1.19-1.92-.42-1.13-.42-2.53 0-1.39.42-2.52t1.19-1.91q.76-.78 1.84-1.21 1.08-.42 2.41-.42m0 9.97q1.47 0 2.18-.99.7-.99.7-2.9t-.7-2.91q-.71-1-2.18-1-1.5 0-2.22 1.01-.72 1-.72 2.9t.72 2.89q.72 1 2.22 1m22.68-9.79h2.16l-3.75 11.8h-2.28q-.39 0-.54-.51l-2.12-6.82q-.1-.34-.19-.68-.08-.34-.14-.68-.07.34-.15.69-.09.35-.19.7l-2.15 6.79q-.14.51-.61.51h-2.19l-3.74-11.8h2.27q.31 0 .53.15t.29.38l1.69 6.3q.12.52.22 1.01.1.5.17.99.12-.49.27-.99.14-.49.3-1.01l1.96-6.32q.07-.23.27-.38t.49-.15h1.25q.3 0 .51.15t.28.38l1.9 6.32q.15.52.28 1.02t.26.99q.15-.97.43-2.01l1.73-6.3q.08-.23.29-.38t.5-.15m6.01 4.54h5.36q0-.55-.16-1.04-.15-.49-.46-.85-.31-.37-.79-.58-.48-.22-1.11-.22-1.23 0-1.94.7-.7.71-.9 1.99m7.24 1.72h-7.3q.07.91.32 1.57.26.66.67 1.09.42.43.98.64.57.22 1.26.22t1.19-.17q.5-.16.88-.35.37-.2.65-.36.29-.16.55-.16.36 0 .53.27l.82 1.03q-.48.55-1.06.93-.59.37-1.23.59-.64.23-1.3.32t-1.28.09q-1.23 0-2.29-.41-1.06-.4-1.84-1.2t-1.23-1.98-.45-2.73q0-1.21.39-2.27.4-1.07 1.13-1.86.73-.78 1.78-1.24t2.37-.46q1.12 0 2.06.35.94.36 1.62 1.04.68.69 1.07 1.68.38 1 .38 2.27 0 .65-.14.87-.13.23-.53.23m5.31-5.55.17 1.34q.55-1.06 1.31-1.66.76-.61 1.79-.61.82 0 1.31.36l-.18 2.13q-.06.2-.17.29t-.29.09q-.17 0-.51-.06t-.66-.06q-.47 0-.84.14t-.66.4q-.3.25-.52.62t-.42.84v7.27h-2.84v-11.8h1.67q.43 0 .61.16.17.15.23.55m5.98 5.33v-2.37h5.95v2.37zm10.91-1.5h5.36q0-.55-.16-1.04-.15-.49-.46-.85-.31-.37-.79-.58-.48-.22-1.11-.22-1.23 0-1.94.7-.7.71-.9 1.99m7.24 1.72h-7.3q.07.91.32 1.57.26.66.67 1.09.42.43.98.64.57.22 1.26.22t1.19-.17q.5-.16.88-.35.37-.2.65-.36.29-.16.55-.16.36 0 .53.27l.82 1.03q-.48.55-1.06.93-.59.37-1.23.59-.64.23-1.3.32t-1.28.09q-1.23 0-2.29-.41-1.06-.4-1.84-1.2t-1.23-1.98-.45-2.73q0-1.21.39-2.27.4-1.07 1.13-1.86.73-.78 1.78-1.24t2.37-.46q1.12 0 2.06.35.94.36 1.62 1.04.68.69 1.07 1.68.38 1 .38 2.27 0 .65-.14.87-.13.23-.53.23m5.26-5.74.2.93q.35-.36.75-.66.4-.31.84-.52t.95-.33q.5-.12 1.1-.12.97 0 1.71.32.75.33 1.25.92.5.6.76 1.42t.26 1.81v7.51h-2.84v-7.51q0-1.08-.49-1.67-.5-.6-1.51-.6-.74 0-1.38.34-.65.33-1.22.91v8.53h-2.84v-11.8h1.74q.55 0 .72.52m12.75 4.02h5.36q0-.55-.15-1.04-.16-.49-.47-.85-.31-.37-.79-.58-.47-.22-1.11-.22-1.23 0-1.93.7-.71.71-.91 1.99m7.25 1.72h-7.3q.07.91.32 1.57t.67 1.09q.41.43.98.64.57.22 1.26.22t1.19-.17q.5-.16.87-.35.38-.2.66-.36t.54-.16q.36 0 .53.27l.82 1.03q-.47.55-1.06.93-.59.37-1.22.59-.64.23-1.3.32t-1.29.09q-1.23 0-2.28-.41-1.06-.4-1.84-1.2-.79-.8-1.23-1.98-.45-1.18-.45-2.73 0-1.21.39-2.27.39-1.07 1.12-1.86.73-.78 1.78-1.24t2.38-.46q1.11 0 2.06.35.94.36 1.62 1.04.68.69 1.06 1.68.39 1 .39 2.27 0 .65-.14.87-.14.23-.53.23m5.3-5.55.17 1.34q.55-1.06 1.31-1.66.76-.61 1.8-.61.81 0 1.31.36l-.19 2.13q-.05.2-.16.29t-.3.09q-.17 0-.51-.06t-.66-.06q-.47 0-.84.14t-.66.4q-.29.25-.52.62-.22.37-.42.84v7.27h-2.84v-11.8h1.67q.44 0 .61.16.17.15.23.55m10.38 4.9q.53 0 .92-.14.4-.14.65-.4.26-.25.4-.61.13-.35.13-.78 0-.87-.53-1.38-.52-.52-1.57-.52-1.04 0-1.57.52-.52.51-.52 1.38 0 .41.13.77.14.36.39.62.26.26.66.4t.91.14m3.21 6.72q0-.35-.2-.56-.21-.22-.57-.34-.35-.12-.83-.18t-1.01-.09q-.54-.03-1.11-.05t-1.11-.09q-.47.26-.76.62t-.29.83q0 .31.15.58.16.27.49.46.34.2.88.31.55.11 1.33.11.79 0 1.37-.12.57-.12.94-.34.38-.21.55-.5.17-.3.17-.64m-.56-11.93h3.39v1.06q0 .51-.61.62l-1.06.2q.25.61.25 1.33 0 .88-.35 1.58-.36.71-.98 1.2-.62.5-1.46.77-.85.27-1.83.27-.34 0-.66-.03-.32-.04-.63-.1-.56.34-.56.75 0 .36.33.52.33.17.87.24t1.23.09q.69.01 1.41.07.73.06 1.42.2.69.15 1.23.46t.87.84q.33.54.33 1.38 0 .78-.39 1.51-.39.74-1.12 1.32-.73.57-1.79.92t-2.42.35q-1.33 0-2.32-.26t-1.65-.69q-.65-.43-.98-.99-.32-.57-.32-1.18 0-.82.5-1.38t1.38-.89q-.47-.24-.75-.65-.28-.4-.28-1.05 0-.27.1-.55t.29-.56q.19-.27.48-.52.28-.25.67-.44-.89-.49-1.4-1.29-.52-.81-.52-1.89 0-.87.35-1.58.36-.71.98-1.21.63-.5 1.49-.76.85-.27 1.86-.27.76 0 1.43.16.67.15 1.22.45m13.63-.4h2.27l-6.42 15.04q-.13.3-.33.46-.2.15-.62.15h-2.11l2.2-4.74-4.77-10.91h2.5q.33 0 .52.16t.28.37l2.51 6.12q.13.31.21.62.09.31.17.63.1-.32.21-.64.1-.31.23-.62l2.37-6.11q.09-.23.3-.38t.48-.15m3.6 6.04v-2.37h5.95v2.37zm17.87-4.58-.75 1.04q-.13.16-.25.25t-.35.09q-.22 0-.42-.13-.21-.13-.5-.3t-.68-.3q-.4-.13-.99-.13-.74 0-1.31.27-.56.27-.93.78-.38.5-.56 1.22-.19.72-.19 1.63 0 .94.21 1.68.2.73.58 1.23t.92.76 1.22.26q.67 0 1.09-.17.42-.16.71-.36.29-.21.5-.37.21-.17.48-.17.34 0 .52.27l.81 1.03q-.47.55-1.02.93-.55.37-1.15.59-.59.23-1.21.32-.63.09-1.25.09-1.09 0-2.06-.41-.97-.4-1.69-1.19-.73-.78-1.15-1.91-.41-1.13-.41-2.58 0-1.3.37-2.41t1.1-1.92q.72-.81 1.79-1.27t2.46-.46q1.32 0 2.32.42.99.43 1.79 1.22m7.1-1.64q1.32 0 2.39.42 1.08.43 1.84 1.21.77.78 1.18 1.91t.41 2.52q0 1.4-.41 2.53-.41 1.12-1.18 1.92-.76.79-1.84 1.22-1.07.42-2.39.42t-2.4-.42q-1.08-.43-1.84-1.22-.77-.8-1.19-1.92-.42-1.13-.42-2.53 0-1.39.42-2.52t1.19-1.91q.76-.78 1.84-1.21 1.08-.42 2.4-.42m0 9.97q1.48 0 2.18-.99.71-.99.71-2.9t-.71-2.91q-.7-1-2.18-1-1.49 0-2.21 1.01-.72 1-.72 2.9t.72 2.89q.72 1 2.21 1m15.84-8.51-.64 1.02q-.12.19-.25.26-.12.07-.32.07t-.44-.11q-.24-.12-.55-.26t-.7-.26q-.4-.11-.94-.11-.84 0-1.32.35-.47.36-.47.93 0 .38.24.64.25.26.66.46.41.19.92.35.52.15 1.06.34.53.18 1.05.42.52.23.92.6.41.36.66.86.25.51.25 1.22 0 .85-.31 1.57-.3.72-.9 1.24-.6.53-1.48.82t-2.03.29q-.61 0-1.19-.11-.58-.1-1.11-.3-.54-.2-.99-.46-.46-.26-.8-.57l.65-1.09q.13-.19.3-.3.17-.1.44-.1.26 0 .5.15t.55.32q.31.18.73.32.42.15 1.06.15.51 0 .87-.12t.6-.31q.23-.2.34-.46t.11-.53q0-.42-.25-.68-.24-.26-.65-.46t-.93-.35q-.53-.16-1.07-.34-.55-.18-1.07-.43-.53-.25-.93-.63-.41-.38-.66-.93t-.25-1.33q0-.73.29-1.38.29-.66.85-1.15.55-.49 1.39-.78.83-.29 1.92-.29 1.22 0 2.22.4t1.67 1.06m6.2 10.7q-1.54 0-2.36-.86-.83-.87-.83-2.4v-6.59h-1.2q-.23 0-.4-.15-.16-.15-.16-.45v-1.13l1.9-.31.6-3.22q.06-.23.22-.35.16-.13.41-.13h1.47v3.71h3.15v2.03h-3.15v6.39q0 .55.27.86.27.32.75.32.26 0 .44-.07.18-.06.31-.13t.23-.13q.11-.07.21-.07.13 0 .21.07.08.06.17.19l.85 1.38q-.62.52-1.42.78-.81.26-1.67.26"/></svg>