<svg xmlns="http://www.w3.org/2000/svg" width="400" height="400" viewBox="0 0 400 400"><rect width="100%" height="100%" fill="#1e293b"/><path fill="#ffffff" d="M84.36 185.43v9.12q.96-.89 2.11-1.45t2.7-.56q1.35 0 2.39.45 1.04.46 1.73 1.28.7.83 1.06 1.97.36 1.15.36 2.52v10.45h-3.95v-10.45q0-1.5-.69-2.33-.69-.82-2.1-.82-1.02 0-1.92.46-.89.47-1.69 1.27v11.87h-3.95v-23.78zm17.21 13.68h7.46q0-.76-.22-1.44-.21-.68-.64-1.2-.44-.51-1.1-.8-.66-.3-1.54-.3-1.72 0-2.7.98-.98.97-1.26 2.76m10.08 2.39h-10.16q.1 1.26.45 2.18t.93 1.52 1.37.9q.79.29 1.75.29t1.66-.22q.69-.22 1.21-.5.52-.27.91-.49.4-.23.76-.23.5 0 .74.37l1.14 1.44q-.66.77-1.48 1.29-.81.52-1.7.83t-1.81.44-1.78.13q-1.71 0-3.19-.57-1.47-.57-2.56-1.68-1.08-1.11-1.71-2.75-.62-1.64-.62-3.8 0-1.68.54-3.16.55-1.48 1.56-2.58 1.02-1.09 2.48-1.73 1.47-.64 3.31-.64 1.55 0 2.86.49 1.31.5 2.26 1.45.94.95 1.48 2.34.53 1.38.53 3.16 0 .89-.19 1.21-.19.31-.74.31m3.94-16.07h3.95v23.78h-3.95zm8.03 7.36h3.97v16.42h-3.97zm4.51-4.78q0 .51-.2.96-.21.45-.56.78-.34.34-.8.54-.47.2-1 .2-.51 0-.96-.2-.46-.2-.8-.54-.33-.33-.53-.78t-.2-.96q0-.53.2-.99.2-.47.53-.8.34-.34.8-.54.45-.2.96-.2.53 0 1 .2.46.2.8.54.35.33.56.8.2.46.2.99m12.53 12.56 5.62 8.64h-3.81q-.43 0-.7-.22-.26-.23-.44-.52l-3.47-5.71q-.08.27-.18.51-.11.24-.23.45l-3.08 4.75q-.17.28-.43.51-.25.23-.64.23h-3.53l5.63-8.46-5.41-7.96h3.81q.43 0 .64.12t.37.4l3.44 5.47q.17-.55.49-1.07l2.77-4.32q.35-.6.91-.6h3.63zm7.54.62v-3.29h8.29v3.29zm24.86-6.36-1.04 1.44q-.17.22-.34.35t-.49.13q-.3 0-.59-.19-.29-.18-.69-.41-.4-.24-.95-.42t-1.37-.18q-1.04 0-1.82.37-.79.38-1.31 1.08-.52.71-.77 1.71-.26 1-.26 2.26 0 1.31.28 2.34.28 1.02.81 1.72.53.69 1.28 1.05t1.69.36q.95 0 1.53-.23.59-.23.99-.51t.69-.51q.3-.24.67-.24.48 0 .72.37l1.13 1.44q-.65.77-1.42 1.29t-1.59.83q-.83.31-1.7.44t-1.74.13q-1.52 0-2.86-.57t-2.35-1.65q-1.01-1.09-1.59-2.67-.59-1.57-.59-3.59 0-1.81.52-3.35.52-1.55 1.53-2.67 1.01-1.13 2.5-1.77 1.48-.64 3.42-.64 1.84 0 3.22.59 1.39.59 2.49 1.7m9.89-2.29q1.82 0 3.32.59t2.56 1.68 1.64 2.66q.58 1.56.58 3.5 0 1.95-.58 3.52t-1.64 2.67q-1.06 1.11-2.56 1.7t-3.32.59q-1.84 0-3.34-.59-1.51-.59-2.57-1.7-1.07-1.1-1.65-2.67t-.58-3.52q0-1.94.58-3.5.58-1.57 1.65-2.66 1.06-1.09 2.57-1.68 1.5-.59 3.34-.59m0 13.87q2.05 0 3.03-1.38.99-1.37.99-4.03 0-2.65-.99-4.05-.98-1.39-3.03-1.39-2.08 0-3.08 1.4t-1 4.04 1 4.03q1 1.38 3.08 1.38m21.42-2.06v-7.36q-.67-.82-1.46-1.16-.79-.33-1.7-.33-.9 0-1.62.33-.72.34-1.23 1.02t-.79 1.73q-.27 1.05-.27 2.47 0 1.44.23 2.44.24 1 .67 1.63t1.05.91q.63.28 1.4.28 1.23 0 2.09-.51.87-.51 1.63-1.45m0-18.92h3.96v23.78h-2.42q-.78 0-.99-.72l-.34-1.58q-.99 1.13-2.28 1.84-1.29.7-3 .7-1.34 0-2.46-.56t-1.93-1.62q-.81-1.07-1.25-2.64-.44-1.56-.44-3.58 0-1.82.5-3.39.49-1.57 1.42-2.72t2.23-1.8q1.29-.65 2.91-.65 1.37 0 2.35.43t1.74 1.17zm10.98 13.68h7.46q0-.76-.22-1.44t-.65-1.2q-.43-.51-1.09-.8-.67-.3-1.55-.3-1.71 0-2.69.98-.99.97-1.26 2.76m10.08 2.39h-10.16q.1 1.26.45 2.18t.93 1.52q.57.6 1.36.9.8.29 1.76.29t1.65-.22q.7-.22 1.22-.5.52-.27.91-.49.39-.23.76-.23.5 0 .74.37l1.13 1.44q-.65.77-1.47 1.29t-1.7.83q-.89.31-1.81.44t-1.79.13q-1.71 0-3.18-.57t-2.56-1.68-1.71-2.75q-.63-1.64-.63-3.8 0-1.68.55-3.16.54-1.48 1.56-2.58 1.01-1.09 2.48-1.73 1.46-.64 3.3-.64 1.55 0 2.87.49 1.31.5 2.25 1.45.95.95 1.48 2.34.54 1.38.54 3.16 0 .89-.19 1.21-.2.31-.74.31m3.76-.31v-3.29h8.29v3.29zm15.55-7.4.24 1.85q.77-1.47 1.83-2.31 1.05-.84 2.49-.84 1.14 0 1.83.5l-.26 2.96q-.08.28-.23.4t-.41.12q-.24 0-.71-.08t-.92-.08q-.66 0-1.17.2-.51.19-.92.55t-.72.87-.58 1.17v10.11h-3.96v-16.42h2.32q.61 0 .85.22t.32.78m11.57 5.32h7.46q0-.76-.22-1.44t-.65-1.2q-.43-.51-1.09-.8-.67-.3-1.55-.3-1.71 0-2.69.98-.99.97-1.26 2.76m10.08 2.39h-10.16q.1 1.26.45 2.18t.93 1.52q.57.6 1.36.9.8.29 1.76.29t1.65-.22q.7-.22 1.22-.5.52-.27.91-.49.39-.23.76-.23.5 0 .74.37l1.13 1.44q-.65.77-1.47 1.29t-1.7.83q-.89.31-1.81.44t-1.79.13q-1.71 0-3.18-.57t-2.56-1.68-1.71-2.75q-.63-1.64-.63-3.8 0-1.68.55-3.16.54-1.48 1.56-2.58 1.01-1.09 2.48-1.73 1.46-.64 3.3-.64 1.55 0 2.87.49 1.31.5 2.25 1.45.95.95 1.48 2.34.54 1.38.54 3.16 0 .89-.19 1.21-.2.31-.74.31m12.56 3.47v-2.77q-1.71.08-2.88.3-1.17.21-1.87.55-.71.34-1.01.78-.3.45-.3.98 0 1.04.61 1.49.62.45 1.61.45 1.22 0 2.1-.44.89-.44 1.74-1.34m-8.35-8.62-.71-1.27q2.84-2.59 6.82-2.59 1.44 0 2.58.47 1.13.47 1.92 1.31.78.84 1.19 2.01t.41 2.56v10.37h-1.8q-.56 0-.86-.17t-.48-.68l-.35-1.18q-.63.56-1.22.98-.59.43-1.23.71-.64.29-1.37.44-.73.16-1.61.16-1.04 0-1.92-.28t-1.52-.84-.99-1.4q-.35-.83-.35-1.93 0-.63.21-1.24.21-.62.68-1.18t1.22-1.05q.75-.5 1.85-.87t2.55-.6q1.46-.23 3.33-.28v-.96q0-1.65-.7-2.44-.71-.79-2.04-.79-.96 0-1.59.22-.63.23-1.11.51t-.87.5q-.39.23-.87.23-.42 0-.71-.22t-.46-.5m26.22 8v-7.36q-.67-.82-1.46-1.16-.79-.33-1.71-.33-.89 0-1.61.33-.72.34-1.23 1.02-.52.68-.79 1.73t-.27 2.47q0 1.44.23 2.44t.67 1.63q.43.63 1.05.91.63.28 1.39.28 1.24 0 2.1-.51t1.63-1.45m0-18.92h3.95v23.78h-2.41q-.79 0-.99-.72l-.34-1.58q-.99 1.13-2.28 1.84-1.29.7-3 .7-1.34 0-2.46-.56t-1.93-1.62q-.81-1.07-1.25-2.64-.44-1.56-.44-3.58 0-1.82.5-3.39.49-1.57 1.42-2.72t2.22-1.8q1.3-.65 2.92-.65 1.37 0 2.35.43.97.43 1.74 1.17zm19.6 7.36h3.17l-8.94 20.93q-.18.42-.46.63-.28.22-.86.22h-2.94l3.07-6.59-6.64-15.19h3.47q.47 0 .73.23.27.22.39.51l3.49 8.51q.18.43.3.87.12.43.23.88.14-.45.29-.89.14-.44.32-.87l3.29-8.5q.13-.32.43-.53.29-.21.66-.21"/></svg>