<svg xmlns="http://www.w3.org/2000/svg" width="400" height="400" viewBox="0 0 400 400"><rect width="100%" height="100%" fill="#1e293b"/><path fill="#ffffff" d="M86.465 183.835v9.98q1.05-.98 2.31-1.59 1.26-.62 2.96-.62 1.47 0 2.61.5 1.13.5 1.9 1.4.76.9 1.15 2.16.39 1.25.39 2.75v11.43h-4.32v-11.43q0-1.64-.75-2.54-.75-.91-2.29-.91-1.12 0-2.1.51t-1.86 1.38v12.99h-4.32v-26.01zm18.83 14.97h8.16q0-.84-.24-1.59-.24-.74-.71-1.3t-1.2-.88q-.72-.33-1.69-.33-1.87 0-2.94 1.07-1.08 1.07-1.38 3.03m11.03 2.6h-11.11q.1 1.39.48 2.39.39 1.01 1.02 1.67.63.65 1.5.98.86.32 1.91.32t1.81-.25q.76-.24 1.33-.54t1-.54q.43-.25.83-.25.54 0 .81.41l1.24 1.57q-.72.84-1.61 1.41t-1.86.91q-.98.34-1.98.48-1.01.14-1.95.14-1.88 0-3.49-.62t-2.8-1.84q-1.19-1.21-1.87-3.01-.68-1.79-.68-4.15 0-1.84.59-3.46.6-1.62 1.71-2.82t2.71-1.9 3.62-.7q1.69 0 3.13.55 1.43.54 2.47 1.58 1.03 1.04 1.62 2.56.58 1.51.58 3.45 0 .98-.21 1.32t-.8.34m4.3-17.57h4.32v26.01h-4.32zm8.79 8.05h4.34v17.96h-4.34zm4.93-5.23q0 .56-.23 1.05-.22.49-.6.86t-.88.59q-.51.21-1.09.21-.56 0-1.06-.21-.49-.22-.86-.59t-.59-.86-.22-1.05q0-.58.22-1.08.22-.51.59-.88t.86-.58q.5-.22 1.06-.22.58 0 1.09.22.5.21.88.58t.6.88q.23.5.23 1.08m13.7 13.74 6.15 9.45h-4.17q-.47 0-.76-.25-.29-.24-.48-.56l-3.8-6.24q-.09.29-.2.56-.11.26-.25.49l-3.36 5.19q-.2.3-.48.56-.28.25-.69.25h-3.87l6.16-9.26-5.92-8.7h4.17q.47 0 .7.14.23.13.4.42l3.76 5.99q.2-.6.54-1.17l3.03-4.73q.39-.65 1-.65h3.97zm8.44-16.56h4.32v26.01h-4.32zm16.59 7.77q2 0 3.63.65 1.64.65 2.8 1.84t1.8 2.9q.63 1.72.63 3.84 0 2.13-.63 3.85-.64 1.71-1.8 2.92t-2.8 1.85q-1.63.65-3.63.65-2.01 0-3.66-.65-1.64-.64-2.81-1.85-1.16-1.21-1.8-2.92-.64-1.72-.64-3.85 0-2.12.64-3.84.64-1.71 1.8-2.9 1.17-1.19 2.81-1.84 1.65-.65 3.66-.65m0 15.18q2.24 0 3.32-1.51 1.07-1.5 1.07-4.41 0-2.9-1.07-4.43-1.08-1.52-3.32-1.52-2.28 0-3.37 1.53t-1.09 4.42 1.09 4.4q1.09 1.52 3.37 1.52m18.73-6.36q.8 0 1.4-.21.59-.22.98-.61.4-.38.6-.93.2-.54.2-1.19 0-1.33-.8-2.1-.79-.78-2.38-.78-1.6 0-2.39.78-.8.77-.8 2.1 0 .63.2 1.18.2.54.6.93.39.4.99.62.61.21 1.4.21m4.88 10.23q0-.53-.32-.86-.31-.34-.85-.52-.55-.18-1.27-.27-.73-.09-1.54-.13-.82-.05-1.68-.08-.87-.04-1.69-.14-.72.4-1.17.94-.44.55-.44 1.27 0 .47.23.88.24.41.76.71.51.3 1.34.46.82.17 2.01.17 1.21 0 2.08-.19.88-.18 1.44-.5.57-.33.84-.77.26-.45.26-.97m-.86-18.15h5.16v1.61q0 .77-.92.94l-1.61.3q.36.93.36 2.03 0 1.33-.53 2.41-.53 1.07-1.48 1.82-.94.76-2.23 1.17t-2.77.41q-.53 0-1.02-.05-.49-.06-.96-.14-.84.5-.84 1.13 0 .55.5.8t1.32.36q.82.1 1.87.13t2.15.11q1.11.09 2.16.31t1.87.69 1.32 1.29q.5.81.5 2.09 0 1.19-.59 2.31-.58 1.12-1.7 2-1.11.87-2.73 1.4-1.61.54-3.68.54-2.03 0-3.53-.4-1.51-.39-2.51-1.05-.99-.65-1.48-1.51t-.49-1.78q0-1.26.76-2.11t2.09-1.36q-.72-.37-1.14-.98t-.42-1.61q0-.4.15-.83t.44-.85.72-.8q.44-.37 1.04-.67-1.37-.74-2.15-1.96-.78-1.23-.78-2.87 0-1.33.54-2.41.53-1.07 1.48-1.83.96-.77 2.26-1.17 1.31-.4 2.85-.4 1.15 0 2.17.24 1.01.23 1.85.69m15.84-.9q1.99 0 3.63.65t2.8 1.84 1.79 2.9q.63 1.72.63 3.84 0 2.13-.63 3.85-.63 1.71-1.79 2.92t-2.8 1.85q-1.64.65-3.63.65-2.01 0-3.66-.65-1.64-.64-2.81-1.85-1.16-1.21-1.8-2.92-.64-1.72-.64-3.85 0-2.12.64-3.84.64-1.71 1.8-2.9 1.17-1.19 2.81-1.84 1.65-.65 3.66-.65m0 15.18q2.24 0 3.31-1.51 1.08-1.5 1.08-4.41 0-2.9-1.08-4.43-1.07-1.52-3.31-1.52-2.28 0-3.37 1.53t-1.09 4.42 1.09 4.4q1.09 1.52 3.37 1.52m20.11-15.18q1.99 0 3.63.65 1.63.65 2.8 1.84 1.16 1.19 1.79 2.9.63 1.72.63 3.84 0 2.13-.63 3.85-.63 1.71-1.79 2.92-1.17 1.21-2.8 1.85-1.64.65-3.63.65-2.02 0-3.66-.65-1.65-.64-2.81-1.85t-1.8-2.92q-.64-1.72-.64-3.85 0-2.12.64-3.84.64-1.71 1.8-2.9t2.81-1.84q1.64-.65 3.66-.65m0 15.18q2.23 0 3.31-1.51 1.08-1.5 1.08-4.41 0-2.9-1.08-4.43-1.08-1.52-3.31-1.52-2.28 0-3.37 1.53-1.1 1.53-1.1 4.42t1.1 4.4q1.09 1.52 3.37 1.52m12.21-22.95h4.32v26.01h-4.32zm19.92 20.69v-8.05q-.74-.89-1.61-1.26-.86-.37-1.86-.37-.98 0-1.77.37-.78.37-1.34 1.11t-.86 1.89-.3 2.7q0 1.58.25 2.67.26 1.1.73 1.79t1.16 1q.68.3 1.52.3 1.35 0 2.29-.56.95-.56 1.79-1.59m0-20.69h4.32v26.01h-2.64q-.86 0-1.09-.79l-.37-1.73q-1.08 1.24-2.49 2.01t-3.28.77q-1.47 0-2.7-.61-1.22-.61-2.11-1.78-.88-1.16-1.36-2.88-.48-1.71-.48-3.92 0-1.99.54-3.71.54-1.71 1.56-2.97 1.01-1.26 2.43-1.97t3.19-.71q1.5 0 2.57.47 1.07.48 1.91 1.28zm14.17 26.01h-4.32v-14.7l-1.56-.25q-.51-.1-.81-.35-.31-.26-.31-.73v-1.77h2.68v-1.33q0-1.54.46-2.76.47-1.23 1.33-2.09.87-.85 2.11-1.31 1.24-.45 2.8-.45 1.24 0 2.31.33l-.09 2.17q-.01.24-.14.39-.12.15-.32.23t-.46.11q-.27.02-.56.02-.77 0-1.38.17-.6.16-1.02.58-.42.41-.64 1.08t-.22 1.67v1.19h4.67v3.08h-4.53zm18.11-17.96h4.33v17.96h-2.65q-.85 0-1.08-.79l-.3-1.43q-1.1 1.12-2.43 1.81t-3.13.69q-1.47 0-2.6-.5t-1.9-1.41-1.17-2.16q-.39-1.25-.39-2.76v-11.41h4.32v11.41q0 1.65.76 2.55.77.9 2.29.9 1.12 0 2.1-.5t1.85-1.37zm8.65-8.05h4.32v26.01h-4.32zm8.7 0h4.32v26.01h-4.32z"/></svg>