<svg xmlns="http://www.w3.org/2000/svg" width="400" height="400" viewBox="0 0 400 400"><rect width="100%" height="100%" fill="#1e293b"/><path fill="#ffffff" d="M85.94 179.22v12.83q1.35-1.26 2.97-2.05t3.8-.79q1.89 0 3.35.65 1.46.64 2.44 1.8t1.49 2.76q.5 1.61.5 3.55v14.69h-5.55v-14.69q0-2.12-.97-3.28t-2.95-1.16q-1.44 0-2.7.66-1.26.65-2.38 1.77v16.7h-5.56v-33.44zm24.21 19.24h10.48q0-1.08-.3-2.03-.31-.96-.91-1.68-.61-.72-1.54-1.14-.94-.41-2.18-.41-2.4 0-3.79 1.37-1.38 1.37-1.76 3.89m14.17 3.36h-14.29q.14 1.77.63 3.07.5 1.29 1.31 2.13.81.85 1.92 1.26 1.12.42 2.47.42t2.33-.31q.97-.32 1.71-.7.73-.38 1.28-.7.55-.31 1.07-.31.69 0 1.03.51l1.6 2.03q-.92 1.08-2.07 1.81t-2.4 1.17-2.54.62-2.51.18q-2.41 0-4.48-.8t-3.6-2.36q-1.53-1.57-2.4-3.87-.88-2.31-.88-5.35 0-2.36.76-4.44.77-2.08 2.2-3.62t3.49-2.44q2.05-.91 4.64-.91 2.18 0 4.03.7 1.84.7 3.17 2.04t2.08 3.28q.76 1.95.76 4.45 0 1.26-.27 1.7t-1.04.44m5.54-22.6h5.55v33.44h-5.55zm11.29 10.35h5.58v23.09h-5.58zm6.35-6.72q0 .72-.3 1.35-.29.63-.77 1.1-.49.47-1.14.75-.65.29-1.39.29-.72 0-1.36-.29-.65-.28-1.12-.75t-.75-1.1-.28-1.35q0-.74.28-1.4.28-.65.75-1.12t1.12-.76q.64-.28 1.36-.28.74 0 1.39.28.65.29 1.14.76.48.47.77 1.12.3.66.3 1.4m17.61 17.66 7.9 12.15h-5.35q-.61 0-.98-.32-.37-.31-.62-.71l-4.88-8.04q-.12.38-.26.72-.15.34-.33.63l-4.32 6.69q-.25.38-.61.7-.36.33-.9.33h-4.97l7.92-11.9-7.6-11.19h5.35q.61 0 .9.17t.52.56l4.84 7.69q.24-.76.69-1.51l3.9-6.07q.49-.84 1.28-.84h5.11zm10.85-21.29h5.56v33.44h-5.56zm21.33 9.99q2.56 0 4.67.84 2.1.83 3.6 2.36 1.49 1.53 2.3 3.73.81 2.21.81 4.93 0 2.75-.81 4.95-.81 2.21-2.3 3.76-1.5 1.55-3.6 2.39-2.11.83-4.67.83-2.59 0-4.7-.83-2.12-.84-3.61-2.39-1.5-1.55-2.32-3.76-.82-2.2-.82-4.95 0-2.72.82-4.93.82-2.2 2.32-3.73 1.49-1.53 3.61-2.36 2.11-.84 4.7-.84m0 19.51q2.88 0 4.26-1.93 1.39-1.94 1.39-5.67 0-3.74-1.39-5.69-1.38-1.96-4.26-1.96-2.93 0-4.33 1.97-1.41 1.97-1.41 5.68t1.41 5.66q1.4 1.94 4.33 1.94m24.07-8.17q1.04 0 1.8-.28.77-.28 1.28-.77.5-.5.76-1.19.26-.7.26-1.53 0-1.71-1.02-2.72-1.03-1-3.08-1-2.04 0-3.07 1-1.02 1.01-1.02 2.72 0 .81.26 1.5.26.7.76 1.21.51.5 1.29.78.77.28 1.78.28m6.28 13.14q0-.67-.4-1.1-.41-.42-1.11-.66-.69-.24-1.63-.35-.93-.11-1.98-.17-1.04-.05-2.16-.1-1.11-.05-2.17-.18-.92.52-1.49 1.21-.58.7-.58 1.62 0 .61.31 1.14.3.53.96.91.67.38 1.72.6 1.06.21 2.59.21 1.55 0 2.68-.23 1.12-.24 1.86-.66.73-.41 1.06-.99.34-.57.34-1.25m-1.1-23.33h6.64v2.07q0 .99-1.2 1.22l-2.07.38q.48 1.19.48 2.61 0 1.71-.69 3.09-.69 1.39-1.9 2.36-1.22.96-2.87 1.49t-3.57.53q-.67 0-1.3-.07t-1.24-.18q-1.08.66-1.08 1.47 0 .69.64 1.02t1.7.46q1.06.14 2.41.17t2.77.14q1.41.12 2.76.4t2.41.89q1.06.6 1.7 1.65t.64 2.69q0 1.53-.75 2.97-.76 1.44-2.18 2.57-1.43 1.12-3.51 1.81-2.09.68-4.74.68-2.61 0-4.55-.5-1.93-.51-3.21-1.35-1.29-.85-1.92-1.95t-.63-2.3q0-1.62.98-2.71t2.69-1.74q-.92-.47-1.46-1.26t-.54-2.07q0-.52.19-1.07t.56-1.09.94-1.02q.56-.49 1.32-.87-1.75-.94-2.75-2.52-1-1.57-1-3.69 0-1.71.68-3.09.69-1.39 1.92-2.37 1.22-.97 2.9-1.49 1.67-.52 3.65-.52 1.49 0 2.79.3 1.31.31 2.39.89m20.36-1.15q2.57 0 4.67.84 2.1.83 3.6 2.36t2.31 3.73q.81 2.21.81 4.93 0 2.75-.81 4.95-.81 2.21-2.31 3.76t-3.6 2.39q-2.1.83-4.67.83-2.59 0-4.7-.83-2.12-.84-3.61-2.39-1.5-1.55-2.32-3.76-.82-2.2-.82-4.95 0-2.72.82-4.93.82-2.2 2.32-3.73 1.49-1.53 3.61-2.36 2.11-.84 4.7-.84m0 19.51q2.88 0 4.27-1.93 1.38-1.94 1.38-5.67 0-3.74-1.38-5.69-1.39-1.96-4.27-1.96-2.92 0-4.33 1.97t-1.41 5.68 1.41 5.66q1.41 1.94 4.33 1.94m25.85-19.51q2.57 0 4.67.84 2.11.83 3.6 2.36 1.5 1.53 2.31 3.73.81 2.21.81 4.93 0 2.75-.81 4.95-.81 2.21-2.31 3.76-1.49 1.55-3.6 2.39-2.1.83-4.67.83-2.58 0-4.7-.83-2.11-.84-3.61-2.39t-2.32-3.76q-.82-2.2-.82-4.95 0-2.72.82-4.93.82-2.2 2.32-3.73t3.61-2.36q2.12-.84 4.7-.84m0 19.51q2.88 0 4.27-1.93 1.38-1.94 1.38-5.67 0-3.74-1.38-5.69-1.39-1.96-4.27-1.96-2.92 0-4.33 1.97-1.4 1.97-1.4 5.68t1.4 5.66q1.41 1.94 4.33 1.94m15.71-29.5h5.56v33.44h-5.56zm25.6 26.6v-10.35q-.94-1.15-2.05-1.62-1.12-.47-2.4-.47-1.26 0-2.27.47-1.02.47-1.74 1.43-.72.95-1.1 2.43-.38 1.47-.38 3.48 0 2.02.33 3.43.32 1.4.93 2.29t1.48 1.28q.88.4 1.96.4 1.73 0 2.95-.72 1.21-.72 2.29-2.05m0-26.6h5.56v33.44h-3.4q-1.1 0-1.39-1.01l-.47-2.23q-1.4 1.6-3.21 2.59t-4.22.99q-1.89 0-3.46-.79-1.58-.79-2.71-2.28-1.14-1.5-1.76-3.7-.62-2.21-.62-5.04 0-2.57.7-4.78.7-2.2 2-3.82 1.31-1.62 3.13-2.53t4.09-.91q1.94 0 3.31.61 1.37.6 2.45 1.64z"/></svg>