<svg xmlns="http://www.w3.org/2000/svg" width="400" height="400" viewBox="0 0 400 400"><rect width="100%" height="100%" fill="#1e293b"/><path fill="#ffffff" d="M86.485 184.225v11.97q1.26-1.17 2.77-1.91 1.51-.73 3.55-.73 1.76 0 3.13.6 1.36.59 2.28 1.68.91 1.08 1.38 2.58.48 1.5.48 3.31v13.71h-5.19v-13.71q0-1.98-.9-3.06-.91-1.08-2.75-1.08-1.35 0-2.52.61-1.18.61-2.23 1.66v15.58h-5.19v-31.21zm22.6 17.96h9.78q0-1.01-.28-1.9-.29-.89-.85-1.57-.57-.67-1.44-1.06t-2.03-.39q-2.24 0-3.54 1.29-1.29 1.28-1.64 3.63m13.23 3.13h-13.34q.13 1.66.59 2.86.46 1.21 1.22 2 .75.79 1.79 1.18 1.04.38 2.3.38t2.18-.29q.91-.29 1.59-.65t1.2-.65q.51-.3 1-.3.65 0 .96.49l1.49 1.89q-.86 1-1.93 1.69-1.07.68-2.24 1.09-1.16.41-2.37.58t-2.34.17q-2.25 0-4.18-.75t-3.36-2.21-2.25-3.61-.82-4.99q0-2.2.72-4.14.71-1.95 2.05-3.38 1.33-1.44 3.25-2.28t4.34-.84q2.03 0 3.76.65 1.72.65 2.96 1.9t1.94 3.07q.7 1.81.7 4.14 0 1.18-.25 1.59t-.96.41m5.16-21.09h5.19v31.21h-5.19zm10.54 9.66h5.21v21.55h-5.21zm5.93-6.28q0 .68-.28 1.26-.27.59-.72 1.03t-1.06.71q-.61.26-1.3.26-.68 0-1.28-.26-.59-.27-1.03-.71-.45-.44-.71-1.03-.26-.58-.26-1.26 0-.69.26-1.3t.71-1.05q.44-.44 1.03-.7.6-.26 1.28-.26.69 0 1.3.26t1.06.7.72 1.05q.28.61.28 1.3m16.44 16.49 7.37 11.34h-5q-.57 0-.91-.29-.35-.3-.58-.68l-4.56-7.49q-.1.35-.24.67-.13.31-.3.59l-4.03 6.23q-.24.36-.57.67-.34.3-.84.3h-4.64l7.39-11.11-7.1-10.44h5q.57 0 .84.16t.48.52l4.52 7.18q.23-.72.65-1.41l3.63-5.67q.46-.78 1.2-.78h4.77zm9.89.82v-4.33h10.88v4.33zm21.02-4.73v9.66q.88 1.07 1.92 1.52 1.04.44 2.2.44 1.19 0 2.15-.43.95-.43 1.63-1.35.67-.91 1.03-2.33.35-1.42.35-3.39 0-3.55-1.17-5.13-1.18-1.59-3.38-1.59-1.5 0-2.61.68-1.11.69-2.12 1.92m0-15.96v12.31q1.3-1.37 2.89-2.17 1.58-.81 3.62-.81 1.87 0 3.37.73 1.5.74 2.56 2.11 1.06 1.38 1.63 3.33t.57 4.39q0 2.63-.65 4.77t-1.86 3.66q-1.21 1.53-2.91 2.36-1.7.85-3.78.85-1.01 0-1.83-.2t-1.51-.56-1.27-.87q-.58-.52-1.1-1.15l-.23 1.45q-.13.55-.43.78-.31.23-.83.23h-3.43v-31.21zm28.18 9.33q2.4 0 4.36.77 1.96.78 3.36 2.21t2.15 3.49q.76 2.05.76 4.59 0 2.57-.76 4.62-.75 2.06-2.15 3.51t-3.36 2.23-4.36.78q-2.41 0-4.39-.78-1.97-.78-3.37-2.23-1.39-1.45-2.16-3.51-.77-2.05-.77-4.62 0-2.54.77-4.59.77-2.06 2.16-3.49 1.4-1.43 3.37-2.21 1.98-.77 4.39-.77m0 18.2q2.69 0 3.98-1.8 1.29-1.81 1.29-5.29 0-3.49-1.29-5.32-1.29-1.82-3.98-1.82-2.73 0-4.04 1.83-1.31 1.84-1.31 5.31 0 3.46 1.31 5.28 1.31 1.81 4.04 1.81m14.66-27.53h5.19v31.21h-5.19zm17.56 31.55q-2.82 0-4.32-1.59-1.5-1.58-1.5-4.38v-12.03h-2.21q-.42 0-.71-.27-.29-.28-.29-.82v-2.06l3.46-.57 1.09-5.88q.11-.42.4-.65.3-.23.76-.23h2.69v6.78h5.75v3.7h-5.75v11.67q0 1.01.49 1.58t1.35.57q.49 0 .81-.12.33-.11.57-.24t.43-.24q.19-.12.38-.12.23 0 .38.12.14.11.31.34l1.56 2.52q-1.14.95-2.61 1.43-1.47.49-3.04.49m8.27-10.86v-4.33h10.88v4.33zm25.37-11.36q2.39 0 4.36.77 1.96.78 3.36 2.21 1.39 1.43 2.15 3.49.75 2.05.75 4.59 0 2.57-.75 4.62-.76 2.06-2.15 3.51-1.4 1.45-3.36 2.23-1.97.78-4.36.78-2.42 0-4.39-.78t-3.37-2.23-2.16-3.51q-.77-2.05-.77-4.62 0-2.54.77-4.59.76-2.06 2.16-3.49t3.37-2.21q1.97-.77 4.39-.77m0 18.2q2.69 0 3.98-1.8 1.29-1.81 1.29-5.29 0-3.49-1.29-5.32-1.29-1.82-3.98-1.82-2.73 0-4.04 1.83-1.32 1.84-1.32 5.31 0 3.46 1.32 5.28 1.31 1.81 4.04 1.81m19.09-16.92.35 1.7q.66-.65 1.38-1.21.72-.55 1.53-.94t1.74-.61q.92-.22 2.01-.22 1.77 0 3.13.6 1.37.59 2.28 1.68.91 1.08 1.39 2.58.47 1.5.47 3.31v13.71h-5.19v-13.71q0-1.98-.9-3.06-.91-1.08-2.75-1.08-1.35 0-2.52.61-1.18.61-2.23 1.66v15.58h-5.19v-21.55h3.17q1.01 0 1.33.95"/></svg>