<svg xmlns="http://www.w3.org/2000/svg" width="400" height="400" viewBox="0 0 400 400"><rect width="100%" height="100%" fill="#1e293b"/><path fill="#ffffff" d="M83.37 188.62v7.12q.75-.7 1.65-1.14t2.11-.44q1.05 0 1.87.36.81.36 1.35 1 .55.64.83 1.54.28.89.28 1.97v8.16h-3.09v-8.16q0-1.18-.54-1.82-.53-.65-1.63-.65-.8 0-1.5.37-.7.36-1.33.98v9.28h-3.09v-18.57zm13.45 10.68h5.83q0-.6-.17-1.13t-.51-.93-.86-.63q-.51-.23-1.2-.23-1.34 0-2.11.76t-.98 2.16m7.88 1.86h-7.94q.07.99.35 1.71.27.72.72 1.19t1.07.7 1.37.23 1.29-.18q.55-.17.95-.38.41-.22.72-.39.3-.18.59-.18.39 0 .58.29l.88 1.13q-.51.6-1.15 1-.63.41-1.33.65-.69.25-1.41.35t-1.39.1q-1.34 0-2.49-.45-1.15-.44-2-1.31t-1.34-2.15-.49-2.97q0-1.31.43-2.47.42-1.15 1.22-2.01.79-.86 1.93-1.36 1.15-.5 2.59-.5 1.21 0 2.23.39 1.03.39 1.77 1.13.73.75 1.15 1.83t.42 2.47q0 .7-.15.94t-.57.24m3.07-12.54h3.09v18.57h-3.09zm6.28 5.74h3.1v12.83h-3.1zm3.52-3.73q0 .4-.16.75t-.43.61-.63.42q-.37.15-.78.15-.4 0-.76-.15-.35-.16-.61-.42-.27-.26-.42-.61-.16-.35-.16-.75 0-.42.16-.78.15-.36.42-.62.26-.27.61-.42.36-.16.76-.16.41 0 .78.16.36.15.63.42.27.26.43.62t.16.78m9.79 9.81 4.39 6.75h-2.98q-.34 0-.54-.18-.21-.17-.35-.4l-2.71-4.46q-.06.21-.14.4t-.18.35l-2.4 3.71q-.14.22-.34.4t-.5.18h-2.76l4.4-6.61-4.23-6.22H122q.33 0 .5.1.16.09.28.3l2.69 4.28q.14-.43.39-.84l2.16-3.37q.28-.47.71-.47h2.84zm5.89.49v-2.58h6.47v2.58zm11.86-1.63h5.82q0-.6-.17-1.13-.16-.53-.5-.93t-.86-.63-1.2-.23q-1.34 0-2.11.76t-.98 2.16m7.87 1.86h-7.93q.07.99.35 1.71.27.72.72 1.19t1.07.7 1.37.23 1.29-.18q.55-.17.95-.38.41-.22.71-.39.31-.18.6-.18.39 0 .57.29l.89 1.13q-.51.6-1.15 1-.64.41-1.33.65-.69.25-1.41.35t-1.4.1q-1.33 0-2.48-.45-1.15-.44-2-1.31t-1.34-2.15-.49-2.97q0-1.31.43-2.47.42-1.15 1.21-2.01.8-.86 1.94-1.36 1.15-.5 2.58-.5 1.22 0 2.24.39 1.03.39 1.76 1.13.74.75 1.16 1.83t.42 2.47q0 .7-.15.94t-.58.24m11.09 2.23v-5.75q-.51-.64-1.14-.9-.62-.26-1.33-.26-.7 0-1.27.26-.56.26-.96.79t-.61 1.35-.21 1.93q0 1.13.18 1.91t.52 1.28q.33.49.82.71t1.09.22q.96 0 1.64-.4.67-.4 1.27-1.14m1.2-9.03h1.89v17.02h-3.09v-5.82q-.76.82-1.72 1.32-.97.5-2.24.5-1.05 0-1.93-.44-.87-.44-1.5-1.27t-.98-2.06q-.34-1.22-.34-2.8 0-1.42.39-2.65.38-1.22 1.11-2.12.72-.9 1.74-1.41 1.01-.5 2.27-.5 1.2 0 2.01.41.82.41 1.45 1.11l.17-.72q.16-.57.77-.57m12.9 0h3.09v12.83h-1.89q-.61 0-.77-.56l-.22-1.03q-.78.8-1.73 1.3-.95.49-2.24.49-1.05 0-1.86-.36-.8-.35-1.35-1t-.84-1.55q-.28-.89-.28-1.96v-8.16h3.09v8.16q0 1.17.54 1.81.55.65 1.64.65.8 0 1.5-.36t1.32-.98zm6.24 0h3.1v12.83h-3.1zm3.52-3.73q0 .4-.16.75t-.43.61-.63.42q-.36.15-.78.15-.4 0-.75-.15-.36-.16-.62-.42t-.42-.61-.16-.75q0-.42.16-.78t.42-.62q.26-.27.62-.42.35-.16.75-.16.42 0 .78.16.36.15.63.42.27.26.43.62t.16.78m5.82 7.48v5.75q.52.64 1.14.9.62.27 1.34.27.7 0 1.27-.27.56-.26.95-.8.4-.53.61-1.35t.21-1.93q0-1.13-.18-1.91t-.52-1.27-.82-.71q-.48-.23-1.09-.23-.96 0-1.64.41-.67.41-1.27 1.14m-.42-3.18.25 1.18q.79-.88 1.79-1.43t2.35-.55q1.05 0 1.92.43.87.44 1.5 1.27t.97 2.05q.35 1.22.35 2.8 0 1.43-.39 2.66-.39 1.22-1.11 2.12-.71.9-1.73 1.41t-2.28.51q-1.08 0-1.84-.33-.76-.34-1.36-.92v5.25h-3.09v-17.02h1.89q.6 0 .78.57m14.62 12.26h-3.09v-12.83h1.89q.6 0 .78.57l.2.95q.34-.38.71-.69t.79-.54q.42-.22.9-.35.48-.14 1.05-.14 1.22 0 2 .66t1.17 1.74q.3-.63.75-1.09t.98-.74q.54-.29 1.15-.43.6-.14 1.22-.14 1.06 0 1.88.33.83.32 1.39.95.56.62.86 1.52.29.9.29 2.07v8.16h-3.09v-8.16q0-1.23-.53-1.85-.54-.62-1.58-.62-.47 0-.88.17-.41.16-.71.47-.31.3-.48.77-.18.46-.18 1.06v8.16h-3.1v-8.16q0-1.29-.52-1.88t-1.52-.59q-.67 0-1.25.34-.58.33-1.08.9zm20.28-7.89h5.83q0-.6-.17-1.13t-.51-.93q-.33-.4-.85-.63t-1.21-.23q-1.34 0-2.1.76-.77.76-.99 2.16m7.88 1.86h-7.94q.08.99.35 1.71.28.72.73 1.19t1.07.7q.61.23 1.36.23t1.3-.18q.54-.17.95-.38l.71-.39q.31-.18.59-.18.39 0 .58.29l.89 1.13q-.52.6-1.15 1-.64.41-1.33.65-.7.25-1.42.35t-1.39.1q-1.34 0-2.49-.45-1.15-.44-2-1.31t-1.34-2.15q-.48-1.28-.48-2.97 0-1.31.42-2.47.43-1.15 1.22-2.01t1.94-1.36q1.14-.5 2.58-.5 1.21 0 2.24.39 1.02.39 1.76 1.13.74.75 1.16 1.83.41 1.08.41 2.47 0 .7-.15.94t-.57.24m5.71-6.23.21 1.01q.39-.39.82-.72t.92-.56q.48-.23 1.03-.36.55-.14 1.2-.14 1.05 0 1.86.36t1.36 1q.54.64.82 1.54.28.89.28 1.97v8.16h-3.09v-8.16q0-1.18-.53-1.82-.54-.65-1.64-.65-.8 0-1.5.37-.7.36-1.33.98v9.28h-3.08v-12.83h1.88q.6 0 .79.57m15.7 12.46q-1.67 0-2.57-.94-.89-.95-.89-2.61v-7.16h-1.31q-.25 0-.43-.17-.17-.16-.17-.48v-1.23l2.06-.34.65-3.5q.06-.25.24-.38.17-.14.45-.14h1.6v4.04h3.42v2.2h-3.42v6.95q0 .6.29.93.29.34.81.34.28 0 .48-.07.19-.07.34-.14.14-.08.25-.14.11-.07.23-.07.13 0 .22.07.09.06.19.2l.92 1.5q-.67.56-1.55.85-.87.29-1.81.29m4.93-6.46v-2.58h6.47v2.58zm9.46-12.31H275v18.57h-3.09zm12.95 15.26v-2.17q-1.34.07-2.25.24-.91.16-1.46.43-.55.26-.79.61t-.24.76q0 .81.48 1.17.48.34 1.26.34.95 0 1.64-.34.7-.34 1.36-1.04m-6.53-6.74-.55-.99q2.22-2.02 5.33-2.02 1.12 0 2.01.37.89.36 1.5 1.02t.93 1.57.32 2v8.1h-1.4q-.44 0-.67-.13-.24-.13-.38-.53l-.27-.93q-.49.44-.95.77-.47.33-.97.56-.5.22-1.06.34-.57.12-1.26.12-.81 0-1.5-.22t-1.19-.66q-.5-.43-.77-1.08-.28-.65-.28-1.52 0-.48.16-.96.17-.49.54-.92.36-.44.95-.83t1.45-.67q.85-.29 1.99-.47t2.6-.22v-.75q0-1.29-.55-1.91t-1.59-.62q-.75 0-1.24.18-.5.17-.87.39-.38.22-.68.4-.31.17-.68.17-.33 0-.55-.17-.23-.17-.37-.39m20.97-1.39-.7 1.11q-.13.2-.27.29-.13.08-.35.08t-.48-.13q-.25-.12-.59-.28t-.77-.28q-.43-.13-1.02-.13-.91 0-1.43.39t-.52 1.01q0 .42.27.7t.71.49q.45.21 1.01.38t1.14.37 1.15.46q.56.25 1 .65.45.39.72.94.26.55.26 1.33 0 .92-.33 1.7t-.98 1.35-1.6.89q-.96.32-2.21.32-.66 0-1.29-.12-.64-.12-1.22-.33t-1.07-.5q-.5-.29-.87-.63l.71-1.17q.14-.21.33-.33.18-.11.47-.11t.55.16q.25.17.59.35.34.19.79.35.46.17 1.16.17.55 0 .94-.13.4-.14.65-.35.26-.21.38-.49t.12-.58q0-.45-.27-.74t-.71-.5q-.45-.21-1.02-.38t-1.16-.37-1.16-.47-1.01-.68q-.45-.41-.72-1.01t-.27-1.45q0-.79.32-1.5.31-.72.92-1.25.6-.53 1.51-.85.9-.32 2.09-.32 1.33 0 2.41.44 1.09.44 1.82 1.15m6.73 11.64q-1.67 0-2.56-.94-.9-.95-.9-2.61v-7.16h-1.31q-.25 0-.43-.17-.17-.16-.17-.48v-1.23l2.06-.34.65-3.5q.06-.25.24-.38.17-.14.45-.14h1.6v4.04h3.42v2.2h-3.42v6.95q0 .6.29.93.3.34.81.34.29 0 .48-.07t.34-.14q.14-.08.25-.14.12-.07.23-.07.14 0 .22.07.09.06.19.2l.93 1.5q-.68.56-1.55.85-.88.29-1.82.29m13.55-11.64-.7 1.11q-.12.2-.26.29-.14.08-.35.08-.22 0-.48-.13-.26-.12-.59-.28-.34-.16-.77-.28-.43-.13-1.02-.13-.91 0-1.43.39t-.52 1.01q0 .42.27.7t.71.49 1.01.38q.56.17 1.14.37t1.14.46q.57.25 1.01.65.44.39.71.94t.27 1.33q0 .92-.33 1.7t-.98 1.35-1.61.89q-.95.32-2.2.32-.67 0-1.3-.12t-1.21-.33-1.07-.5q-.5-.29-.87-.63l.71-1.17q.14-.21.32-.33.19-.11.48-.11t.54.16q.26.17.6.35.33.19.79.35.46.17 1.16.17.55 0 .94-.13.39-.14.65-.35t.38-.49q.11-.28.11-.58 0-.45-.26-.74-.27-.29-.72-.5-.44-.21-1.01-.38t-1.16-.37q-.6-.2-1.16-.47-.57-.27-1.02-.68-.44-.41-.71-1.01t-.27-1.45q0-.79.31-1.5.32-.72.92-1.25.61-.53 1.52-.85.9-.32 2.09-.32 1.32 0 2.41.44t1.81 1.15"/></svg>