<svg xmlns="http://www.w3.org/2000/svg" width="400" height="400" viewBox="0 0 400 400"><rect width="100%" height="100%" fill="#1e293b"/><path fill="#ffffff" d="M83.765 185.355v11.12q1.17-1.09 2.58-1.78 1.4-.68 3.29-.68 1.64 0 2.91.56 1.26.55 2.11 1.56.85 1 1.29 2.4.44 1.39.44 3.07v12.73h-4.82v-12.73q0-1.84-.84-2.84t-2.55-1q-1.25 0-2.34.56-1.09.57-2.07 1.54v14.47h-4.81v-28.98zm20.98 16.68h9.09q0-.94-.26-1.77-.27-.83-.79-1.45-.53-.63-1.34-.99t-1.88-.36q-2.09 0-3.29 1.19t-1.53 3.38m12.29 2.9h-12.38q.11 1.54.54 2.66t1.13 1.86q.7.73 1.67 1.09t2.14.36 2.01-.28q.85-.27 1.49-.6.63-.33 1.11-.6.47-.28.92-.28.61 0 .9.45l1.38 1.76q-.79.93-1.79 1.57-.99.63-2.08 1.01-1.08.38-2.2.54-1.12.15-2.17.15-2.09 0-3.88-.69-1.8-.69-3.12-2.05-1.33-1.35-2.09-3.35t-.76-4.63q0-2.05.66-3.85.66-1.81 1.9-3.14 1.24-1.34 3.03-2.12 1.78-.78 4.02-.78 1.89 0 3.49.61 1.6.6 2.75 1.76t1.81 2.85q.65 1.68.65 3.85 0 1.09-.23 1.47-.24.38-.9.38m4.8-19.58h4.81v28.98h-4.81zm9.78 8.97h4.84v20.01h-4.84zm5.5-5.83q0 .63-.25 1.17-.25.55-.67.96t-.99.65q-.56.24-1.21.24-.62 0-1.18-.24-.55-.24-.96-.65t-.65-.96q-.25-.54-.25-1.17 0-.64.25-1.21.24-.56.65-.97t.96-.65q.56-.25 1.18-.25.65 0 1.21.25.57.24.99.65t.67.97q.25.57.25 1.21m15.27 15.31 6.85 10.53h-4.64q-.53 0-.85-.27-.32-.28-.54-.63l-4.23-6.96q-.1.33-.22.63-.13.29-.29.54l-3.74 5.79q-.22.33-.53.62-.31.28-.78.28h-4.31l6.87-10.32-6.59-9.69h4.64q.52 0 .78.15.25.15.45.48l4.19 6.67q.21-.67.6-1.31l3.38-5.27q.42-.72 1.11-.72h4.42zm9.19.76v-4.02h10.1v4.02zm20.92 9.77h-4.82v-16.38l-1.73-.27q-.57-.12-.91-.4-.34-.29-.34-.81v-1.97h2.98v-1.48q0-1.72.52-3.08.52-1.37 1.48-2.32.97-.96 2.35-1.47 1.39-.5 3.12-.5 1.39 0 2.58.37l-.1 2.41q-.02.28-.16.44-.13.17-.36.26-.22.08-.51.11-.3.03-.63.03-.86 0-1.53.19-.67.18-1.14.64t-.71 1.21q-.25.75-.25 1.86v1.33h5.21v3.43h-5.05zm12.01-18.8.29 2.26q.94-1.79 2.23-2.81 1.28-1.03 3.04-1.03 1.38 0 2.22.61l-.31 3.6q-.1.36-.28.5-.19.15-.5.15-.29 0-.87-.1-.57-.1-1.12-.1-.8 0-1.42.24-.63.23-1.12.67-.5.44-.88 1.06-.38.63-.71 1.43v12.32h-4.82v-20.01h2.83q.74 0 1.03.27.29.26.39.94m14.1 6.5h9.09q0-.94-.27-1.77-.26-.83-.79-1.45-.52-.63-1.33-.99t-1.88-.36q-2.09 0-3.29 1.19t-1.53 3.38m12.29 2.9h-12.39q.12 1.54.55 2.66t1.13 1.86q.7.73 1.67 1.09.96.36 2.13.36t2.02-.28q.85-.27 1.48-.6.64-.33 1.11-.6.48-.28.93-.28.61 0 .9.45l1.38 1.76q-.8.93-1.79 1.57-1 .63-2.08 1.01t-2.2.54q-1.12.15-2.18.15-2.08 0-3.88-.69-1.79-.69-3.12-2.05-1.32-1.35-2.08-3.35t-.76-4.63q0-2.05.66-3.85.66-1.81 1.9-3.14 1.24-1.34 3.02-2.12 1.79-.78 4.03-.78 1.89 0 3.49.61 1.6.6 2.75 1.76t1.8 2.85q.66 1.68.66 3.85 0 1.09-.24 1.47-.23.38-.89.38m18.03-8.44-1.09 1.73q-.19.32-.41.44-.21.13-.54.13-.36 0-.76-.2-.39-.19-.92-.44-.53-.24-1.2-.43-.67-.2-1.59-.2-1.42 0-2.23.61-.81.6-.81 1.57 0 .65.42 1.09t1.11.77 1.57.59q.88.27 1.78.58.91.31 1.79.71.87.4 1.57 1.01.69.62 1.11 1.48.42.85.42 2.06 0 1.45-.52 2.66-.52 1.22-1.53 2.11t-2.51 1.38q-1.49.5-3.44.5-1.03 0-2.02-.18-.98-.19-1.89-.52-.9-.33-1.67-.78t-1.36-.98l1.11-1.83q.22-.33.51-.51.29-.17.74-.17t.85.25q.4.26.92.55.53.29 1.24.55.71.25 1.81.25.85 0 1.47-.21.61-.2 1.01-.53t.59-.77q.18-.44.18-.91 0-.7-.42-1.15t-1.11-.78-1.58-.59q-.88-.27-1.81-.58t-1.81-.73q-.89-.42-1.58-1.06-.7-.65-1.12-1.58-.41-.94-.41-2.27 0-1.22.48-2.34.49-1.11 1.44-1.94.94-.82 2.36-1.32 1.41-.5 3.26-.5 2.07 0 3.77.68 1.69.69 2.82 1.8m8.66-11.14v11.12q1.17-1.09 2.58-1.78 1.4-.68 3.29-.68 1.64 0 2.91.56 1.26.55 2.11 1.56.85 1 1.29 2.4.44 1.39.44 3.07v12.73h-4.82v-12.73q0-1.84-.84-2.84t-2.55-1q-1.25 0-2.34.56-1.09.57-2.07 1.54v14.47h-4.82v-28.98zm17.02 19.21v-4.02h10.11v4.02zm25.28 4.6v-3.37q-2.09.1-3.51.36-1.43.26-2.29.67-.85.41-1.22.96-.37.54-.37 1.19 0 1.27.75 1.81.75.55 1.96.55 1.48 0 2.56-.54t2.12-1.63m-10.18-10.51-.86-1.54q3.45-3.16 8.31-3.16 1.75 0 3.14.58 1.38.57 2.34 1.6.95 1.02 1.45 2.44.5 1.43.5 3.12v12.64h-2.19q-.68 0-1.05-.2-.37-.21-.59-.83l-.43-1.45q-.76.69-1.48 1.2-.72.52-1.5.87t-1.67.54q-.88.18-1.96.18-1.26 0-2.34-.34-1.07-.34-1.85-1.02-.78-.69-1.21-1.7t-.43-2.36q0-.76.26-1.51.25-.75.83-1.43.57-.69 1.49-1.29.91-.61 2.25-1.05 1.34-.45 3.11-.73 1.77-.29 4.06-.35v-1.17q0-2-.86-2.97-.86-.96-2.48-.96-1.17 0-1.94.27t-1.35.61q-.59.34-1.07.62-.47.27-1.06.27-.51 0-.86-.26-.35-.27-.56-.62m19.56-4.33h4.83v20.01h-4.83zm5.5-5.83q0 .63-.26 1.17-.25.55-.67.96t-.99.65q-.56.24-1.2.24-.63 0-1.18-.24-.56-.24-.97-.65t-.65-.96q-.25-.54-.25-1.17 0-.64.25-1.21.24-.56.65-.97t.97-.65q.55-.25 1.18-.25.64 0 1.2.25.57.24.99.65t.67.97q.26.57.26 1.21m8.5 7.04.29 2.26q.94-1.79 2.22-2.81 1.29-1.03 3.04-1.03 1.39 0 2.23.61l-.31 3.6q-.1.36-.29.5-.18.15-.49.15-.3 0-.87-.1-.58-.1-1.12-.1-.8 0-1.43.24-.62.23-1.12.67t-.88 1.06q-.38.63-.71 1.43v12.32h-4.81v-20.01h2.82q.74 0 1.04.27.29.26.39.94"/></svg>