<svg xmlns="http://www.w3.org/2000/svg" width="400" height="400" viewBox="0 0 400 400"><rect width="100%" height="100%" fill="#1e293b"/><path fill="#ffffff" d="M95.81 163.975v27.36q2.88-2.69 6.34-4.37 3.45-1.68 8.11-1.68 4.03 0 7.15 1.37t5.21 3.84 3.17 5.91q1.08 3.43 1.08 7.56v31.34h-11.86v-31.34q0-4.52-2.06-6.99-2.07-2.47-6.29-2.47-3.07 0-5.76 1.39t-5.09 3.79v35.62H83.96v-71.33zm64.08 21.31q5.47 0 9.96 1.78t7.68 5.04 4.92 7.97q1.73 4.7 1.73 10.51 0 5.86-1.73 10.56t-4.92 8.02q-3.19 3.31-7.68 5.08-4.49 1.78-9.96 1.78-5.52 0-10.03-1.78-4.51-1.77-7.7-5.08-3.2-3.32-4.95-8.02t-1.75-10.56q0-5.81 1.75-10.51 1.75-4.71 4.95-7.97 3.19-3.26 7.7-5.04t10.03-1.78m0 41.62q6.15 0 9.1-4.13t2.95-12.09q0-7.97-2.95-12.15-2.95-4.17-9.1-4.17-6.24 0-9.24 4.2t-3 12.12 3 12.07 9.24 4.15m45.22 8.4h-11.86v-49.25h7.25q2.3 0 3.02 2.16l.77 3.65q1.3-1.44 2.71-2.64 1.42-1.2 3.03-2.06 1.61-.87 3.45-1.37 1.85-.51 4.06-.51 4.66 0 7.66 2.52t4.48 6.7q1.16-2.45 2.88-4.2 1.73-1.75 3.8-2.86 2.06-1.1 4.39-1.63t4.68-.53q4.08 0 7.25 1.25 3.16 1.25 5.32 3.65t3.29 5.86q1.13 3.45 1.13 7.92v31.34h-11.86v-31.34q0-4.71-2.06-7.08-2.06-2.38-6.05-2.38-1.82 0-3.38.62-1.56.63-2.74 1.8-1.17 1.18-1.85 2.96-.67 1.77-.67 4.08v31.34h-11.9v-31.34q0-4.95-1.99-7.2-2-2.26-5.84-2.26-2.59 0-4.82 1.27t-4.15 3.48zm77.9-30.29h22.37q0-2.3-.65-4.34t-1.94-3.58q-1.3-1.53-3.29-2.42t-4.63-.89q-5.14 0-8.09 2.93t-3.77 8.3m30.24 7.15h-30.48q.29 3.8 1.35 6.56 1.05 2.76 2.78 4.56t4.1 2.68q2.38.89 5.26.89t4.97-.67 3.65-1.49q1.56-.81 2.73-1.49 1.18-.67 2.28-.67 1.49 0 2.21 1.11l3.41 4.32q-1.97 2.3-4.42 3.86t-5.11 2.5q-2.66.93-5.42 1.32-2.76.38-5.36.38-5.13 0-9.55-1.7-4.41-1.71-7.68-5.04-3.26-3.34-5.13-8.26-1.88-4.92-1.88-11.4 0-5.04 1.64-9.48 1.63-4.44 4.68-7.73 3.04-3.29 7.44-5.21 4.39-1.92 9.91-1.92 4.65 0 8.59 1.49t6.77 4.35q2.83 2.85 4.44 7 1.61 4.16 1.61 9.48 0 2.69-.58 3.63-.58.93-2.21.93"/></svg>