<svg xmlns="http://www.w3.org/2000/svg" width="400" height="400" viewBox="0 0 400 400"><rect width="100%" height="100%" fill="#1e293b"/><path fill="#ffffff" d="M83.26 187.215h6.82v28.21h-6.82zm7.76-8.23q0 .88-.36 1.65t-.95 1.35-1.39.92q-.79.35-1.7.35-.88 0-1.67-.35-.78-.34-1.36-.92-.57-.58-.92-1.35-.34-.77-.34-1.65 0-.9.34-1.7.35-.8.92-1.38.58-.57 1.36-.92.79-.34 1.67-.34.91 0 1.7.34.8.35 1.39.92.59.58.95 1.38t.36 1.7m11.88 9.46.47 2.23q.85-.85 1.8-1.58t2-1.24q1.06-.51 2.27-.8t2.64-.29q2.31 0 4.1.79 1.79.78 2.98 2.2 1.2 1.42 1.82 3.38.62 1.97.62 4.33v17.96h-6.79v-17.96q0-2.58-1.19-4-1.18-1.42-3.6-1.42-1.76 0-3.3.8t-2.91 2.17v20.41h-6.8v-28.21h4.16q1.32 0 1.73 1.23m43.89 1.82-1.54 2.45q-.28.44-.58.61-.3.18-.77.18-.49 0-1.06-.27-.56-.28-1.3-.62-.75-.35-1.7-.62-.94-.28-2.24-.28-2 0-3.15.86-1.14.85-1.14 2.22 0 .91.59 1.53.6.62 1.57 1.09.98.46 2.22.84 1.23.37 2.51.81t2.52 1q1.24.57 2.21 1.43.98.87 1.57 2.08t.59 2.91q0 2.04-.73 3.76t-2.16 2.97-3.53 1.95-4.85.7q-1.46 0-2.85-.26t-2.67-.73-2.36-1.1q-1.09-.63-1.91-1.37l1.56-2.59q.31-.47.72-.72.41-.24 1.04-.24.64 0 1.2.36.56.35 1.31.76.74.42 1.74.78 1.01.35 2.55.35 1.21 0 2.07-.29.87-.29 1.43-.75.57-.47.83-1.09t.26-1.28q0-.99-.59-1.62t-1.57-1.1-2.23-.84-2.56-.81q-1.3-.44-2.55-1.03t-2.23-1.5-1.57-2.23-.59-3.19q0-1.73.69-3.3.69-1.56 2.02-2.73t3.33-1.87q1.99-.71 4.6-.71 2.92 0 5.31.97 2.39.96 3.99 2.53m14.82 25.6q-3.68 0-5.65-2.08-1.97-2.07-1.97-5.73v-15.76h-2.88q-.55 0-.94-.35-.38-.36-.38-1.08v-2.69l4.53-.75 1.43-7.7q.14-.54.53-.85.38-.3.99-.3h3.52v8.88h7.53v4.84h-7.53v15.29q0 1.32.64 2.06.65.75 1.78.75.63 0 1.05-.15.43-.15.75-.32.31-.17.56-.32t.5-.15q.3 0 .49.15t.41.46l2.04 3.3q-1.49 1.24-3.41 1.87-1.93.63-3.99.63m25.96-7.73v-4.75q-2.94.13-4.95.5t-3.22.95-1.73 1.35-.52 1.68q0 1.78 1.06 2.56 1.06.76 2.76.76 2.09 0 3.62-.75 1.52-.76 2.98-2.3m-14.35-14.82-1.21-2.17q4.86-4.46 11.71-4.46 2.48 0 4.43.81 1.95.82 3.3 2.26t2.05 3.45.7 4.4v17.82h-3.08q-.96 0-1.49-.29-.52-.29-.82-1.17l-.61-2.03q-1.07.96-2.09 1.69-1.01.73-2.11 1.22-1.1.5-2.36.76-1.25.26-2.76.26-1.79 0-3.3-.48t-2.61-1.45q-1.1-.96-1.71-2.39-.6-1.43-.6-3.33 0-1.07.36-2.13.35-1.05 1.16-2.02.82-.96 2.11-1.81 1.29-.86 3.17-1.49 1.89-.63 4.39-1.03t5.72-.48v-1.65q0-2.83-1.21-4.19-1.21-1.37-3.49-1.37-1.65 0-2.74.39-1.08.38-1.91.87-.82.48-1.5.86-.67.39-1.5.39-.71 0-1.21-.37-.49-.37-.79-.87m37.67 7.32q1.27 0 2.2-.35.94-.34 1.55-.95.62-.6.94-1.46.32-.85.32-1.86 0-2.09-1.26-3.32-1.25-1.22-3.75-1.22t-3.75 1.22q-1.25 1.23-1.25 3.32 0 .98.31 1.84.32.85.94 1.47t1.56.96q.95.35 2.19.35m7.67 16.05q0-.82-.49-1.34-.5-.52-1.35-.81t-1.99-.43-2.42-.21q-1.28-.06-2.64-.12t-2.66-.22q-1.12.63-1.83 1.48-.7.86-.7 1.98 0 .75.37 1.39.38.65 1.19 1.12t2.1.73 3.16.26q1.9 0 3.28-.29 1.37-.29 2.26-.8.9-.51 1.31-1.21t.41-1.53m-1.34-28.51h8.11v2.53q0 1.21-1.46 1.48l-2.53.47q.58 1.46.58 3.19 0 2.09-.84 3.78t-2.32 2.87q-1.49 1.19-3.51 1.83-2.02.65-4.36.65-.82 0-1.59-.08-.77-.09-1.52-.22-1.32.79-1.32 1.79 0 .85.79 1.25.78.39 2.07.56 1.3.16 2.95.21 1.65.04 3.38.18 1.73.13 3.38.48 1.65.34 2.94 1.08 1.3.74 2.08 2.02t.78 3.29q0 1.87-.92 3.63t-2.67 3.14q-1.74 1.37-4.29 2.21-2.54.84-5.78.84-3.19 0-5.56-.62-2.36-.62-3.93-1.65t-2.34-2.38-.77-2.8q0-1.99 1.2-3.32 1.19-1.33 3.28-2.13-1.12-.58-1.78-1.54t-.66-2.53q0-.63.23-1.31.23-.67.69-1.33.45-.66 1.14-1.25t1.62-1.06q-2.14-1.15-3.37-3.08-1.22-1.93-1.22-4.51 0-2.09.84-3.78t2.33-2.89q1.5-1.2 3.55-1.83t4.47-.63q1.82 0 3.41.37 1.6.37 2.92 1.09m18.39.74.42 3.19q1.32-2.53 3.13-3.97 1.82-1.45 4.29-1.45 1.95 0 3.14.85l-.44 5.09q-.14.5-.4.7-.26.21-.7.21-.42 0-1.23-.14-.81-.13-1.58-.13-1.13 0-2.01.32-.88.34-1.58.95-.7.62-1.24 1.5-.53.88-1 2.01v17.38h-6.79v-28.21h3.99q1.04 0 1.45.37.42.37.55 1.33m29.43 19.22v-4.75q-2.94.13-4.95.5t-3.22.95-1.73 1.35-.52 1.68q0 1.78 1.05 2.56 1.06.76 2.77.76 2.09 0 3.61-.75 1.53-.76 2.99-2.3m-14.36-14.82-1.21-2.17q4.87-4.46 11.72-4.46 2.47 0 4.43.81 1.95.82 3.3 2.26 1.34 1.44 2.04 3.45.71 2.01.71 4.4v17.82h-3.08q-.97 0-1.49-.29t-.82-1.17l-.61-2.03q-1.07.96-2.09 1.69t-2.12 1.22q-1.1.5-2.35.76t-2.76.26q-1.79 0-3.3-.48t-2.61-1.45q-1.1-.96-1.71-2.39-.6-1.43-.6-3.33 0-1.07.35-2.13.36-1.05 1.17-2.02.81-.96 2.11-1.81 1.29-.86 3.17-1.49 1.89-.63 4.39-1.03t5.72-.48v-1.65q0-2.83-1.21-4.19-1.21-1.37-3.49-1.37-1.65 0-2.74.39-1.09.38-1.91.87-.83.48-1.5.86-.67.39-1.5.39-.71 0-1.21-.37-.49-.37-.8-.87m34.16 22.11h-6.79v-28.21h4.15q1.32 0 1.73 1.23l.44 2.09q.74-.82 1.55-1.51.82-.69 1.74-1.18.92-.5 1.98-.79t2.32-.29q2.67 0 4.39 1.45 1.72 1.44 2.57 3.83.66-1.4 1.65-2.4.99-1.01 2.17-1.64t2.52-.93q1.33-.31 2.68-.31 2.34 0 4.15.72 1.82.71 3.05 2.09 1.24 1.37 1.89 3.35.64 1.98.64 4.54v17.96h-6.79v-17.96q0-2.69-1.18-4.05-1.18-1.37-3.47-1.37-1.04 0-1.94.36-.89.36-1.56 1.03-.68.68-1.06 1.69-.39 1.02-.39 2.34v17.96h-6.82v-17.96q0-2.83-1.14-4.12-1.14-1.3-3.34-1.3-1.48 0-2.76.73t-2.38 2z"/></svg>