<svg xmlns="http://www.w3.org/2000/svg" width="400" height="400" viewBox="0 0 400 400"><rect width="100%" height="100%" fill="#1e293b"/><path fill="#ffffff" d="M81.665 173.22h7.16v43.09h-7.16zm14.56 13.34h7.19v29.75h-7.19zm8.18-8.68q0 .93-.38 1.74-.38.82-1 1.43-.62.6-1.47.97-.84.36-1.79.36-.93 0-1.76-.36-.82-.37-1.43-.97-.61-.61-.98-1.43-.36-.81-.36-1.74 0-.95.36-1.79.37-.84.98-1.45t1.43-.97q.83-.37 1.76-.37.95 0 1.79.37.85.36 1.47.97t1 1.45.38 1.79m6.41-4.66h7.16v43.09h-7.16zm14.55 13.34h7.2v29.75h-7.2zm8.18-8.68q0 .93-.38 1.74-.37.82-1 1.43-.62.6-1.46.97-.84.36-1.8.36-.93 0-1.75-.36-.83-.37-1.44-.97-.61-.61-.97-1.43-.36-.81-.36-1.74 0-.95.36-1.79t.97-1.45 1.44-.97q.82-.37 1.75-.37.96 0 1.8.37.84.36 1.46.97.63.61 1 1.45.38.84.38 1.79m11.98 20.13h13.51q0-1.39-.39-2.62-.39-1.24-1.17-2.16-.79-.93-1.99-1.47t-2.8-.54q-3.1 0-4.89 1.77-1.78 1.77-2.27 5.02m18.27 4.32h-18.42q.18 2.29.82 3.96.63 1.67 1.68 2.76 1.04 1.08 2.48 1.62 1.43.54 3.17.54t3-.41q1.27-.41 2.21-.9t1.65-.9q.71-.4 1.38-.4.9 0 1.33.66l2.06 2.61q-1.19 1.39-2.67 2.34-1.48.94-3.09 1.51-1.6.56-3.27.79t-3.24.23q-3.1 0-5.77-1.02-2.66-1.03-4.64-3.05-1.97-2.02-3.1-4.99t-1.13-6.89q0-3.04.99-5.72.98-2.69 2.82-4.67 1.84-1.99 4.5-3.15 2.65-1.16 5.99-1.16 2.81 0 5.19.9t4.09 2.63q1.71 1.72 2.68 4.23t.97 5.73q0 1.62-.35 2.19-.35.56-1.33.56m15.98 7.54h16.76v6.44h-24.56v-41.93h7.8zm34.36-23.78q3.31 0 6.02 1.07 2.71 1.08 4.64 3.05t2.97 4.81q1.05 2.85 1.05 6.35 0 3.54-1.05 6.39-1.04 2.84-2.97 4.84t-4.64 3.07-6.02 1.07q-3.33 0-6.06-1.07-2.72-1.07-4.65-3.07t-2.99-4.84q-1.06-2.85-1.06-6.39 0-3.5 1.06-6.35 1.06-2.84 2.99-4.81t4.65-3.05q2.73-1.07 6.06-1.07m0 25.14q3.71 0 5.5-2.49 1.78-2.49 1.78-7.31 0-4.81-1.78-7.33-1.79-2.53-5.5-2.53-3.77 0-5.58 2.54t-1.81 7.32q0 4.79 1.81 7.3 1.81 2.5 5.58 2.5m31.03-10.52q1.34 0 2.32-.36.99-.37 1.64-1 .65-.64.99-1.54.33-.9.33-1.97 0-2.21-1.32-3.5t-3.96-1.29-3.96 1.29-1.32 3.5q0 1.04.34 1.94.33.9.98 1.55.66.65 1.66 1.02 1 .36 2.3.36m8.09 16.93q0-.87-.52-1.42t-1.42-.85q-.9-.31-2.1-.45-1.21-.15-2.55-.22-1.35-.07-2.79-.13-1.43-.06-2.8-.23-1.19.66-1.93 1.56-.73.9-.73 2.09 0 .79.39 1.47t1.24 1.17q.86.49 2.22.77 1.37.28 3.34.28 2 0 3.45-.31 1.45-.3 2.39-.84t1.38-1.28q.43-.74.43-1.61m-1.42-30.07h8.56v2.67q0 1.27-1.54 1.56l-2.67.5q.61 1.53.61 3.36 0 2.21-.88 3.99-.89 1.78-2.45 3.03-1.57 1.25-3.7 1.93t-4.6.68q-.87 0-1.68-.09-.81-.08-1.59-.23-1.4.84-1.4 1.89 0 .9.83 1.32t2.19.59 3.1.22q1.74.04 3.57.19 1.83.14 3.57.5 1.74.37 3.1 1.15t2.19 2.13.83 3.47q0 1.97-.98 3.82-.97 1.86-2.81 3.31t-4.52 2.33q-2.69.89-6.11.89-3.36 0-5.86-.65-2.49-.66-4.14-1.74-1.66-1.09-2.47-2.51t-.81-2.96q0-2.09 1.26-3.49 1.26-1.41 3.47-2.25-1.19-.61-1.89-1.63-.69-1.01-.69-2.66 0-.67.24-1.38.25-.71.73-1.41.48-.69 1.2-1.32.73-.62 1.71-1.11-2.26-1.22-3.55-3.25t-1.29-4.76q0-2.2.88-3.99.89-1.78 2.47-3.04t3.74-1.93 4.71-.67q1.92 0 3.6.4 1.68.39 3.07 1.14m26.25-1.48q3.3 0 6.01 1.07 2.72 1.08 4.64 3.05 1.93 1.97 2.98 4.81 1.04 2.85 1.04 6.35 0 3.54-1.04 6.39-1.05 2.84-2.98 4.84-1.92 2-4.64 3.07-2.71 1.07-6.01 1.07-3.34 0-6.06-1.07-2.73-1.07-4.66-3.07t-2.99-4.84q-1.05-2.85-1.05-6.39 0-3.5 1.05-6.35 1.06-2.84 2.99-4.81t4.66-3.05q2.72-1.07 6.06-1.07m0 25.14q3.71 0 5.49-2.49 1.79-2.49 1.79-7.31 0-4.81-1.79-7.33-1.78-2.53-5.49-2.53-3.77 0-5.59 2.54-1.81 2.54-1.81 7.32 0 4.79 1.81 7.3 1.82 2.5 5.59 2.5m39.93-21.46-1.62 2.59q-.29.46-.61.65t-.81.19q-.53 0-1.12-.29-.6-.29-1.38-.66-.78-.36-1.78-.65t-2.37-.29q-2.11 0-3.32.9-1.2.9-1.2 2.35 0 .96.62 1.61.63.65 1.66 1.14 1.03.5 2.33.89 1.31.39 2.65.85 1.35.47 2.66 1.06 1.3.6 2.33 1.51t1.66 2.19q.62 1.28.62 3.07 0 2.15-.77 3.96-.77 1.82-2.28 3.14-1.5 1.31-3.72 2.05t-5.12.74q-1.54 0-3-.27-1.47-.28-2.82-.77-1.34-.49-2.49-1.16-1.14-.67-2.01-1.45l1.65-2.73q.32-.49.75-.75.44-.26 1.1-.26.67 0 1.27.38.59.37 1.37.81.79.43 1.84.81 1.06.38 2.69.38 1.27 0 2.19-.31.91-.3 1.5-.8.6-.49.87-1.14.28-.65.28-1.35 0-1.04-.62-1.71-.63-.67-1.66-1.16t-2.35-.88q-1.31-.4-2.69-.86t-2.7-1.09q-1.32-.62-2.35-1.58t-1.65-2.35-.62-3.36q0-1.83.72-3.48.73-1.65 2.13-2.89 1.41-1.23 3.51-1.97t4.86-.74q3.07 0 5.6 1.02 2.52 1.01 4.2 2.66"/></svg>