<svg xmlns="http://www.w3.org/2000/svg" width="400" height="400" viewBox="0 0 400 400"><rect width="100%" height="100%" fill="#1e293b"/><path fill="#ffffff" d="M82.635 174.105h8.52v51.27h-8.52zm17.31 15.87h8.56v35.4h-8.56zm9.73-10.31q0 1.1-.45 2.07-.44.96-1.19 1.69-.74.72-1.74 1.15t-2.14.43q-1.1 0-2.08-.43-.99-.43-1.71-1.15-.73-.73-1.16-1.69-.43-.97-.43-2.07 0-1.14.43-2.14t1.16-1.73q.72-.72 1.71-1.15.98-.43 2.08-.43 1.14 0 2.14.43t1.74 1.15q.75.73 1.19 1.73.45 1 .45 2.14m14.91 11.87.58 2.79q1.07-1.07 2.26-1.98 1.19-.92 2.52-1.56 1.33-.63 2.85-1 1.52-.36 3.31-.36 2.9 0 5.14.98 2.24.99 3.74 2.76 1.5 1.78 2.28 4.25.78 2.46.78 5.43v22.53h-8.52v-22.53q0-3.24-1.49-5.02-1.48-1.78-4.52-1.78-2.21 0-4.14 1.01-1.93 1-3.65 2.72v25.6h-8.53v-35.4h5.21q1.66 0 2.18 1.56m31.53-17.43h8.52v29.36h1.59q.86 0 1.36-.22.5-.23 1.02-.92l8.8-10.86q.55-.73 1.22-1.11t1.74-.38h7.8l-11 13.15q-1.18 1.55-2.56 2.38.73.52 1.3 1.21t1.08 1.48l11.8 17.18h-7.69q-1 0-1.73-.33-.72-.33-1.2-1.19l-9.04-13.42q-.49-.79-1-1.03-.52-.24-1.56-.24h-1.93v16.21h-8.52zm43.61 29.5h16.08q0-1.66-.47-3.12-.47-1.47-1.4-2.57-.93-1.11-2.36-1.74-1.43-.64-3.33-.64-3.69 0-5.81 2.1-2.13 2.11-2.71 5.97m21.73 5.14h-21.9q.2 2.73.96 4.71t2 3.28q1.24 1.29 2.95 1.93t3.78.64 3.57-.49q1.5-.48 2.62-1.06 1.12-.59 1.97-1.07.84-.49 1.64-.49 1.07 0 1.59.8l2.44 3.1q-1.41 1.66-3.17 2.78t-3.67 1.79q-1.92.68-3.9.95-1.99.28-3.85.28-3.69 0-6.86-1.23-3.18-1.22-5.52-3.62-2.35-2.4-3.7-5.93-1.34-3.54-1.34-8.2 0-3.62 1.17-6.81t3.37-5.56q2.19-2.36 5.34-3.74 3.16-1.38 7.13-1.38 3.34 0 6.17 1.07t4.87 3.12q2.03 2.06 3.19 5.04 1.15 2.98 1.15 6.81 0 1.94-.41 2.61t-1.59.67m30.6 6.14v-15.87q-1.44-1.76-3.15-2.48-1.71-.73-3.68-.73-1.93 0-3.48.73-1.55.72-2.66 2.19-1.1 1.46-1.69 3.72-.58 2.26-.58 5.33 0 3.11.5 5.27.5 2.15 1.43 3.52.93 1.36 2.27 1.96 1.35.61 3.01.61 2.65 0 4.52-1.11 1.86-1.1 3.51-3.14m0-40.78h8.53v51.27h-5.21q-1.69 0-2.14-1.55l-.73-3.42q-2.14 2.45-4.91 3.97-2.78 1.52-6.47 1.52-2.9 0-5.31-1.21-2.42-1.21-4.16-3.5-1.74-2.3-2.69-5.68t-.95-7.73q0-3.93 1.07-7.31t3.07-5.86q2-2.49 4.79-3.89 2.8-1.39 6.28-1.39 2.97 0 5.07.93 2.11.93 3.76 2.52zm17.22 15.87h8.56v35.4h-8.56zm9.73-10.31q0 1.1-.45 2.07-.45.96-1.19 1.69-.74.72-1.74 1.15t-2.14.43q-1.1 0-2.09-.43-.98-.43-1.71-1.15-.72-.73-1.15-1.69-.43-.97-.43-2.07 0-1.14.43-2.14t1.15-1.73q.73-.72 1.71-1.15.99-.43 2.09-.43 1.14 0 2.14.43t1.74 1.15q.74.73 1.19 1.73t.45 2.14m14.9 11.87.59 2.79q1.07-1.07 2.26-1.98 1.19-.92 2.52-1.56 1.33-.63 2.84-1 1.52-.36 3.32-.36 2.89 0 5.14.98 2.24.99 3.74 2.76 1.5 1.78 2.28 4.25.77 2.46.77 5.43v22.53h-8.52v-22.53q0-3.24-1.48-5.02-1.49-1.78-4.52-1.78-2.21 0-4.14 1.01-1.93 1-3.66 2.72v25.6h-8.52v-35.4h5.21q1.66 0 2.17 1.56"/></svg>