<svg xmlns="http://www.w3.org/2000/svg" width="400" height="400" viewBox="0 0 400 400"><rect width="100%" height="100%" fill="#1e293b"/><path fill="#ffffff" d="M89.385 215.54h-6.67v-27.7h4.07q1.3 0 1.71 1.21l.43 2.06q.73-.82 1.52-1.49.8-.67 1.7-1.16.91-.49 1.95-.77t2.28-.28q2.62 0 4.31 1.41 1.68 1.42 2.52 3.77.65-1.38 1.62-2.36.97-.99 2.13-1.61t2.47-.92q1.31-.29 2.64-.29 2.29 0 4.07.7 1.79.7 3 2.05 1.22 1.35 1.85 3.29.63 1.95.63 4.46v17.63h-6.66v-17.63q0-2.65-1.17-3.98-1.16-1.34-3.4-1.34-1.02 0-1.9.35t-1.54 1.01-1.04 1.66-.38 2.3v17.63h-6.69v-17.63q0-2.78-1.12-4.05t-3.28-1.27q-1.46 0-2.72.72-1.25.71-2.33 1.95zm53.19-7.16v-4.67q-2.89.14-4.86.5-1.97.37-3.16.94-1.19.56-1.7 1.32-.52.75-.52 1.65 0 1.75 1.04 2.51 1.04.75 2.72.75 2.05 0 3.55-.74t2.93-2.26m-14.1-14.55-1.19-2.13q4.78-4.37 11.51-4.37 2.43 0 4.34.79 1.92.8 3.24 2.22 1.33 1.41 2.01 3.38.69 1.98.69 4.32v17.5h-3.02q-.95 0-1.46-.28-.51-.29-.81-1.15l-.59-2q-1.06.95-2.05 1.66-1 .72-2.08 1.2-1.08.49-2.31.75-1.23.25-2.72.25-1.75 0-3.24-.47-1.48-.47-2.56-1.42-1.08-.94-1.67-2.35-.6-1.4-.6-3.26 0-1.06.35-2.1t1.15-1.98q.8-.95 2.07-1.78 1.26-.84 3.11-1.46t4.31-1.01 5.62-.48v-1.62q0-2.78-1.19-4.11-1.19-1.34-3.43-1.34-1.62 0-2.69.38-1.06.38-1.87.85t-1.48.85q-.66.38-1.47.38-.7 0-1.18-.37-.49-.36-.79-.85m27.08-5.99h6.7v27.7h-6.7zm7.62-8.07q0 .86-.35 1.61-.35.76-.94 1.33-.58.56-1.36.9t-1.67.34q-.87 0-1.64-.34t-1.33-.9q-.57-.57-.91-1.33-.33-.75-.33-1.61 0-.9.33-1.68.34-.78.91-1.35.56-.57 1.33-.9.77-.34 1.64-.34.89 0 1.67.34.78.33 1.36.9.59.57.94 1.35t.35 1.68m5.96-4.35h6.67v40.12h-6.67zm13.13 26.59v-5.56h13.98v5.56zm32.61-14.6q3.08 0 5.6 1 2.53.99 4.32 2.83 1.8 1.84 2.77 4.48.97 2.65.97 5.92 0 3.29-.97 5.94-.97 2.64-2.77 4.5-1.79 1.87-4.32 2.87-2.52.99-5.6.99-3.1 0-5.64-.99-2.54-1-4.33-2.87-1.8-1.86-2.79-4.5-.98-2.65-.98-5.94 0-3.27.98-5.92.99-2.64 2.79-4.48 1.79-1.84 4.33-2.83 2.54-1 5.64-1m0 23.41q3.46 0 5.12-2.33 1.66-2.32 1.66-6.8t-1.66-6.83-5.12-2.35q-3.51 0-5.2 2.36-1.68 2.36-1.68 6.82 0 4.45 1.68 6.79 1.69 2.34 5.2 2.34m25.44-14.88v12.42q1.13 1.38 2.47 1.94 1.33.57 2.9.57 1.51 0 2.73-.57 1.21-.56 2.06-1.73.85-1.16 1.31-2.93.46-1.76.46-4.17 0-2.43-.39-4.11-.39-1.69-1.12-2.75-.73-1.05-1.77-1.53-1.04-.49-2.36-.49-2.08 0-3.54.88-1.46.87-2.75 2.47m-.89-6.89.54 2.57q1.7-1.92 3.86-3.11 2.16-1.18 5.07-1.18 2.27 0 4.15.94 1.87.95 3.24 2.74 1.36 1.8 2.1 4.43.75 2.63.75 6.03 0 3.11-.84 5.75-.84 2.65-2.39 4.59-1.55 1.95-3.75 3.04t-4.93 1.09q-2.32 0-3.97-.71-1.65-.72-2.94-1.98v11.33h-6.67v-36.74h4.07q1.3 0 1.71 1.21m30.15 9.45h12.59q0-1.29-.37-2.44-.36-1.15-1.09-2.01-.73-.87-1.85-1.37t-2.61-.5q-2.89 0-4.55 1.65t-2.12 4.67m17.01 4.03h-17.14q.16 2.13.76 3.68.59 1.55 1.56 2.57.97 1.01 2.31 1.51t2.96.5 2.79-.38q1.18-.38 2.05-.84.88-.46 1.54-.83.66-.38 1.28-.38.84 0 1.25.62l1.91 2.43q-1.1 1.3-2.48 2.17-1.38.88-2.88 1.41-1.49.52-3.05.74-1.55.21-3.01.21-2.89 0-5.37-.95-2.48-.96-4.32-2.84-1.84-1.87-2.89-4.64t-1.05-6.42q0-2.83.92-5.33.91-2.49 2.63-4.34 1.71-1.85 4.18-2.93t5.58-1.08q2.62 0 4.83.83 2.22.84 3.81 2.45 1.59 1.6 2.5 3.94.9 2.33.9 5.33 0 1.51-.32 2.04-.33.53-1.25.53m12.34-13.48.46 2.19q.84-.84 1.77-1.55.93-.72 1.97-1.22t2.23-.78 2.59-.28q2.27 0 4.02.77 1.76.77 2.93 2.16 1.18 1.39 1.79 3.32.6 1.93.6 4.25v17.63h-6.67v-17.63q0-2.54-1.16-3.93t-3.53-1.39q-1.73 0-3.24.78-1.52.79-2.87 2.14v20.03h-6.66v-27.7h4.07q1.3 0 1.7 1.21"/></svg>