<svg xmlns="http://www.w3.org/2000/svg" width="400" height="400" viewBox="0 0 400 400"><rect width="100%" height="100%" fill="#1e293b"/><path fill="#ffffff" d="M126.53 167.825h10.54v64.35h-6.14q-1.42 0-2.38-.47-.95-.46-1.84-1.58l-33.6-42.9q.27 2.94.27 5.43v39.52H82.83v-64.35h6.27q.76 0 1.32.07.55.07.97.27.43.2.83.58.4.37.89 1l33.73 43.07q-.13-1.55-.22-3.07-.09-1.51-.09-2.8zm38.4 40.05h20.47l-7.83-21.4q-.58-1.43-1.2-3.38-.63-1.96-1.25-4.23-.58 2.27-1.2 4.25t-1.2 3.45zm16.33-40.05 25.28 64.35h-9.26q-1.55 0-2.53-.78t-1.47-1.93l-4.81-13.13h-26.65l-4.81 13.13q-.36 1.02-1.38 1.86-1.02.85-2.54.85h-9.34l25.32-64.35zm69.2 6.06-2.98 5.65q-.54.93-1.14 1.35-.6.43-1.49.43-.93 0-2.02-.69t-2.6-1.54q-1.52-.84-3.54-1.53-2.03-.69-4.79-.69-2.49 0-4.36.6t-3.13 1.67q-1.27 1.06-1.9 2.55-.62 1.5-.62 3.28 0 2.26 1.27 3.78 1.27 1.51 3.36 2.58t4.76 1.91q2.67.85 5.47 1.8 2.81.96 5.48 2.23t4.76 3.2q2.09 1.94 3.36 4.74 1.27 2.81 1.27 6.81 0 4.36-1.49 8.17-1.49 3.8-4.36 6.63-2.87 2.82-7.01 4.45-4.14 1.62-9.48 1.62-3.07 0-6.05-.6-2.99-.6-5.72-1.71-2.74-1.11-5.14-2.67t-4.27-3.47l3.51-5.74q.45-.63 1.16-1.05t1.51-.42q1.11 0 2.4.91 1.3.91 3.08 2.03 1.78 1.11 4.16 2.02t5.71.91q5.12 0 7.93-2.42 2.8-2.43 2.8-6.97 0-2.53-1.27-4.14-1.27-1.6-3.36-2.69t-4.76-1.84q-2.67-.76-5.43-1.65t-5.43-2.14q-2.67-1.24-4.76-3.25-2.09-2-3.36-5-1.27-3.01-1.27-7.41 0-3.52 1.4-6.85 1.41-3.34 4.08-5.92t6.58-4.14q3.92-1.56 8.99-1.56 5.7 0 10.5 1.78 4.81 1.78 8.19 4.99m25.1 33.99h20.47l-7.83-21.4q-.58-1.43-1.21-3.38-.62-1.96-1.24-4.23-.58 2.27-1.2 4.25-.63 1.98-1.2 3.45zm16.33-40.05 25.28 64.35h-9.26q-1.56 0-2.54-.78t-1.47-1.93l-4.8-13.13h-26.66l-4.8 13.13q-.36 1.02-1.38 1.86-1.03.85-2.54.85h-9.34l25.32-64.35z"/></svg>