<svg xmlns="http://www.w3.org/2000/svg" width="400" height="400" viewBox="0 0 400 400"><rect width="100%" height="100%" fill="#1e293b"/><path fill="#ffffff" d="M109.445 179.735h6.75v41.21h-3.93q-.91 0-1.53-.3-.61-.3-1.18-1.01l-21.52-27.48q.18 1.89.18 3.48v25.31h-6.76v-41.21h4.02q.48 0 .84.04t.63.17.52.37q.26.25.57.64l21.61 27.59q-.09-1-.15-1.96-.05-.97-.05-1.8zm30.26 33.66v-4.93q-3.04.14-5.13.52-2.08.39-3.33.99t-1.8 1.39q-.54.8-.54 1.74 0 1.85 1.1 2.65t2.86.8q2.17 0 3.75-.78 1.58-.79 3.09-2.38m-14.87-15.36-1.26-2.26q5.05-4.61 12.14-4.61 2.57 0 4.59.84 2.03.84 3.42 2.34 1.4 1.49 2.13 3.57.72 2.08.72 4.56v18.47h-3.19q-1 0-1.54-.3t-.85-1.21l-.63-2.11q-1.11 1-2.17 1.75-1.05.76-2.19 1.27t-2.44.79q-1.29.27-2.86.27-1.85 0-3.42-.5t-2.71-1.5-1.77-2.48q-.62-1.48-.62-3.45 0-1.11.37-2.21.37-1.09 1.21-2.09t2.18-1.88q1.34-.89 3.29-1.54 1.95-.66 4.55-1.07 2.59-.41 5.92-.5v-1.71q0-2.93-1.25-4.34-1.25-1.42-3.62-1.42-1.71 0-2.83.4-1.13.4-1.99.9-.85.5-1.55.9t-1.55.4q-.74 0-1.26-.39-.51-.38-.82-.89m49.16-6.33h5.56l-11.6 29.24h-6.39l-11.6-29.24h5.82q.8 0 1.32.37.53.37.7.94l5.65 15.62q.45 1.37.79 2.68.35 1.31.6 2.62.29-1.31.63-2.62t.83-2.68l5.75-15.62q.2-.57.71-.94.52-.37 1.23-.37m9.52 0h7.07v29.24h-7.07zm8.04-8.52q0 .91-.37 1.71t-.99 1.39q-.61.6-1.44.96-.82.36-1.76.36-.92 0-1.73-.36t-1.41-.96q-.6-.59-.95-1.39-.36-.8-.36-1.71 0-.94.36-1.77.35-.83.95-1.42.6-.6 1.41-.96t1.73-.36q.94 0 1.76.36.83.36 1.44.96.62.59.99 1.42t.37 1.77m25.65 11.68-1.6 2.54q-.28.45-.6.64-.31.19-.8.19-.51 0-1.09-.29-.59-.28-1.36-.64t-1.75-.64q-.98-.29-2.32-.29-2.08 0-3.27.89-1.18.88-1.18 2.3 0 .95.61 1.59.62.64 1.63 1.12 1.01.49 2.29.87 1.29.39 2.61.84 1.33.46 2.61 1.04 1.28.59 2.29 1.48 1.01.9 1.63 2.16.61 1.25.61 3.02 0 2.11-.76 3.89-.75 1.78-2.23 3.08-1.48 1.29-3.67 2.02-2.18.73-5.03.73-1.51 0-2.95-.27-1.43-.28-2.76-.76-1.32-.48-2.45-1.14t-1.98-1.43l1.62-2.67q.32-.49.74-.75.43-.25 1.09-.25.65 0 1.24.37.58.37 1.35.8.77.42 1.81.8 1.04.37 2.64.37 1.25 0 2.15-.3t1.48-.79q.58-.48.86-1.12.27-.64.27-1.33 0-1.02-.62-1.68-.61-.66-1.62-1.14t-2.31-.87q-1.3-.38-2.65-.84t-2.65-1.07-2.31-1.55-1.62-2.31q-.62-1.37-.62-3.31 0-1.79.72-3.42.71-1.62 2.09-2.83t3.45-1.94 4.77-.73q3.02 0 5.5 1t4.14 2.62m28.41.46-1.85 2.56q-.32.4-.61.63-.3.23-.87.23-.55 0-1.06-.33t-1.22-.74q-.72-.41-1.7-.74t-2.44-.33q-1.85 0-3.25.67-1.39.67-2.32 1.92-.92 1.26-1.38 3.04t-.46 4.03q0 2.34.5 4.16.5 1.83 1.44 3.07t2.28 1.88 3.02.64 2.72-.41q1.04-.42 1.76-.92.71-.49 1.24-.91.52-.41 1.18-.41.85 0 1.28.65l2.03 2.57q-1.17 1.37-2.54 2.29-1.37.93-2.84 1.49-1.46.55-3.02.78-1.55.23-3.09.23-2.71 0-5.1-1.01-2.4-1.02-4.19-2.95-1.8-1.94-2.84-4.75t-1.04-6.4q0-3.22.93-5.97t2.72-4.76q1.8-2.01 4.45-3.15t6.1-1.14q3.27 0 5.74 1.06 2.46 1.05 4.43 3.02m20.12 18.07v-4.93q-3.05.14-5.13.52-2.08.39-3.33.99-1.26.6-1.8 1.39-.54.8-.54 1.74 0 1.85 1.1 2.65 1.09.8 2.86.8 2.17 0 3.75-.78 1.58-.79 3.09-2.38m-14.88-15.36-1.25-2.26q5.05-4.61 12.14-4.61 2.57 0 4.59.84t3.42 2.34q1.4 1.49 2.12 3.57.73 2.08.73 4.56v18.47h-3.19q-1 0-1.54-.3t-.86-1.21l-.62-2.11q-1.11 1-2.17 1.75-1.05.76-2.19 1.27t-2.44.79q-1.3.27-2.86.27-1.86 0-3.42-.5-1.57-.5-2.71-1.5t-1.77-2.48-.63-3.45q0-1.11.37-2.21.38-1.09 1.22-2.09t2.18-1.88q1.34-.89 3.29-1.54 1.95-.66 4.54-1.07 2.6-.41 5.93-.5v-1.71q0-2.93-1.25-4.34-1.26-1.42-3.62-1.42-1.71 0-2.84.4-1.12.4-1.98.9-.85.5-1.55.9t-1.55.4q-.75 0-1.26-.39-.51-.38-.83-.89m28.45-19.44h7.04v42.35h-7.04zm19.63 24.37h13.29q0-1.37-.39-2.58-.38-1.21-1.15-2.13-.77-.91-1.96-1.44-1.18-.52-2.75-.52-3.05 0-4.8 1.74-1.75 1.73-2.24 4.93m17.96 4.24h-18.1q.17 2.25.8 3.89t1.65 2.71q1.03 1.07 2.44 1.6 1.41.52 3.12.52t2.95-.4q1.24-.39 2.17-.88.92-.48 1.62-.88t1.35-.4q.89 0 1.32.65l2.02 2.57q-1.17 1.37-2.62 2.29-1.46.93-3.04 1.49-1.58.55-3.22.78t-3.18.23q-3.05 0-5.67-1.01-2.62-1.02-4.56-3t-3.05-4.9-1.11-6.77q0-2.99.97-5.63.97-2.63 2.78-4.58 1.81-1.96 4.42-3.1 2.6-1.14 5.88-1.14 2.77 0 5.1.89 2.34.88 4.02 2.58 1.68 1.69 2.64 4.16.95 2.46.95 5.63 0 1.59-.34 2.15-.34.55-1.31.55"/></svg>