<svg xmlns="http://www.w3.org/2000/svg" width="400" height="400" viewBox="0 0 400 400"><rect width="100%" height="100%" fill="#1e293b"/><path fill="#ffffff" d="m86.805 188.575.42 1.98q.76-.76 1.61-1.41.84-.65 1.78-1.1.95-.45 2.03-.71 1.07-.26 2.35-.26 2.06 0 3.65.7t2.66 1.96q1.06 1.26 1.61 3.01t.55 3.86v16h-6.05v-16q0-2.3-1.05-3.56t-3.21-1.26q-1.57 0-2.94.71t-2.6 1.93v18.18h-6.05v-25.14h3.7q1.18 0 1.54 1.11m27.17 8.57h11.42q0-1.18-.33-2.22t-.99-1.82q-.66-.79-1.68-1.24t-2.36-.45q-2.63 0-4.13 1.49-1.51 1.5-1.93 4.24m15.44 3.65h-15.56q.15 1.94.69 3.35.54 1.4 1.42 2.32t2.09 1.37q1.22.46 2.69.46t2.53-.35q1.07-.34 1.86-.75.8-.42 1.4-.76.6-.35 1.16-.35.76 0 1.13.57l1.74 2.2q-1 1.18-2.25 1.97-1.25.8-2.61 1.28t-2.77.67q-1.41.2-2.73.2-2.62 0-4.88-.87-2.25-.87-3.92-2.57-1.66-1.71-2.62-4.22-.95-2.51-.95-5.82 0-2.57.83-4.84.83-2.26 2.39-3.94 1.55-1.68 3.79-2.66 2.25-.98 5.06-.98 2.38 0 4.39.76t3.45 2.22q1.45 1.46 2.27 3.57.82 2.12.82 4.84 0 1.38-.29 1.85-.3.48-1.13.48m37.24-13.33h4.61l-7.99 25.14h-4.85q-.84 0-1.15-1.08l-4.51-14.53q-.22-.73-.41-1.45-.18-.73-.3-1.46-.15.73-.33 1.48-.19.75-.41 1.48l-4.58 14.48q-.29 1.08-1.3 1.08h-4.65l-7.96-25.14h4.82q.66 0 1.13.32.46.32.61.81l3.6 13.43q.27 1.1.48 2.15.21 1.06.36 2.11.27-1.05.57-2.11.31-1.05.65-2.15l4.17-13.48q.14-.49.57-.81t1.04-.32h2.67q.64 0 1.09.32.46.32.6.81l4.05 13.48q.31 1.1.6 2.16.28 1.07.55 2.12.32-2.08.9-4.28l3.7-13.43q.18-.49.62-.81t1.05-.32m7.84 12.87v-5.05h12.69v5.05zm31.75 5.78v-4.24q-2.62.12-4.41.45t-2.86.85q-1.08.51-1.55 1.2-.46.68-.46 1.49 0 1.59.94 2.28t2.46.69q1.86 0 3.22-.68 1.36-.67 2.66-2.04m-12.79-13.21-1.08-1.93q4.34-3.97 10.44-3.97 2.21 0 3.95.72t2.94 2.01 1.82 3.07q.63 1.79.63 3.92v15.88h-2.75q-.86 0-1.32-.26-.47-.25-.74-1.04l-.53-1.81q-.96.86-1.87 1.51-.9.64-1.88 1.09-.98.44-2.1.67-1.11.23-2.46.23-1.59 0-2.94-.43t-2.33-1.28q-.98-.86-1.52-2.13-.54-1.28-.54-2.97 0-.95.32-1.9.32-.94 1.04-1.8.73-.86 1.88-1.62t2.83-1.32 3.91-.92q2.23-.35 5.09-.43v-1.47q0-2.52-1.08-3.73-1.07-1.21-3.11-1.21-1.47 0-2.44.34-.96.34-1.7.77-.73.43-1.33.77t-1.34.34q-.64 0-1.08-.33t-.71-.77m29.72-3.92.37 2.84q1.17-2.25 2.79-3.54 1.62-1.28 3.82-1.28 1.74 0 2.8.76l-.4 4.53q-.12.44-.35.62-.23.19-.63.19-.36 0-1.09-.12-.72-.13-1.4-.13-1.01 0-1.79.3-.79.29-1.41.84-.63.55-1.1 1.34-.48.78-.9 1.79v15.48h-6.05v-25.14h3.55q.93 0 1.3.33t.49 1.19m18.28 0 .37 2.84q1.17-2.25 2.79-3.54 1.62-1.28 3.82-1.28 1.74 0 2.79.76l-.39 4.53q-.12.44-.35.62-.24.19-.63.19-.37 0-1.09-.12-.72-.13-1.41-.13-1 0-1.79.3-.78.29-1.4.84-.63.55-1.11 1.34-.47.78-.89 1.79v15.48h-6.05v-25.14h3.55q.93 0 1.3.33t.49 1.19m24.06-1.91q2.79 0 5.08.91 2.29.9 3.92 2.57t2.51 4.07.88 5.36q0 2.99-.88 5.39t-2.51 4.09-3.92 2.6-5.08.91q-2.82 0-5.12-.91-2.31-.91-3.94-2.6-1.62-1.69-2.52-4.09-.89-2.4-.89-5.39 0-2.96.89-5.36.9-2.4 2.52-4.07 1.63-1.67 3.94-2.57 2.3-.91 5.12-.91m0 21.24q3.13 0 4.64-2.1 1.51-2.11 1.51-6.18t-1.51-6.2-4.64-2.13q-3.19 0-4.72 2.15-1.53 2.14-1.53 6.18t1.53 6.16 4.72 2.12m48.31-20.85h4.61l-7.99 25.14h-4.85q-.83 0-1.15-1.08l-4.51-14.53q-.22-.73-.4-1.45-.19-.73-.31-1.46-.15.73-.33 1.48-.19.75-.41 1.48l-4.58 14.48q-.29 1.08-1.3 1.08h-4.65l-7.96-25.14h4.82q.66 0 1.13.32t.61.81l3.6 13.43q.27 1.1.48 2.15.21 1.06.36 2.11.27-1.05.57-2.11.31-1.05.65-2.15l4.17-13.48q.14-.49.57-.81t1.04-.32h2.67q.64 0 1.09.32.46.32.61.81l4.04 13.48q.32 1.1.6 2.16.28 1.07.55 2.12.32-2.08.91-4.28l3.7-13.43q.17-.49.61-.81t1.05-.32"/></svg>