<svg xmlns="http://www.w3.org/2000/svg" width="400" height="400" viewBox="0 0 400 400"><rect width="100%" height="100%" fill="#1e293b"/><path fill="#ffffff" d="M149.25 153.735h15.17v92.54h-8.83q-2.05 0-3.43-.67-1.37-.67-2.65-2.27l-48.32-61.7q.38 4.22.38 7.81v56.83H86.4v-92.54h9.03q1.09 0 1.89.09.8.1 1.4.39.61.28 1.19.83.57.54 1.28 1.44l48.51 61.95q-.19-2.24-.32-4.42-.13-2.17-.13-4.03zm89.35 8.7-4.29 8.13q-.77 1.34-1.63 1.95-.87.61-2.15.61-1.34 0-2.91-.99-1.57-1-3.74-2.21-2.18-1.22-5.09-2.21t-6.88-.99q-3.59 0-6.27.86-2.69.87-4.52 2.4-1.82 1.54-2.72 3.68-.89 2.15-.89 4.71 0 3.26 1.82 5.44 1.83 2.17 4.83 3.71 3.01 1.53 6.85 2.75t7.87 2.59q4.04 1.38 7.88 3.2 3.84 1.83 6.84 4.61 3.01 2.78 4.84 6.82 1.82 4.03 1.82 9.79 0 6.27-2.14 11.74-2.15 5.47-6.28 9.54-4.12 4.06-10.08 6.4-5.95 2.33-13.63 2.33-4.41 0-8.7-.86t-8.23-2.46q-3.93-1.6-7.39-3.84-3.45-2.24-6.14-5l5.05-8.25q.64-.9 1.67-1.51 1.02-.6 2.17-.6 1.6 0 3.46 1.31t4.42 2.91 5.98 2.91 8.22 1.31q7.36 0 11.4-3.48 4.03-3.49 4.03-10.02 0-3.65-1.83-5.95-1.82-2.31-4.83-3.87-3.01-1.57-6.85-2.66t-7.8-2.37q-3.97-1.28-7.81-3.07t-6.85-4.67-4.83-7.2q-1.83-4.32-1.83-10.66 0-5.05 2.02-9.85t5.86-8.52q3.84-3.71 9.47-5.95t12.93-2.24q8.19 0 15.1 2.56t11.78 7.17m75 4.99h-41.08v27.39h34.68v13.76h-34.68v37.7h-17.28v-92.54h58.36z"/></svg>