<svg xmlns="http://www.w3.org/2000/svg" width="400" height="400" viewBox="0 0 400 400"><rect width="100%" height="100%" fill="#1e293b"/><path fill="#ffffff" d="M86.035 196.24v10.58q.97 1.17 2.11 1.66 1.13.48 2.47.48 1.29 0 2.32-.48 1.04-.49 1.76-1.47.73-.99 1.12-2.5t.39-3.55q0-2.07-.34-3.51-.33-1.44-.95-2.33-.62-.9-1.51-1.32-.88-.41-2.01-.41-1.77 0-3.01.75t-2.35 2.1m-.76-5.86.46 2.18q1.45-1.63 3.29-2.64 1.84-1.02 4.33-1.02 1.93 0 3.53.81 1.59.8 2.76 2.33 1.16 1.53 1.79 3.78.63 2.24.63 5.14 0 2.64-.71 4.9-.71 2.25-2.04 3.91-1.32 1.65-3.19 2.58-1.88.93-4.2.93-1.98 0-3.38-.6-1.4-.61-2.51-1.7v9.67h-5.68v-31.31h3.47q1.11 0 1.45 1.04m26.89-11.62v13.11q1.38-1.29 3.04-2.09 1.65-.81 3.88-.81 1.93 0 3.43.66 1.49.65 2.49 1.84 1.01 1.18 1.52 2.83.52 1.64.52 3.62v15.02h-5.68v-15.02q0-2.16-.99-3.35-.99-1.18-3.01-1.18-1.47 0-2.76.67-1.29.66-2.44 1.81v17.07h-5.68v-34.18zm30.7 10.21q2.63 0 4.78.86 2.15.85 3.68 2.41t2.35 3.82q.83 2.25.83 5.03 0 2.81-.83 5.06-.82 2.26-2.35 3.85-1.53 1.58-3.68 2.43t-4.78.85q-2.64 0-4.8-.85t-3.69-2.43q-1.53-1.59-2.37-3.85-.84-2.25-.84-5.06 0-2.78.84-5.03.84-2.26 2.37-3.82t3.69-2.41q2.16-.86 4.8-.86m0 19.94q2.95 0 4.36-1.97 1.42-1.98 1.42-5.8t-1.42-5.82q-1.41-2-4.36-2-2.99 0-4.42 2.01-1.44 2.02-1.44 5.81 0 3.8 1.44 5.79 1.43 1.98 4.42 1.98m20.91-18.53.39 1.86q.72-.71 1.51-1.32t1.68-1.04q.88-.42 1.9-.66 1.01-.25 2.2-.25 1.94 0 3.43.66 1.5.65 2.5 1.84 1 1.18 1.51 2.83.52 1.64.52 3.62v15.02h-5.68v-15.02q0-2.16-.99-3.35-.99-1.18-3.01-1.18-1.47 0-2.76.67-1.29.66-2.44 1.81v17.07h-5.68v-23.6h3.47q1.11 0 1.45 1.04m25.51 8.05h10.72q0-1.11-.31-2.08-.31-.98-.94-1.72-.62-.73-1.57-1.16-.96-.42-2.22-.42-2.46 0-3.88 1.4-1.41 1.4-1.8 3.98m14.49 3.42h-14.61q.14 1.82.65 3.14.5 1.33 1.33 2.19t1.97 1.29q1.14.42 2.52.42t2.38-.32 1.74-.71q.75-.39 1.32-.72.56-.32 1.09-.32.71 0 1.06.53l1.63 2.07q-.94 1.1-2.12 1.85-1.17.75-2.45 1.2-1.27.45-2.6.63-1.32.18-2.56.18-2.46 0-4.58-.81-2.11-.82-3.68-2.42-1.56-1.6-2.46-3.95-.89-2.36-.89-5.46 0-2.42.78-4.55t2.24-3.7q1.46-1.58 3.56-2.5 2.11-.92 4.75-.92 2.24 0 4.12.72 1.89.71 3.24 2.08 1.36 1.37 2.13 3.36t.77 4.54q0 1.29-.27 1.74-.28.44-1.06.44m5.4-.43v-4.74h11.92v4.74zm22.36-10.65.34 2.67q1.11-2.12 2.63-3.33 1.51-1.21 3.58-1.21 1.64 0 2.63.72l-.37 4.25q-.12.42-.34.59-.21.17-.58.17-.35 0-1.03-.11-.67-.12-1.32-.12-.94 0-1.68.28-.73.27-1.32.79t-1.03 1.26q-.45.73-.84 1.67v14.54h-5.68v-23.6h3.33q.87 0 1.22.31.34.31.46 1.12m12.33-1.43h5.7v23.6h-5.7zm6.48-6.87q0 .73-.3 1.38-.29.64-.79 1.12-.49.49-1.16.77-.67.29-1.43.29-.73 0-1.39-.29-.65-.28-1.14-.77-.48-.48-.77-1.12-.28-.65-.28-1.38 0-.76.28-1.43.29-.67.77-1.15.49-.48 1.14-.77.66-.29 1.39-.29.76 0 1.43.29t1.16.77q.5.48.79 1.15.3.67.3 1.43m13.64 18.1q1.06 0 1.84-.29t1.3-.8q.52-.5.78-1.21.27-.72.27-1.57 0-1.75-1.05-2.77-1.04-1.02-3.14-1.02-2.09 0-3.14 1.02-1.04 1.02-1.04 2.77 0 .83.26 1.54.27.72.78 1.23.52.52 1.31.81.8.29 1.83.29m6.42 13.43q0-.69-.41-1.13-.42-.44-1.13-.68t-1.67-.35q-.95-.12-2.02-.18-1.07-.05-2.21-.1t-2.22-.18q-.94.53-1.53 1.24t-.59 1.65q0 .63.31 1.17t.99.93 1.76.61q1.08.21 2.65.21 1.58 0 2.73-.24t1.9-.66q.75-.43 1.09-1.02.35-.58.35-1.27m-1.13-23.85h6.79v2.11q0 1.02-1.22 1.25l-2.12.39q.49 1.22.49 2.66 0 1.75-.71 3.17-.7 1.41-1.94 2.4t-2.93 1.53-3.65.54q-.69 0-1.33-.07-.65-.07-1.27-.18-1.1.66-1.1 1.49 0 .71.65 1.05.66.33 1.74.47t2.46.17q1.38.04 2.83.15 1.45.12 2.83.4 1.38.29 2.46.91t1.74 1.69q.65 1.07.65 2.75 0 1.57-.77 3.04t-2.23 2.62-3.59 1.85q-2.12.7-4.84.7-2.67 0-4.64-.51-1.98-.52-3.29-1.38-1.31-.87-1.96-1.99-.64-1.13-.64-2.35 0-1.66 1-2.77 1-1.12 2.75-1.78-.95-.49-1.5-1.29-.55-.81-.55-2.12 0-.53.2-1.09.19-.56.57-1.12.38-.55.96-1.04.57-.5 1.35-.89-1.79-.96-2.82-2.57-1.02-1.61-1.02-3.78 0-1.74.7-3.16.7-1.41 1.96-2.41 1.25-1 2.96-1.53 1.72-.53 3.74-.53 1.52 0 2.85.31 1.34.31 2.44.91m16.06-11.39v13.11q1.38-1.29 3.03-2.09 1.66-.81 3.89-.81 1.93 0 3.43.66 1.49.65 2.49 1.84 1 1.18 1.52 2.83.52 1.64.52 3.62v15.02h-5.68v-15.02q0-2.16-.99-3.35-.99-1.18-3.02-1.18-1.47 0-2.76.67-1.28.66-2.43 1.81v17.07h-5.68v-34.18zm28.13 34.55q-3.09 0-4.73-1.74-1.65-1.73-1.65-4.79V193.6h-2.41q-.46 0-.78-.3t-.32-.9v-2.25l3.79-.62 1.2-6.44q.11-.46.43-.72.33-.25.83-.25h2.95v7.43h6.3v4.05h-6.3v12.79q0 1.1.54 1.72t1.48.62q.53 0 .88-.13.36-.12.63-.26.26-.14.47-.26.2-.13.41-.13.25 0 .42.13.16.12.34.37l1.7 2.77q-1.24 1.03-2.85 1.56t-3.33.53"/></svg>