<svg xmlns="http://www.w3.org/2000/svg" width="400" height="400" viewBox="0 0 400 400"><rect width="100%" height="100%" fill="#1e293b"/><path fill="#ffffff" d="m102.27 186.48-1.57 2.99q-.28.49-.6.72-.32.22-.79.22-.49 0-1.07-.36-.57-.37-1.37-.82-.8-.44-1.87-.81-1.07-.36-2.53-.36-1.31 0-2.3.32-.99.31-1.66.88-.67.56-.99 1.35-.33.79-.33 1.73 0 1.2.67 1.99.67.8 1.77 1.37 1.11.56 2.52 1.01 1.41.44 2.89.95 1.48.5 2.89 1.17t2.51 1.7q1.11 1.02 1.78 2.5.66 1.48.66 3.59 0 2.31-.78 4.32-.79 2.01-2.31 3.5-1.51 1.49-3.7 2.35-2.18.86-5 .86-1.62 0-3.2-.32-1.57-.32-3.02-.91-1.44-.58-2.71-1.41-1.27-.82-2.26-1.83l1.86-3.03q.23-.33.61-.55.38-.23.8-.23.59 0 1.27.49.68.48 1.62 1.07.94.58 2.2 1.06 1.25.49 3.02.49 2.7 0 4.18-1.28 1.48-1.29 1.48-3.68 0-1.34-.67-2.19-.67-.84-1.77-1.42-1.11-.58-2.52-.98-1.41-.39-2.87-.86-1.45-.47-2.86-1.13t-2.52-1.72q-1.1-1.06-1.77-2.64-.67-1.59-.67-3.91 0-1.86.74-3.62.74-1.77 2.15-3.13t3.48-2.18q2.06-.83 4.74-.83 3.01 0 5.55.94t4.32 2.63m15.87 6.3q2.68 0 4.87.87 2.2.87 3.76 2.47 1.57 1.6 2.41 3.9.85 2.3.85 5.15 0 2.86-.85 5.17-.84 2.3-2.41 3.92-1.56 1.62-3.76 2.49-2.19.87-4.87.87-2.71 0-4.92-.87-2.2-.87-3.77-2.49-1.56-1.62-2.42-3.92-.86-2.31-.86-5.17 0-2.85.86-5.15t2.42-3.9q1.57-1.6 3.77-2.47 2.21-.87 4.92-.87m0 20.38q3 0 4.45-2.02 1.44-2.02 1.44-5.93 0-3.9-1.44-5.94-1.45-2.05-4.45-2.05-3.06 0-4.53 2.06t-1.47 5.93q0 3.88 1.47 5.91 1.47 2.04 4.53 2.04m16.4-30.81h5.8v34.92h-5.8zm11.8 10.81h5.82v24.11h-5.82zm6.62-7.03q0 .75-.3 1.41-.31.66-.81 1.15-.51.5-1.19.79t-1.46.29q-.75 0-1.42-.29t-1.16-.79q-.5-.49-.79-1.15t-.29-1.41q0-.77.29-1.45.29-.69.79-1.18.49-.49 1.16-.79.67-.29 1.42-.29.78 0 1.46.29.68.3 1.19.79.5.49.81 1.18.3.68.3 1.45m20.26 24v-10.81q-.99-1.2-2.15-1.7-1.16-.49-2.5-.49-1.32 0-2.38.49-1.05.5-1.81 1.5-.75.99-1.15 2.53t-.4 3.64q0 2.11.34 3.58t.98 2.4q.63.92 1.55 1.34.92.41 2.04.41 1.81 0 3.08-.76 1.27-.75 2.4-2.13m0-27.78h5.8v34.92h-3.54q-1.16 0-1.46-1.06l-.49-2.32q-1.46 1.66-3.35 2.7-1.89 1.03-4.41 1.03-1.97 0-3.62-.82-1.64-.82-2.83-2.39-1.19-1.56-1.83-3.86-.65-2.3-.65-5.26 0-2.68.73-4.99.73-2.3 2.09-3.99t3.27-2.65q1.9-.95 4.27-.95 2.03 0 3.46.64 1.43.63 2.56 1.71zm52.71.94h4.96l-10.55 33.98h-5.71l-7.43-23.22q-.3-.84-.56-2.07-.14.59-.28 1.11-.15.52-.31.96l-7.5 23.22h-5.73l-10.53-33.98h5.29q.82 0 1.37.39.56.38.74 1.04l5.78 20.33q.19.75.37 1.63t.36 1.85q.19-.99.41-1.86.23-.87.49-1.62l6.67-20.33q.19-.54.74-.98.55-.45 1.35-.45h1.86q.82 0 1.34.4.51.4.77 1.03l6.65 20.33q.5 1.46.9 3.36.3-1.86.68-3.36l5.78-20.33q.14-.58.72-1.01.57-.42 1.37-.42m18.89 9.49q2.68 0 4.88.87t3.76 2.47 2.41 3.9.85 5.15q0 2.86-.85 5.17-.85 2.3-2.41 3.92t-3.76 2.49-4.88.87q-2.7 0-4.91-.87t-3.77-2.49-2.42-3.92q-.86-2.31-.86-5.17 0-2.85.86-5.15t2.42-3.9 3.77-2.47 4.91-.87m0 20.38q3.01 0 4.46-2.02 1.44-2.02 1.44-5.93 0-3.9-1.44-5.94-1.45-2.05-4.46-2.05-3.05 0-4.52 2.06t-1.47 5.93q0 3.88 1.47 5.91 1.47 2.04 4.52 2.04m21.46-18.54.35 2.72q1.13-2.16 2.68-3.39 1.55-1.24 3.67-1.24 1.67 0 2.68.73l-.38 4.35q-.12.42-.34.6-.22.17-.6.17-.35 0-1.04-.11-.7-.12-1.36-.12-.96 0-1.71.28t-1.35.81-1.06 1.28-.86 1.72v14.85h-5.8v-24.11h3.4q.9 0 1.25.32.35.31.47 1.14m12.41-12.27h5.8v20h1.08q.59 0 .93-.16.34-.15.7-.62l5.99-7.4q.37-.49.83-.75t1.19-.26h5.31l-7.5 8.95q-.8 1.06-1.74 1.62.5.36.89.83.38.47.74 1.01l8.03 11.7h-5.24q-.68 0-1.17-.22-.5-.23-.83-.81l-6.15-9.15q-.33-.54-.68-.7-.36-.16-1.06-.16h-1.32v11.04h-5.8zm41.15 13.42-1.32 2.09q-.23.37-.49.53-.26.15-.66.15-.42 0-.91-.23-.48-.24-1.11-.53-.64-.3-1.45-.53-.81-.24-1.91-.24-1.72 0-2.69.73-.98.73-.98 1.9 0 .78.51 1.31.5.53 1.34.93.83.4 1.89.71 1.06.32 2.15.7 1.09.37 2.15.86 1.06.48 1.89 1.22t1.34 1.77q.51 1.04.51 2.49 0 1.74-.63 3.21-.62 1.47-1.84 2.54t-3.02 1.67-4.15.6q-1.25 0-2.43-.23-1.19-.22-2.28-.62t-2.02-.94-1.64-1.17l1.34-2.21q.26-.4.61-.62.36-.21.9-.21t1.02.31q.48.3 1.12.66.63.35 1.49.65.86.31 2.17.31 1.04 0 1.78-.25.74-.24 1.22-.64t.7-.93q.23-.53.23-1.09 0-.85-.51-1.39-.5-.54-1.34-.94-.83-.4-1.9-.72-1.07-.31-2.19-.69-1.11-.38-2.18-.88-1.07-.51-1.91-1.28-.83-.78-1.34-1.91-.5-1.12-.5-2.72 0-1.48.59-2.82.58-1.34 1.72-2.34t2.85-1.6q1.7-.6 3.93-.6 2.49 0 4.54.83 2.04.82 3.41 2.16"/></svg>