<svg xmlns="http://www.w3.org/2000/svg" width="400" height="400" viewBox="0 0 400 400"><rect width="100%" height="100%" fill="#1e293b"/><path fill="#ffffff" d="M144.86 159.825v12.15h-23.98v67.38h-14.79v-67.38H82.11v-12.15zm19.03 44.83h25.63q0-2.64-.74-4.98t-2.23-4.1q-1.48-1.76-3.76-2.78-2.29-1.02-5.31-1.02-5.89 0-9.27 3.36-3.38 3.35-4.32 9.52m34.65 8.19h-34.92q.33 4.35 1.54 7.51t3.19 5.22q1.98 2.07 4.7 3.08 2.72 1.02 6.02 1.02t5.7-.77q2.39-.77 4.18-1.7 1.78-.94 3.13-1.71t2.61-.77q1.71 0 2.53 1.26l3.91 4.95q-2.26 2.64-5.06 4.43-2.81 1.79-5.86 2.86t-6.21 1.52q-3.17.43-6.14.43-5.88 0-10.94-1.95t-8.8-5.77-5.89-9.46q-2.14-5.64-2.14-13.07 0-5.77 1.87-10.86t5.36-8.85q3.49-3.77 8.53-5.97 5.03-2.2 11.35-2.2 5.34 0 9.85 1.71 4.51 1.7 7.75 4.97 3.25 3.28 5.09 8.03 1.84 4.76 1.84 10.87 0 3.07-.66 4.15-.66 1.07-2.53 1.07m44.44-3.19 19.31 29.7H249.2q-1.49 0-2.39-.77-.91-.77-1.52-1.76l-11.93-19.63q-.28.93-.63 1.75-.36.83-.8 1.55l-10.56 16.33q-.61.94-1.49 1.73-.88.8-2.2.8h-12.15l19.36-29.09-18.59-27.34h13.09q1.48 0 2.2.41.71.42 1.26 1.35l11.83 18.81q.6-1.87 1.7-3.69l9.52-14.85q1.21-2.03 3.13-2.03h12.49zm37.07-5h25.63q0-2.64-.74-4.98t-2.23-4.1q-1.48-1.76-3.76-2.78-2.29-1.02-5.31-1.02-5.89 0-9.27 3.36-3.38 3.35-4.32 9.52m34.65 8.19h-34.92q.33 4.35 1.54 7.51t3.19 5.22q1.98 2.07 4.7 3.08 2.72 1.02 6.02 1.02t5.7-.77q2.39-.77 4.18-1.7 1.78-.94 3.13-1.71t2.61-.77q1.71 0 2.53 1.26l3.91 4.95q-2.26 2.64-5.06 4.43-2.81 1.79-5.86 2.86t-6.21 1.52q-3.17.43-6.14.43-5.88 0-10.94-1.95t-8.8-5.77-5.89-9.46q-2.14-5.64-2.14-13.07 0-5.77 1.87-10.86t5.36-8.85q3.49-3.77 8.53-5.97 5.03-2.2 11.35-2.2 5.34 0 9.85 1.71 4.51 1.7 7.75 4.97 3.25 3.28 5.09 8.03 1.84 4.76 1.84 10.87 0 3.07-.66 4.15-.66 1.07-2.53 1.07"/></svg>