<svg xmlns="http://www.w3.org/2000/svg" width="400" height="400" viewBox="0 0 400 400"><rect width="100%" height="100%" fill="#1e293b"/><path fill="#ffffff" d="M89.44 205.5q1.28 0 2.3-.43 1.01-.43 1.7-1.2.7-.78 1.07-1.89.37-1.1.37-2.47v-14.29h4.44v14.29q0 2.13-.69 3.94-.68 1.8-1.96 3.11-1.28 1.32-3.11 2.05t-4.12.73q-2.31 0-4.15-.73-1.83-.73-3.11-2.05-1.28-1.31-1.96-3.11-.69-1.81-.69-3.94v-14.29h4.44v14.27q0 1.37.37 2.48.38 1.1 1.08 1.89.7.78 1.71 1.21 1.02.43 2.31.43m28.7-18.04-1.1 2.1q-.2.35-.42.5-.22.16-.55.16-.35 0-.75-.26-.41-.25-.97-.56-.56-.32-1.31-.57-.75-.26-1.78-.26-.92 0-1.61.22-.7.23-1.17.62-.47.4-.7.95t-.23 1.21q0 .85.47 1.41t1.25.95q.77.4 1.76.71.99.32 2.03.67 1.04.36 2.03.83t1.77 1.18q.77.72 1.24 1.76t.47 2.53q0 1.61-.55 3.02t-1.62 2.46q-1.06 1.05-2.59 1.65-1.54.6-3.52.6-1.14 0-2.24-.22-1.11-.22-2.12-.63-1.02-.42-1.91-.99-.89-.58-1.58-1.29l1.3-2.13q.17-.23.43-.39.26-.15.56-.15.41 0 .89.33.48.34 1.14.75.66.42 1.54.76.89.33 2.12.33 1.9 0 2.94-.9 1.04-.89 1.04-2.58 0-.94-.47-1.53-.47-.6-1.25-1-.77-.4-1.76-.69-.99-.28-2.01-.61-1.03-.33-2.02-.79t-1.76-1.2q-.78-.74-1.25-1.86-.47-1.11-.47-2.75 0-1.3.52-2.54.52-1.23 1.51-2.19t2.44-1.54q1.45-.57 3.34-.57 2.11 0 3.89.66t3.03 1.84m3.52 13.35v-3.4h8.55v3.4zm34.27-3.66q0 2.62-.87 4.82-.88 2.19-2.46 3.78-1.59 1.58-3.81 2.46-2.23.87-4.95.87h-9.1v-23.86h9.1q2.72 0 4.95.88 2.22.89 3.81 2.46 1.58 1.58 2.46 3.77.87 2.2.87 4.82m-4.55 0q0-1.96-.52-3.52t-1.51-2.64q-.98-1.08-2.37-1.66-1.4-.58-3.14-.58h-4.64v16.8h4.64q1.74 0 3.14-.58 1.39-.58 2.37-1.66.99-1.08 1.51-2.64t.52-3.52m11.03 1.52h7.69q0-.79-.22-1.49-.22-.71-.67-1.23-.44-.53-1.13-.84-.68-.3-1.59-.3-1.77 0-2.78 1-1.01 1.01-1.3 2.86m10.4 2.46h-10.48q.1 1.3.46 2.25.37.95.96 1.57.6.62 1.41.92.82.31 1.81.31t1.71-.24q.71-.23 1.25-.51t.94-.51q.41-.23.78-.23.52 0 .76.38l1.17 1.49q-.67.79-1.51 1.32-.84.54-1.76.86t-1.86.46q-.95.13-1.84.13-1.77 0-3.29-.59-1.52-.58-2.64-1.73t-1.76-2.84q-.65-1.69-.65-3.92 0-1.73.56-3.26.56-1.52 1.61-2.65t2.56-1.79 3.41-.66q1.6 0 2.95.51t2.33 1.49q.97.98 1.52 2.41.56 1.43.56 3.26 0 .92-.2 1.25-.2.32-.76.32m8.08-4.03v7.59q.7.84 1.51 1.19.82.35 1.78.35.92 0 1.66-.35.75-.35 1.27-1.06t.8-1.79.28-2.55q0-1.48-.24-2.51t-.69-1.68q-.44-.64-1.08-.94-.63-.3-1.44-.3-1.27 0-2.16.54t-1.69 1.51m-.54-4.21.33 1.57q1.04-1.17 2.36-1.9 1.32-.72 3.1-.72 1.39 0 2.53.58 1.15.57 1.98 1.67.84 1.1 1.29 2.71.46 1.6.46 3.68 0 1.9-.52 3.52-.51 1.61-1.46 2.8t-2.29 1.86-3.01.67q-1.42 0-2.43-.44-1-.44-1.8-1.21v6.93h-4.07v-22.46h2.49q.79 0 1.04.74m20.86 16.45q-2.22 0-3.39-1.24-1.18-1.25-1.18-3.44v-9.46h-1.74q-.33 0-.56-.21-.23-.22-.23-.64v-1.62l2.72-.45.86-4.62q.08-.33.31-.51.24-.18.6-.18h2.11v5.33h4.52v2.9h-4.52v9.18q0 .79.39 1.23.39.45 1.06.45.38 0 .64-.09.25-.09.44-.19t.34-.19.3-.09q.18 0 .3.09.11.09.24.27l1.22 1.98q-.89.75-2.04 1.12-1.16.38-2.39.38m6.5-8.53v-3.4h8.54v3.4zm28.13-12.06h-10.59v6.62h8.35v3.41h-8.35v6.75h10.59v3.55h-15.05v-23.86h15.05zm6.81 4.14.28 1.34q.52-.51 1.09-.95.56-.44 1.2-.74.64-.31 1.36-.48.73-.17 1.59-.17 1.38 0 2.45.47 1.08.47 1.79 1.32.72.85 1.09 2.03t.37 2.6v10.77h-4.07v-10.77q0-1.56-.71-2.41t-2.16-.85q-1.06 0-1.98.48-.93.48-1.75 1.31v12.24h-4.08v-16.93h2.49q.8 0 1.04.74m18.3 5.78h7.69q0-.79-.22-1.49-.22-.71-.67-1.23-.44-.53-1.13-.84-.68-.3-1.59-.3-1.77 0-2.78 1-1.02 1.01-1.3 2.86m10.4 2.46h-10.48q.1 1.3.46 2.25.37.95.96 1.57t1.41.92q.82.31 1.81.31t1.7-.24q.72-.23 1.26-.51.53-.28.94-.51.4-.23.78-.23.51 0 .76.38l1.17 1.49q-.67.79-1.51 1.32-.85.54-1.76.86-.92.32-1.87.46-.95.13-1.84.13-1.76 0-3.28-.59-1.52-.58-2.64-1.73t-1.77-2.84q-.64-1.69-.64-3.92 0-1.73.56-3.26.56-1.52 1.61-2.65t2.56-1.79 3.41-.66q1.6 0 2.95.51t2.33 1.49q.97.98 1.52 2.41t.55 3.26q0 .92-.19 1.25-.2.32-.76.32m7.6-7.96.25 1.92q.79-1.52 1.88-2.39 1.09-.86 2.58-.86 1.17 0 1.88.51l-.27 3.05q-.08.3-.24.42-.15.13-.42.13-.24 0-.73-.09-.49-.08-.95-.08-.68 0-1.2.2-.53.2-.95.57t-.75.9q-.32.53-.6 1.2v10.43h-4.07v-16.93h2.39q.63 0 .87.22.25.23.33.8m14.9 7.03q.76 0 1.32-.2.56-.21.94-.57.37-.37.56-.88t.19-1.12q0-1.25-.75-1.99-.75-.73-2.26-.73-1.5 0-2.25.73-.75.74-.75 1.99 0 .6.19 1.11t.56.88.94.58q.57.2 1.31.2m4.61 9.64q0-.5-.3-.81t-.81-.49q-.51-.17-1.19-.25-.69-.08-1.46-.13-.76-.04-1.58-.07t-1.59-.13q-.68.38-1.1.89t-.42 1.19q0 .44.22.83t.71.67 1.26.44q.78.15 1.9.15 1.14 0 1.96-.17.83-.17 1.37-.48.53-.3.78-.73.25-.42.25-.91m-.81-17.11h4.87v1.52q0 .72-.88.89l-1.52.28q.35.87.35 1.91 0 1.26-.5 2.27-.51 1.02-1.4 1.72-.89.71-2.1 1.1t-2.62.39q-.49 0-.95-.05-.47-.05-.91-.13-.79.48-.79 1.07 0 .51.47.75t1.24.34q.78.1 1.77.12.99.03 2.03.11t2.03.29 1.76.65q.78.45 1.25 1.21.47.77.47 1.98 0 1.12-.55 2.17-.56 1.06-1.6 1.89-1.05.82-2.58 1.32-1.52.51-3.47.51-1.92 0-3.33-.37-1.42-.38-2.36-.99-.94-.62-1.41-1.43-.46-.81-.46-1.68 0-1.19.72-1.99t1.97-1.28q-.68-.35-1.07-.93-.4-.57-.4-1.51 0-.38.14-.79.14-.4.42-.8.27-.39.68-.75.41-.35.97-.63-1.28-.7-2.02-1.85-.73-1.16-.73-2.71 0-1.25.5-2.27.5-1.01 1.4-1.73t2.13-1.1 2.68-.38q1.09 0 2.05.23.96.22 1.75.65m19.55-.58h3.27l-9.23 21.58q-.18.43-.47.65-.28.23-.88.23h-3.03l3.16-6.8-6.84-15.66h3.58q.48 0 .75.23t.4.53l3.6 8.78q.18.44.3.89.13.44.24.91.15-.47.3-.92t.33-.9l3.4-8.76q.13-.33.44-.54.3-.22.68-.22"/></svg>