<svg xmlns="http://www.w3.org/2000/svg" width="400" height="400" viewBox="0 0 400 400"><rect width="100%" height="100%" fill="#1e293b"/><path fill="#ffffff" d="M108.385 185.365h6.43l-18.17 42.51q-.35.84-.92 1.28t-1.74.44h-5.98l6.24-13.39-13.49-30.84h7.05q.95 0 1.48.45.54.45.8 1.04l7.08 17.29q.36.88.6 1.76.25.87.48 1.78.29-.91.58-1.8t.65-1.77l6.7-17.26q.26-.65.86-1.07t1.35-.42m25.18-.53q3.71 0 6.75 1.21 3.04 1.2 5.2 3.41t3.33 5.39q1.17 3.19 1.17 7.12 0 3.97-1.17 7.15-1.17 3.19-3.33 5.43t-5.2 3.44q-3.04 1.21-6.75 1.21-3.73 0-6.79-1.21-3.05-1.2-5.21-3.44-2.17-2.24-3.35-5.43-1.19-3.18-1.19-7.15 0-3.93 1.19-7.12 1.18-3.18 3.35-5.39 2.16-2.21 5.21-3.41 3.06-1.21 6.79-1.21m0 28.18q4.16 0 6.16-2.79 2-2.8 2-8.19 0-5.4-2-8.22-2-2.83-6.16-2.83-4.22 0-6.25 2.84t-2.03 8.21q0 5.36 2.03 8.17t6.25 2.81m43.29-27.65h8.03v33.34h-4.91q-1.59 0-2.01-1.46l-.55-2.67q-2.05 2.08-4.52 3.37-2.47 1.28-5.82 1.28-2.73 0-4.82-.93-2.1-.92-3.53-2.61t-2.16-4.02q-.73-2.32-.73-5.12v-21.18h8.02v21.18q0 3.06 1.42 4.73 1.41 1.68 4.24 1.68 2.08 0 3.9-.93t3.44-2.55zm27.08 33.86q-4.36 0-6.68-2.45-2.33-2.46-2.33-6.78v-18.62h-3.41q-.65 0-1.1-.43-.46-.42-.46-1.26v-3.19l5.36-.88 1.69-9.1q.17-.65.62-1 .46-.36 1.17-.36h4.16v10.5h8.91v5.72h-8.91v18.07q0 1.56.77 2.43.76.88 2.09.88.75 0 1.25-.18.51-.18.88-.37.37-.2.67-.37.29-.18.58-.18.36 0 .59.18.22.17.48.53l2.41 3.9q-1.76 1.46-4.03 2.21-2.28.75-4.71.75m33.76-33.86h8.03v33.34h-4.91q-1.59 0-2.01-1.46l-.55-2.67q-2.05 2.08-4.52 3.37-2.47 1.28-5.82 1.28-2.73 0-4.82-.93-2.1-.92-3.53-2.61t-2.16-4.02q-.73-2.32-.73-5.12v-21.18h8.02v21.18q0 3.06 1.42 4.73 1.41 1.68 4.24 1.68 2.08 0 3.9-.93t3.44-2.55zm23.99 9.74v14.96q1.36 1.65 2.97 2.33 1.61.69 3.4.69 1.85 0 3.33-.67t2.52-2.08 1.59-3.61q.55-2.19.55-5.25 0-5.49-1.82-7.94-1.82-2.46-5.23-2.46-2.31 0-4.03 1.06t-3.28 2.97m0-24.7v19.05q2.01-2.11 4.47-3.36 2.45-1.26 5.6-1.26 2.9 0 5.22 1.14t3.97 3.27q1.64 2.13 2.51 5.15.88 3.02.88 6.79 0 4.06-1.01 7.38-1 3.31-2.87 5.67t-4.5 3.66q-2.64 1.3-5.85 1.3-1.56 0-2.83-.31t-2.34-.86q-1.07-.56-1.97-1.35-.89-.8-1.7-1.77l-.36 2.24q-.2.84-.67 1.2t-1.28.36h-5.3v-48.3zm35.2 27.79h15.14q0-1.56-.44-2.94t-1.31-2.42q-.88-1.04-2.23-1.64t-3.14-.6q-3.47 0-5.47 1.98t-2.55 5.62m20.47 4.84h-20.64q.2 2.57.91 4.44.72 1.87 1.89 3.09t2.78 1.82 3.56.6 3.36-.45q1.41-.46 2.47-1.01 1.06-.56 1.85-1.01.8-.45 1.55-.45 1 0 1.49.74l2.31 2.93q-1.33 1.56-2.99 2.61-1.66 1.06-3.46 1.69-1.81.64-3.67.9-1.87.26-3.63.26-3.48 0-6.47-1.16-2.99-1.15-5.2-3.41t-3.47-5.59q-1.27-3.33-1.27-7.72 0-3.41 1.1-6.42 1.11-3 3.17-5.23 2.07-2.23 5.04-3.52 2.97-1.31 6.71-1.31 3.15 0 5.82 1.01 2.66 1.01 4.58 2.94 1.92 1.94 3.01 4.75t1.09 6.42q0 1.82-.39 2.45t-1.5.63"/></svg>