<svg xmlns="http://www.w3.org/2000/svg" width="400" height="400" viewBox="0 0 400 400"><rect width="100%" height="100%" fill="#1e293b"/><path fill="#ffffff" d="m83.505 191.84.34 1.58q.6-.6 1.27-1.12.68-.52 1.43-.88t1.61-.56q.85-.21 1.87-.21 1.64 0 2.9.56 1.27.55 2.12 1.56.85 1 1.29 2.4.43 1.39.43 3.07v12.73h-4.81v-12.73q0-1.84-.84-2.84t-2.56-1q-1.24 0-2.34.56-1.09.57-2.06 1.54v14.47h-4.82v-20.01h2.95q.93 0 1.22.88m31.13 1.29-1.1 1.73q-.19.32-.41.44-.21.13-.54.13-.35 0-.75-.2l-.93-.44q-.52-.24-1.2-.43-.67-.2-1.59-.2-1.42 0-2.23.61-.81.6-.81 1.57 0 .65.42 1.09t1.11.77 1.57.59q.88.27 1.79.58.9.31 1.78.71t1.57 1.01q.69.62 1.11 1.48.42.85.42 2.06 0 1.45-.52 2.66-.51 1.22-1.53 2.11-1.01.89-2.5 1.38-1.49.5-3.44.5-1.04 0-2.02-.18-.99-.19-1.89-.52-.91-.33-1.68-.78t-1.36-.98l1.12-1.83q.21-.33.5-.51.29-.17.74-.17t.85.25q.4.26.93.55.52.29 1.24.55.71.25 1.8.25.86 0 1.47-.21.62-.2 1.02-.53t.58-.77q.19-.44.19-.91 0-.7-.42-1.15t-1.11-.78q-.7-.33-1.58-.59-.89-.27-1.82-.58-.92-.31-1.81-.73t-1.58-1.06q-.69-.65-1.11-1.58-.42-.94-.42-2.27 0-1.22.49-2.34.48-1.11 1.43-1.94.95-.82 2.36-1.32t3.27-.5q2.06 0 3.76.68 1.7.69 2.83 1.8m3.68 8.07v-4.02h10.1v4.02zm14.86-10.24h4.84v20.01h-4.84zm5.5-5.83q0 .63-.25 1.17-.26.55-.68.96t-.98.65q-.57.24-1.21.24-.62 0-1.18-.24t-.97-.65q-.4-.41-.65-.96-.24-.54-.24-1.17 0-.64.24-1.21.25-.56.65-.97.41-.41.97-.65.56-.25 1.18-.25.64 0 1.21.25.56.24.98.65t.68.97q.25.57.25 1.21m9.07 25.84h-4.82v-20.01h2.95q.93 0 1.22.88l.32 1.48q.52-.58 1.1-1.07.57-.49 1.23-.84.65-.35 1.4-.55.75-.21 1.65-.21 1.89 0 3.11 1.02 1.22 1.03 1.82 2.73.47-1 1.17-1.71t1.54-1.16 1.79-.66q.94-.22 1.9-.22 1.65 0 2.94.51t2.17 1.48q.87.97 1.33 2.38.46 1.4.46 3.22v12.73h-4.82v-12.73q0-1.91-.83-2.88-.84-.96-2.46-.96-.74 0-1.38.25-.63.25-1.11.73t-.75 1.2-.27 1.66v12.73h-4.84v-12.73q0-2.01-.81-2.93-.81-.91-2.37-.91-1.05 0-1.96.51-.9.52-1.68 1.42zm35.16-10.49q.89 0 1.56-.24.66-.25 1.1-.68t.66-1.03q.22-.61.22-1.33 0-1.48-.88-2.35-.89-.86-2.66-.86-1.78 0-2.67.86-.88.87-.88 2.35 0 .71.22 1.31.23.6.66 1.04.44.44 1.12.69.67.24 1.55.24m5.44 11.39q0-.59-.35-.96-.36-.37-.96-.57-.6-.21-1.41-.31-.81-.09-1.72-.14t-1.87-.09q-.97-.04-1.88-.16-.8.45-1.3 1.06-.5.6-.5 1.4 0 .53.27.99.26.45.83.79.58.33 1.5.51.91.19 2.24.19 1.34 0 2.32-.21.97-.2 1.61-.56.63-.36.92-.86.3-.5.3-1.08m-.96-20.22h5.75v1.79q0 .86-1.03 1.05l-1.79.33q.41 1.04.41 2.27 0 1.48-.6 2.68-.59 1.2-1.65 2.04-1.05.83-2.48 1.29-1.44.46-3.09.46-.59 0-1.14-.06-.54-.06-1.07-.15-.93.56-.93 1.26 0 .61.55.89.56.28 1.47.4.92.12 2.09.15t2.4.12q1.23.1 2.4.34 1.17.25 2.08.77.92.53 1.48 1.44.55.9.55 2.33 0 1.32-.65 2.57t-1.89 2.23q-1.24.97-3.04 1.56-1.81.6-4.11.6-2.26 0-3.94-.44t-2.79-1.17-1.65-1.69q-.55-.95-.55-1.99 0-1.4.85-2.34.85-.95 2.33-1.52-.8-.41-1.27-1.09t-.47-1.79q0-.45.17-.93.16-.48.49-.94.32-.47.81-.89.48-.42 1.15-.75-1.53-.82-2.39-2.19-.87-1.36-.87-3.19 0-1.49.59-2.69.6-1.19 1.66-2.04t2.52-1.3q1.45-.45 3.17-.45 1.28 0 2.41.27 1.13.26 2.07.77m8.64 9.55v-4.02h10.1v4.02zm27.26 3.84v-8.97q-.82-.99-1.78-1.4-.97-.41-2.08-.41-1.09 0-1.97.41t-1.5 1.24q-.63.83-.96 2.1-.33 1.28-.33 3.01 0 1.76.28 2.98.29 1.22.81 1.99.53.77 1.29 1.11t1.7.34q1.5 0 2.55-.62 1.05-.63 1.99-1.78m0-23.05h4.82v28.98h-2.95q-.95 0-1.21-.88l-.41-1.93q-1.21 1.39-2.77 2.24-1.57.86-3.66.86-1.64 0-3-.68-1.37-.68-2.35-1.98-.99-1.3-1.52-3.21-.54-1.91-.54-4.37 0-2.22.6-4.13.61-1.91 1.74-3.31 1.13-1.41 2.71-2.2t3.55-.79q1.68 0 2.86.53 1.19.53 2.13 1.42zm20.14 23.81v-3.37q-2.08.1-3.51.36-1.42.26-2.28.67t-1.23.96q-.37.54-.37 1.19 0 1.27.75 1.81.75.55 1.96.55 1.49 0 2.57-.54t2.11-1.63m-10.18-10.51-.85-1.54q3.45-3.16 8.3-3.16 1.76 0 3.14.58 1.39.57 2.34 1.6.96 1.02 1.46 2.44.49 1.43.49 3.12v12.64h-2.18q-.68 0-1.05-.2-.37-.21-.59-.83l-.43-1.45q-.76.69-1.48 1.2-.72.52-1.5.87t-1.67.54q-.89.18-1.96.18-1.27 0-2.34-.34t-1.85-1.02q-.78-.69-1.21-1.7t-.43-2.36q0-.76.25-1.51.26-.75.83-1.43.58-.69 1.5-1.29.91-.61 2.25-1.05 1.33-.45 3.11-.73 1.77-.29 4.05-.35v-1.17q0-2-.85-2.97-.86-.96-2.48-.96-1.17 0-1.94.27t-1.36.61l-1.06.62q-.48.27-1.06.27-.51 0-.86-.26-.35-.27-.57-.62m23.66-3.12.29 2.26q.94-1.79 2.22-2.81 1.29-1.03 3.05-1.03 1.38 0 2.22.61l-.31 3.6q-.1.36-.29.5-.18.15-.49.15-.3 0-.87-.1-.58-.1-1.12-.1-.8 0-1.43.24-.62.23-1.12.67-.49.44-.87 1.06-.38.63-.72 1.43v12.32h-4.81v-20.01h2.82q.75 0 1.04.27.29.26.39.94m10.29-10.18h4.82v16.6h.9q.49 0 .77-.13t.57-.52l4.98-6.14q.31-.41.69-.62.38-.22.98-.22h4.41l-6.22 7.43q-.66.88-1.44 1.35.41.29.73.68t.61.84l6.67 9.71h-4.35q-.56 0-.97-.19-.41-.18-.69-.67l-5.1-7.58q-.28-.45-.57-.59-.29-.13-.88-.13h-1.09v9.16h-4.82zm20.69 19.21v-4.02h10.1v4.02zm21.24-14.06-1 5.87q.94-.19 1.8-.28t1.66-.09q2.22 0 3.92.66 1.69.67 2.84 1.84t1.74 2.74q.58 1.57.58 3.38 0 2.24-.79 4.09-.79 1.86-2.19 3.17-1.4 1.32-3.32 2.04-1.93.72-4.19.72-1.32 0-2.51-.27t-2.24-.73q-1.04-.46-1.93-1.06-.88-.59-1.59-1.25l1.49-2.05q.46-.66 1.22-.66.49 0 1 .31t1.16.68 1.54.68q.89.32 2.14.32 1.32 0 2.34-.43 1.01-.43 1.68-1.2t1.02-1.84q.34-1.06.34-2.31 0-2.3-1.34-3.59-1.33-1.3-3.95-1.3-2.01 0-4.11.74l-3-.86 2.34-13.69h13.92v2.05q0 1.03-.65 1.68-.64.64-2.18.64z"/></svg>