<svg xmlns="http://www.w3.org/2000/svg" width="400" height="400" viewBox="0 0 400 400"><rect width="100%" height="100%" fill="#1e293b"/><path fill="#ffffff" d="m88.975 187.19.52 2.47q.95-.95 2-1.75 1.05-.81 2.23-1.38 1.17-.56 2.51-.88t2.93-.32q2.56 0 4.54.87 1.99.87 3.31 2.44 1.33 1.57 2.02 3.75.68 2.18.68 4.8v19.92h-7.53v-19.92q0-2.86-1.31-4.43-1.31-1.58-4-1.58-1.95 0-3.66.89-1.71.88-3.23 2.41v22.63h-7.53v-31.29h4.6q1.47 0 1.92 1.37m48.68 2.01-1.71 2.72q-.3.49-.64.68-.33.2-.85.2-.55 0-1.18-.3-.62-.31-1.44-.69-.83-.38-1.88-.69-1.05-.3-2.49-.3-2.22 0-3.49.94-1.26.95-1.26 2.47 0 1.01.65 1.7.66.68 1.74 1.2t2.46.93q1.37.41 2.79.9 1.41.49 2.79 1.12 1.37.62 2.45 1.58 1.09.96 1.74 2.3.66 1.35.66 3.24 0 2.25-.81 4.16t-2.4 3.29q-1.58 1.39-3.91 2.17-2.34.78-5.39.78-1.61 0-3.15-.29-1.55-.29-2.96-.81-1.42-.52-2.63-1.22-1.2-.7-2.12-1.52l1.74-2.87q.34-.52.8-.79.45-.28 1.15-.28.71 0 1.33.4.63.39 1.45.85t1.94.86q1.11.39 2.82.39 1.34 0 2.3-.32t1.59-.84q.62-.52.91-1.2.29-.69.29-1.42 0-1.1-.65-1.8-.66-.7-1.74-1.22-1.09-.52-2.47-.93-1.39-.41-2.84-.9t-2.84-1.14q-1.38-.66-2.47-1.67-1.08-1-1.74-2.47-.65-1.46-.65-3.53 0-1.93.76-3.66.76-1.74 2.24-3.04t3.69-2.07q2.21-.78 5.11-.78 3.24 0 5.89 1.07 2.65 1.06 4.42 2.8m5.77 12.63v-6.28h15.79v6.28zm23.24-16.01h7.56v31.29h-7.56zm8.6-9.12q0 .97-.4 1.83-.4.85-1.05 1.49-.66.64-1.54 1.02-.89.38-1.89.38-.98 0-1.85-.38t-1.51-1.02-1.02-1.49q-.38-.86-.38-1.83 0-1.01.38-1.89.38-.89 1.02-1.53t1.51-1.02 1.85-.38q1 0 1.89.38.88.38 1.54 1.02.65.64 1.05 1.53.4.88.4 1.89m14.18 40.41h-7.53v-31.29h4.6q1.47 0 1.92 1.37l.49 2.32q.83-.92 1.73-1.68.89-.76 1.92-1.31 1.02-.55 2.19-.87 1.18-.32 2.58-.32 2.96 0 4.86 1.6 1.91 1.6 2.86 4.25.73-1.55 1.83-2.66 1.09-1.12 2.41-1.82 1.31-.7 2.79-1.04 1.48-.33 2.97-.33 2.59 0 4.61.79 2.01.79 3.38 2.32t2.09 3.72q.72 2.2.72 5.03v19.92h-7.54v-19.92q0-2.99-1.31-4.5t-3.84-1.51q-1.16 0-2.15.4t-1.74 1.15q-.75.74-1.17 1.87-.43 1.13-.43 2.59v19.92h-7.56v-19.92q0-3.14-1.27-4.57-1.27-1.44-3.71-1.44-1.64 0-3.06.81t-2.64 2.21zm54.99-16.41q1.4 0 2.44-.38t1.73-1.05q.68-.67 1.03-1.62.35-.94.35-2.07 0-2.32-1.38-3.68-1.39-1.36-4.17-1.36-2.77 0-4.16 1.36t-1.39 3.68q0 1.1.35 2.04.35.95 1.04 1.63.68.69 1.74 1.07 1.05.38 2.42.38m8.51 17.81q0-.91-.55-1.49t-1.49-.9q-.95-.32-2.21-.47-1.27-.16-2.69-.23-1.42-.08-2.93-.14t-2.94-.24q-1.25.7-2.03 1.64-.77.95-.77 2.2 0 .82.41 1.54t1.31 1.23q.9.52 2.33.81 1.44.29 3.51.29 2.1 0 3.63-.32 1.52-.32 2.52-.88.99-.57 1.44-1.34.46-.78.46-1.7m-1.49-31.63h8.99v2.81q0 1.34-1.61 1.65l-2.81.52q.64 1.61.64 3.53 0 2.32-.93 4.2-.93 1.87-2.58 3.19-1.64 1.31-3.88 2.02-2.25.72-4.84.72-.91 0-1.77-.09-.85-.09-1.67-.25-1.47.89-1.47 1.99 0 .94.87 1.38.87.45 2.3.63 1.44.18 3.27.23 1.83.04 3.75.2 1.92.15 3.75.53t3.26 1.21q1.44.82 2.31 2.24t.87 3.64q0 2.08-1.03 4.03-1.02 1.95-2.95 3.48-1.94 1.52-4.76 2.45t-6.42.93q-3.54 0-6.16-.69-2.63-.68-4.37-1.83-1.73-1.14-2.59-2.63-.85-1.5-.85-3.11 0-2.2 1.32-3.68 1.33-1.48 3.65-2.36-1.25-.64-1.98-1.71-.74-1.07-.74-2.81 0-.7.26-1.45.26-.74.77-1.48.5-.73 1.26-1.38.76-.66 1.8-1.18-2.38-1.28-3.73-3.41-1.36-2.14-1.36-5.01 0-2.31.93-4.19t2.59-3.2q1.66-1.33 3.94-2.03 2.27-.7 4.95-.7 2.01 0 3.78.41t3.24 1.2m13.51 14.95v-6.28h15.8v6.28zm22.11-28.82h30.47v3.26q0 1.46-.3 2.36-.31.9-.61 1.51l-16.72 34.41q-.52 1.07-1.46 1.81-.95.75-2.53.75h-5.46l17.05-33.7q.58-1.04 1.14-1.91t1.27-1.66h-21.11q-.7 0-1.22-.52t-.52-1.22z"/></svg>